<svg xmlns="http://www.w3.org/2000/svg" viewBox="0 0 700.53 339.94"><defs><style>.cls-1{fill:#263238;}.cls-2{fill:#d3e5ab;}.cls-3{fill:#ff725e;}.cls-10,.cls-4{opacity:0.3;}.cls-5{fill:#fade9d;}.cls-6{fill:#ebebeb;}.cls-7{fill:#fff;}.cls-8{fill:#ffbe9d;}.cls-9{fill:#eb996e;}.cls-11{fill:#fafafa;}</style></defs><g id="Layer_2" data-name="Layer 2"><g id="Table"><path class="cls-1" d="M700.53,339.68c0,.14-156.83.26-350.25.26S0,339.82,0,339.68s156.8-.26,350.28-.26S700.53,339.54,700.53,339.68Z"/></g><g id="Plants"><path class="cls-2" d="M634.72,288.64s-26.51-30.51-36.51-61-5.26-27-5.26-27,13.51,29.63,23.76,43.95,28.51,35.32,28.51,35.32Z"/><path class="cls-2" d="M640,205.37a1.55,1.55,0,0,0-2.88,1c1.62,10.72,5.11,35.87,5,52.18-.18,21.19,0,29.38,0,29.38h11s-2-43.81-4.46-57.16C646.94,221.39,643.23,211,640,205.37Z"/><path class="cls-2" d="M646,284.34a116.58,116.58,0,0,0,9.08-32.94c.91-7.8-.71-18.34-3.12-32.4a86.87,86.87,0,0,1-1.39-15.6,2.63,2.63,0,0,1,4.94-1.23c1.33,2.38,5.18,10.49,6.16,15.58,2.67,13.89,5.7,20.83,3.39,34s-10.87,33.48-10.87,33.48Z"/><path class="cls-2" d="M656,285.24s29.11-62.55,31.12-71.83S696,182.75,696.75,184s2,12.51-3.22,25.42-27.64,77.76-27.64,77.76H656"/><path class="cls-2" d="M642.83,282.44a6.34,6.34,0,0,1-.82-.56c-.52-.4-1.3-.95-2.25-1.73a101.86,101.86,0,0,1-7.83-6.9,131.24,131.24,0,0,1-21.11-27.1,177.11,177.11,0,0,1-14.41-31.22c-1.47-4.16-2.53-7.56-3.23-9.92-.35-1.18-.6-2.1-.77-2.73a5.84,5.84,0,0,1-.23-1,5.05,5.05,0,0,1,.35.93l.88,2.69c.77,2.34,1.9,5.71,3.41,9.84a188.52,188.52,0,0,0,14.53,31.05,137.07,137.07,0,0,0,20.89,27.11c3.12,3.09,5.78,5.45,7.67,7,.93.8,1.69,1.38,2.18,1.81A6.06,6.06,0,0,1,642.83,282.44Z"/><path class="cls-2" d="M646,252.43a11.44,11.44,0,0,1-.26-1.83c-.14-1.3-.32-3-.54-5-.46-4.23-1.18-10.06-2.2-16.47s-2.18-12.18-3.07-16.35c-.43-2-.79-3.65-1.06-4.93a11,11,0,0,1-.33-1.82,10.67,10.67,0,0,1,.56,1.77c.33,1.14.76,2.81,1.26,4.89,1,4.14,2.21,9.91,3.25,16.34s1.68,12.28,2,16.53c.18,2.12.29,3.85.34,5A11.37,11.37,0,0,1,646,252.43Z"/><path class="cls-2" d="M652.83,201.68a4.27,4.27,0,0,1,.34.79l.87,2.33c.39,1,.83,2.25,1.25,3.72s1,3.13,1.42,5l.72,2.94c.24,1,.42,2.11.64,3.22.47,2.22.77,4.63,1.12,7.16A106.64,106.64,0,0,1,658,259.91c-.54,2.49-1,4.88-1.64,7.06-.3,1.09-.55,2.16-.86,3.16s-.64,2-.93,2.88c-.56,1.85-1.24,3.46-1.77,4.9s-1.06,2.64-1.52,3.62l-1,2.26a4.81,4.81,0,0,1-.4.76,4.88,4.88,0,0,1,.28-.81c.24-.59.55-1.35.93-2.3s.92-2.21,1.41-3.66,1.15-3,1.68-4.9c.28-.92.58-1.88.88-2.88s.55-2.07.84-3.16c.6-2.18,1-4.55,1.56-7a109.74,109.74,0,0,0,1.18-32.89c-.33-2.51-.61-4.91-1.06-7.13-.21-1.1-.37-2.19-.6-3.21s-.46-2-.68-2.93c-.39-1.89-.92-3.54-1.32-5s-.8-2.73-1.14-3.74-.57-1.76-.77-2.36A4.85,4.85,0,0,1,652.83,201.68Z"/><path class="cls-2" d="M696.42,185.22a1.19,1.19,0,0,1,0,.28c0,.22-.08.48-.13.81-.13.71-.29,1.77-.57,3.11-.57,2.69-1.5,6.57-3,11.26s-3.44,10.21-5.79,16.26-5.08,12.65-7.67,19.68-4.64,13.85-6.54,20.06-3.67,11.79-5.39,16.4a106.32,106.32,0,0,1-4.6,10.7c-.59,1.23-1.13,2.16-1.48,2.79l-.4.72c-.1.16-.15.24-.16.23a1.42,1.42,0,0,1,.1-.26l.35-.74c.31-.66.81-1.6,1.37-2.85,1.18-2.48,2.75-6.12,4.41-10.74s3.4-10.19,5.25-16.41,3.88-13.09,6.51-20.12,5.34-13.63,7.71-19.67,4.41-11.51,5.91-16.18,2.51-8.51,3.14-11.18c.32-1.33.52-2.38.69-3.08.07-.32.13-.59.19-.8S696.41,185.21,696.42,185.22Z"/><path class="cls-2" d="M606.68,171.4a2.51,2.51,0,0,0-4.13,2.56,72.31,72.31,0,0,0,3.66,9.4c4,8.5,15.75,39,21.25,55.77s13.26,48,13.26,48l11.75-1.9s-10.75-51.36-21.26-69.87C622.78,200.5,614.34,179,606.68,171.4Z"/><path class="cls-2" d="M630.68,249.61a7,7,0,0,1,.6,1.4c.35.93.83,2.27,1.36,4,1.08,3.35,2.41,8,3.74,13.23s2.44,9.94,3.21,13.37c.35,1.62.65,3,.88,4.07a7.4,7.4,0,0,1,.25,1.51,7.5,7.5,0,0,1-.48-1.45l-1.08-4c-.9-3.53-2.08-8.18-3.38-13.31s-2.59-9.89-3.56-13.26c-.47-1.6-.85-2.94-1.16-4A6.79,6.79,0,0,1,630.68,249.61Z"/><path class="cls-2" d="M646.62,286.19a1.76,1.76,0,0,1-.07-.32c0-.24-.08-.54-.13-.92-.12-.81-.23-2-.48-3.56-.43-3.08-1.2-7.53-2.46-13a189.39,189.39,0,0,0-5.5-18.77c-2.41-7-5.44-14.48-8.86-22.26-6.91-15.55-13.82-29.34-18.35-39.54-2.3-5.08-4.07-9.24-5.24-12.13-.6-1.44-1-2.58-1.32-3.34-.14-.36-.24-.65-.33-.88a1.26,1.26,0,0,1-.09-.3s.06.09.15.28.23.5.38.85c.35.8.83,1.9,1.43,3.3,1.24,2.86,3.07,7,5.42,12,4.63,10.14,11.6,23.9,18.52,39.47,3.43,7.79,6.44,15.34,8.83,22.33a176.12,176.12,0,0,1,5.38,18.85c1.21,5.46,1.92,9.93,2.28,13,.21,1.55.28,2.76.36,3.58,0,.38.06.68.08.93A1.3,1.3,0,0,1,646.62,286.19Z"/><path class="cls-2" d="M652.47,285.24a10.89,10.89,0,0,1-.4-2c-.23-1.38-.54-3.2-.91-5.4-.81-4.55-2-10.82-3.83-17.64s-3.74-12.91-5.26-17.28l-1.84-5.16a12.55,12.55,0,0,1-.63-1.91,12.52,12.52,0,0,1,.85,1.83c.51,1.19,1.22,2.93,2,5.1a170.38,170.38,0,0,1,5.45,17.26,177.79,177.79,0,0,1,3.66,17.73c.33,2.29.59,4.15.72,5.44A13.42,13.42,0,0,1,652.47,285.24Z"/><rect class="cls-3" x="630.72" y="283.55" width="45.86" height="55.87"/><g class="cls-4"><rect x="630.72" y="283.55" width="45.86" height="55.87"/></g><rect class="cls-3" x="621.27" y="283.55" width="40.68" height="55.87"/><path class="cls-2" d="M65.79,264.12c-7.81-5-18.63-5.1-26.24.22-7.21,5-10.88,14.23-10.56,23s4.58,19.55,12.56,24.17l23.4-.09a31.47,31.47,0,0,0,12.88-23.62C78.18,278.57,73.6,269.12,65.79,264.12Z"/><path class="cls-2" d="M54.27,312.39a10.77,10.77,0,0,1-.15-2c0-1.44-.09-3.28-.15-5.49-.12-4.63-.3-11-.61-18.1s-.7-13.46-1-18.08c-.14-2.21-.25-4-.33-5.48a10.39,10.39,0,0,1,0-2,10.63,10.63,0,0,1,.32,2c.16,1.29.35,3.16.56,5.47.43,4.62.89,11,1.2,18.09s.41,13.48.4,18.12c0,2.32,0,4.2-.09,5.5A10.38,10.38,0,0,1,54.27,312.39Z"/><path class="cls-2" d="M31.35,285.37c0,.21-1.29.27-2.84.15s-2.8-.4-2.78-.61,1.29-.27,2.84-.14S31.36,285.17,31.35,285.37Z"/><path class="cls-2" d="M31.78,277.48c-.08.19-1.18-.12-2.45-.68s-2.23-1.17-2.14-1.36,1.18.11,2.45.68S31.87,277.29,31.78,277.48Z"/><path class="cls-2" d="M35.85,271.62c-.11.17-1.34-.41-2.62-1.48s-2.09-2.16-1.94-2.3,1.17.7,2.41,1.73S36,271.44,35.85,271.62Z"/><path class="cls-2" d="M39.93,266.09c-.19.08-.78-.84-1.32-2.07s-.82-2.28-.63-2.36.78.84,1.32,2.06S40.12,266,39.93,266.09Z"/><path class="cls-2" d="M46.34,262.16c-.18.09-.82-.89-1.24-2.26s-.46-2.53-.26-2.56.56,1,1,2.34S46.53,262.08,46.34,262.16Z"/><path class="cls-2" d="M57,257.74c.2.07.08.91-.26,1.87s-.78,1.7-1,1.63-.08-.91.26-1.87S56.85,257.67,57,257.74Z"/><path class="cls-2" d="M65,261.14c.14.16-.37.86-1.14,1.57s-1.51,1.16-1.65,1,.37-.85,1.14-1.56S64.84,261,65,261.14Z"/><path class="cls-2" d="M72,265.65c.12.18-.5.8-1.38,1.4s-1.69.94-1.81.77.5-.8,1.39-1.39S71.85,265.48,72,265.65Z"/><path class="cls-2" d="M76.92,272.38c.08.19-.9.79-2.18,1.34s-2.4.84-2.48.65.9-.79,2.18-1.34S76.84,272.19,76.92,272.38Z"/><path class="cls-2" d="M78.87,279.72c0,.2-1,.49-2.22.65s-2.29.11-2.31-.09,1-.5,2.22-.65S78.85,279.51,78.87,279.72Z"/><path class="cls-2" d="M79.89,288.75c-.08.19-1.14-.09-2.37-.63s-2.15-1.11-2.07-1.3,1.14.09,2.37.62S80,288.56,79.89,288.75Z"/><path class="cls-2" d="M79,296.49c-.07.19-1.41-.13-2.81-1.05s-2.24-2-2.09-2.15,1.17.67,2.5,1.53S79.07,296.3,79,296.49Z"/><path class="cls-2" d="M75,303.55c-.12.16-1.19-.47-2.21-1.57s-1.58-2.22-1.41-2.33,1,.76,2,1.82S75.09,303.38,75,303.55Z"/><path class="cls-2" d="M36.65,304.38c.1.18-1,.95-2.5,1.72s-2.75,1.25-2.85,1.06,1-1,2.51-1.72S36.56,304.19,36.65,304.38Z"/><path class="cls-2" d="M33.15,298c.09.18-.81.78-2,1.32s-2.23.82-2.32.64.82-.78,2-1.32S33.07,297.81,33.15,298Z"/><path class="cls-2" d="M30.58,292.35c0,.2-1.07.53-2.47.72s-2.54.2-2.57,0,1.07-.53,2.47-.73S30.55,292.14,30.58,292.35Z"/><path class="cls-2" d="M39,289.23c.06.19-1,.7-2.46.86S34,290,34,289.8s1.14-.3,2.5-.46S39,289,39,289.23Z"/><path class="cls-2" d="M46,282.26c.06.19-.8.62-2,.74s-2.08-.15-2.06-.35.91-.29,2-.4S46,282.06,46,282.26Z"/><path class="cls-2" d="M47.37,276.67c-.07.2-1,.05-2.08-.32s-1.9-.83-1.83-1,1-.05,2.08.32S47.43,276.48,47.37,276.67Z"/><path class="cls-2" d="M49.94,271c-.15.14-.79-.28-1.24-1.07s-.5-1.55-.31-1.61.55.54,1,1.24S50.09,270.88,49.94,271Z"/><path class="cls-2" d="M46.84,294.15c0,.2-.76.57-1.8.83a7.37,7.37,0,0,1-1.51.22l-.15-.44c.27-.05.45,0,.48,0s-.07.22-.29.38l-.15-.43a6.9,6.9,0,0,1,1.44-.5C45.91,294,46.79,294,46.84,294.15Z"/><path class="cls-2" d="M48.28,304.06c.08.19-1,.77-2.29,1.3s-2.49.8-2.56.6,1-.77,2.29-1.3S48.21,303.86,48.28,304.06Z"/><path class="cls-2" d="M40.37,299.66c.06.19-.62.6-1.53.91s-1.71.4-1.77.21.62-.61,1.53-.92S40.3,299.46,40.37,299.66Z"/><path class="cls-2" d="M41,279.5c0,.19-1.24.07-2.61-.41s-2.38-1.15-2.3-1.33,1.21.15,2.54.62S41,279.29,41,279.5Z"/><path class="cls-2" d="M60.13,277.3c.11.18-.56.82-1.5,1.44s-1.79,1-1.91.81.56-.81,1.5-1.43S60,277.13,60.13,277.3Z"/><path class="cls-2" d="M61.17,287.25c0,.2-.66.52-1.57.71s-1.69.18-1.73,0,.66-.52,1.58-.71S61.13,287.05,61.17,287.25Z"/><path class="cls-2" d="M62.38,298.43c-.08.19-1.1-.1-2.26-.63s-2-1.13-2-1.32,1.1.1,2.27.64S62.47,298.25,62.38,298.43Z"/><path class="cls-2" d="M59.82,309.32c-.16.13-.82-.41-1.47-1.2s-1.06-1.55-.9-1.68.82.41,1.48,1.2S60,309.19,59.82,309.32Z"/><path class="cls-2" d="M59.3,270c.12.16-.31.71-1.06,1.08s-1.44.4-1.5.2.49-.53,1.17-.87S59.17,269.81,59.3,270Z"/><path class="cls-2" d="M68.69,280c.06.19-.8.67-2,.83s-2.16,0-2.14-.25.93-.33,2-.49S68.62,279.81,68.69,280Z"/><path class="cls-2" d="M66.81,271c.1.18-.77.79-2,1.18s-2.29.4-2.32.2.93-.53,2.09-.91S66.72,270.82,66.81,271Z"/><path class="cls-2" d="M70.74,294c0,.2-1.48.33-3.26,0s-3.12-1-3-1.15,1.46.1,3.18.41S70.74,293.75,70.74,294Z"/><path class="cls-2" d="M67.25,307c-.13.16-1.21-.48-2.3-1.57s-1.72-2.18-1.56-2.3,1,.72,2.09,1.77S67.38,306.88,67.25,307Z"/><path class="cls-2" d="M51.91,260.36a33.54,33.54,0,0,0-6.55,5.18,32,32,0,0,0-8.16,18,40.42,40.42,0,0,0,.49,11.05,84.11,84.11,0,0,0,2.07,8.86c.72,2.5,1.38,4.5,1.82,5.89a14.38,14.38,0,0,1,.63,2.17,11.68,11.68,0,0,1-.91-2.08c-.52-1.35-1.26-3.33-2-5.82a76.09,76.09,0,0,1-2.24-8.9,39.79,39.79,0,0,1-.55-11.26A31.41,31.41,0,0,1,45,265.17a23.6,23.6,0,0,1,4.88-3.82,13.64,13.64,0,0,1,1.5-.77A1.69,1.69,0,0,1,51.91,260.36Z"/><path class="cls-2" d="M62.09,312a80.52,80.52,0,0,0,3.36-8,45.43,45.43,0,0,0,2-20.63,38.85,38.85,0,0,0-3.18-11,26,26,0,0,0-5.43-7.56,19.93,19.93,0,0,0-5.31-3.36c-1.38-.57-2.21-.71-2.2-.77s.21,0,.61,0a12.91,12.91,0,0,1,1.69.46,18.51,18.51,0,0,1,5.56,3.23,25.71,25.71,0,0,1,5.7,7.66,38.21,38.21,0,0,1,3.3,11.19A43.84,43.84,0,0,1,66,304.17c-.42,1.29-1,2.4-1.37,3.39s-.88,1.81-1.24,2.47A12.69,12.69,0,0,1,62.09,312Z"/><polygon class="cls-3" points="33.16 310.26 74.34 310.26 74.59 318.5 33.16 318.5 33.16 310.26"/><polygon class="cls-3" points="36.65 314.38 39.02 339.54 69.13 339.54 71.54 314.65 36.65 314.38"/><path class="cls-1" d="M74.59,318.6c0,.2-9.27.37-20.71.37s-20.71-.17-20.71-.37,9.27-.38,20.71-.38S74.59,318.39,74.59,318.6Z"/><path class="cls-1" d="M70.4,326.26a5.52,5.52,0,0,1-.88,1.57,22.48,22.48,0,0,1-3.19,3.78l-.19.18-.19-.2a58.45,58.45,0,0,0-8.07-7.06l.46,0-3.58,3.14-4.23,3.68-.23.2-.24-.19-6.88-5.78.4-.05L40,329.85a10,10,0,0,1-1.4,1.53,10.65,10.65,0,0,1,1.15-1.72l3.36-4.5.17-.22.23.18,7,5.66h-.47l4.22-3.71L57.86,324l.22-.2.23.18a52.39,52.39,0,0,1,8,7.29l-.37,0A40.89,40.89,0,0,0,70.4,326.26Z"/></g><g id="Device"><rect class="cls-5" x="114.73" y="25.1" width="465.06" height="307.54" rx="14.57"/><path class="cls-5" d="M99.51,312.77H603.36a0,0,0,0,1,0,0v9.11a17.8,17.8,0,0,1-17.8,17.8H117.3a17.8,17.8,0,0,1-17.8-17.8v-9.11A0,0,0,0,1,99.51,312.77Z"/><polygon class="cls-5" points="301.41 309.89 307.67 319.83 395.65 319.83 401.45 309.89 301.41 309.89"/><path class="cls-5" d="M575.79,309.89c0,.16-103.22.3-230.52.3s-230.54-.14-230.54-.3,103.2-.3,230.54-.3S575.79,309.72,575.79,309.89Z"/><rect class="cls-6" x="128.05" y="42.78" width="436.6" height="258.98" rx="3.27"/><polygon class="cls-7" points="564.18 302.13 127.58 302.13 128.05 62.13 564.18 62.13 564.18 302.13"/><path class="cls-1" d="M163.86,52.78a3.49,3.49,0,1,1-3.49-3.48A3.49,3.49,0,0,1,163.86,52.78Z"/><path class="cls-1" d="M142.72,52.78a3.49,3.49,0,1,1-3.48-3.48A3.48,3.48,0,0,1,142.72,52.78Z"/><path class="cls-1" d="M152.87,52.78a3.49,3.49,0,1,1-3.49-3.48A3.49,3.49,0,0,1,152.87,52.78Z"/><rect class="cls-1" x="127.58" y="278.96" width="437.07" height="23.18"/><path class="cls-7" d="M144.09,293.23V294h-3.48v-.58l1.88-1.79c.46-.43.54-.71.54-1,0-.43-.3-.68-.88-.68a1.31,1.31,0,0,0-1.1.49l-.62-.47a2.18,2.18,0,0,1,1.8-.79c1,0,1.68.52,1.68,1.36a1.89,1.89,0,0,1-.78,1.49l-1.26,1.2Z"/><path class="cls-7" d="M144.57,290.89a.55.55,0,1,1,1.1,0,.55.55,0,1,1-1.1,0Zm0,2.57a.55.55,0,1,1,1.1,0,.55.55,0,1,1-1.1,0Z"/><path class="cls-7" d="M147.87,289.25V294H147v-4h-1v-.74Z"/><path class="cls-7" d="M153,292.9h-.84V294h-.85V292.9h-2.59v-.61l2.33-3H152l-2.19,2.91h1.55v-1h.82v1H153Z"/><rect class="cls-7" x="160.73" y="291.01" width="358.24" height="1.63"/><rect class="cls-3" x="160.46" y="289.25" width="111.95" height="4.36"/><path class="cls-3" d="M276,291.83a5.46,5.46,0,1,1-5.46-5.45A5.46,5.46,0,0,1,276,291.83Z"/><path class="cls-7" d="M528,291.78a1.57,1.57,0,0,1-1.73,1.53c-1.28,0-2-.83-2-2.35a2.23,2.23,0,0,1,2.31-2.51,2.35,2.35,0,0,1,1.24.3l-.32.67a1.61,1.61,0,0,0-.9-.23c-.89,0-1.45.55-1.45,1.62h0a1.63,1.63,0,0,1,1.26-.49A1.47,1.47,0,0,1,528,291.78Zm-.85,0c0-.5-.37-.81-.94-.81a.86.86,0,0,0-1,.81c0,.45.35.8,1,.8A.82.82,0,0,0,527.14,291.82Z"/><path class="cls-7" d="M528.42,290.16a.55.55,0,1,1,1.1,0,.55.55,0,1,1-1.1,0Zm0,2.57a.55.55,0,1,1,1.1,0,.55.55,0,1,1-1.1,0Z"/><path class="cls-7" d="M530.09,290.88c0-1.55.85-2.43,2-2.43s2,.88,2,2.43-.85,2.43-2,2.43S530.09,292.43,530.09,290.88Zm3.06,0c0-1.14-.44-1.67-1.09-1.67s-1.09.53-1.09,1.67.45,1.67,1.09,1.67S533.15,292,533.15,290.88Z"/><path class="cls-7" d="M534.62,290.88c0-1.55.85-2.43,2-2.43s2,.88,2,2.43-.85,2.43-2,2.43S534.62,292.43,534.62,290.88Zm3.06,0c0-1.14-.44-1.67-1.09-1.67s-1.08.53-1.08,1.67.44,1.67,1.08,1.67S537.68,292,537.68,290.88Z"/><polygon class="cls-7" points="546.2 290.59 544.56 290.59 544.56 285.88 549.26 285.88 549.26 287.51 546.2 287.51 546.2 290.59"/><polygon class="cls-7" points="549.27 296.73 544.56 296.73 544.56 292.03 546.19 292.03 546.19 295.1 549.27 295.1 549.27 296.73"/><polygon class="cls-7" points="556.76 296.73 552.07 296.73 552.07 295.1 555.13 295.1 555.13 292.02 556.76 292.02 556.76 296.73"/><polygon class="cls-7" points="556.77 290.58 555.14 290.58 555.14 287.51 552.06 287.51 552.06 285.88 556.77 285.88 556.77 290.58"/><polygon class="cls-6" points="187.45 76.41 161.72 76.41 148.85 98.69 161.72 120.98 187.45 120.98 200.32 98.69 187.45 76.41"/><path class="cls-1" d="M163.82,103.05a23.18,23.18,0,0,1-3.15-4,7.71,7.71,0,0,1-1.06-4.94c.16-1,.58-1.93.65-2.93.09-1.38-.49-2.82,0-4.11.77-2,3.48-2.33,5.13-3.72,1.28-1.09,1.91-2.85,3.32-3.76A6.25,6.25,0,0,1,173,79a16.13,16.13,0,0,0,4.37.38,30.14,30.14,0,0,0,3-.81,4.12,4.12,0,0,1,3.05.21,2,2,0,0,1,.82,2.67c1.68-.78,3.83.53,4.29,2.33a5.06,5.06,0,0,1-1.89,4.93,11.1,11.1,0,0,1-5.1,2.08c-5.17,1-10.77.42-15.22-2.37"/><path class="cls-8" d="M187.68,108.55c-.17-3.19-1.07-9.72-1.94-15.63a12.34,12.34,0,0,0-13-10.5l-.64,0c-6.84.86-9.93,7.16-8.88,14l2,24.55H181.9s-.39-4.31-.39-4.35S188,115.16,187.68,108.55Z"/><path class="cls-9" d="M181.51,116.53a15.37,15.37,0,0,1-8.77-1.87s2.35,4.62,8.9,3.58Z"/><path class="cls-1" d="M183.61,98.58a.94.94,0,0,1-.84,1,.91.91,0,0,1-1-.78,1,1,0,0,1,.84-1A.91.91,0,0,1,183.61,98.58Z"/><path class="cls-1" d="M184.53,96.24c-.11.13-.85-.35-1.87-.28s-1.72.62-1.84.51.05-.28.35-.54a2.61,2.61,0,0,1,1.47-.56,2.54,2.54,0,0,1,1.5.37C184.47,96,184.59,96.18,184.53,96.24Z"/><path class="cls-1" d="M174,99.26a1,1,0,0,1-.85,1,.92.92,0,0,1-1-.79.94.94,0,0,1,.85-1A.91.91,0,0,1,174,99.26Z"/><path class="cls-1" d="M174.57,97.09c-.1.13-.85-.35-1.87-.28s-1.72.63-1.84.51,0-.28.36-.53a2.55,2.55,0,0,1,3-.19C174.51,96.82,174.63,97,174.57,97.09Z"/><path class="cls-1" d="M178.76,104.37a6.45,6.45,0,0,1,1.63-.41c.25,0,.5-.11.53-.29a1.32,1.32,0,0,0-.23-.76L179.8,101a33,33,0,0,1-2.07-5,33.88,33.88,0,0,1,2.47,4.86c.3.68.59,1.32.86,1.94a1.53,1.53,0,0,1,.21,1,.63.63,0,0,1-.41.4,1.55,1.55,0,0,1-.43.1A6.56,6.56,0,0,1,178.76,104.37Z"/><path class="cls-1" d="M174.57,93.1c-.08.28-1.1.22-2.28.44s-2.12.61-2.3.38.07-.39.44-.68a3.85,3.85,0,0,1,1.68-.71,3.76,3.76,0,0,1,1.81.09C174.37,92.76,174.6,93,174.57,93.1Z"/><path class="cls-1" d="M184,93.33c-.16.24-.87,0-1.72.09s-1.54.26-1.72,0,0-.35.32-.59a2.5,2.5,0,0,1,2.77-.1C183.92,93,184,93.21,184,93.33Z"/><path class="cls-8" d="M164.07,101.28c-.12,0-4.63-1-4.18,3.47s5.32,3,5.32,2.9S164.07,101.28,164.07,101.28Z"/><path class="cls-9" d="M163.21,106.17s-.07.07-.2.14a.81.81,0,0,1-.58.07,1.93,1.93,0,0,1-1.07-1.65,2.56,2.56,0,0,1,.1-1.15.93.93,0,0,1,.54-.66.4.4,0,0,1,.48.17c.07.12.05.21.08.22s.09-.09,0-.27a.49.49,0,0,0-.2-.26.57.57,0,0,0-.45-.07,1.1,1.1,0,0,0-.75.77,2.74,2.74,0,0,0-.15,1.29,2.06,2.06,0,0,0,1.34,1.83.86.86,0,0,0,.71-.19C163.21,106.28,163.23,106.18,163.21,106.17Z"/><path class="cls-1" d="M185.4,86.75c-.31,1.79-3.94,3.43-7,3.35-2.78-.08-4.15-1.46-6.17-2.44-1.28-.62-1.28-.62-3-.34-1.4.23-2.13,1.88-2.92,3.06,1.5,3.27.9,7.07.26,10.61a1.82,1.82,0,0,1-.45,1.08,1.43,1.43,0,0,1-1.83-.28,5.55,5.55,0,0,1-1.42-2.86,18.65,18.65,0,0,1-.45-7.32A12.69,12.69,0,0,1,165.5,85a12,12,0,0,1,8.19-3.74,14.85,14.85,0,0,1,8.73,2.48,8.59,8.59,0,0,1,3,3"/><path class="cls-9" d="M179.42,106.65l-2.29-1.07a.91.91,0,0,0-.42-.11.78.78,0,0,0-.4.27,2.15,2.15,0,0,0-.25,2.35,1.78,1.78,0,0,0,2.15.79,2.44,2.44,0,0,0,1.28-2.16Z"/><path class="cls-1" d="M178.28,109s-.47.37-1.34.12a2,2,0,0,1-1.19-1,2.19,2.19,0,0,1-.15-1.88,2.32,2.32,0,0,1,.55-.84,2.82,2.82,0,0,1,.39-.29.69.69,0,0,1,.61,0c.52.3.88.54,1.23.77.67.45,1.07.75,1,.82a3.66,3.66,0,0,1-1.22-.5L177,105.6c-.1,0-.09,0-.18,0a1.49,1.49,0,0,0-.28.23,1.94,1.94,0,0,0-.43.65,1.78,1.78,0,0,0,.09,1.47,1.84,1.84,0,0,0,.9.85A4.35,4.35,0,0,0,178.28,109Z"/><path class="cls-1" d="M177.56,98.69c-.05,0,0-.42-.25-1.12a4.62,4.62,0,0,0-1.72-2.47,4.48,4.48,0,1,0,0,7.18,4.6,4.6,0,0,0,1.72-2.46c.21-.71.2-1.13.25-1.13s0,.1,0,.3a3.47,3.47,0,0,1-.09.87,4.68,4.68,0,0,1-1.7,2.72,4.87,4.87,0,0,1-4.64.75,4.92,4.92,0,0,1,0-9.28,4.84,4.84,0,0,1,4.64.76,4.63,4.63,0,0,1,1.7,2.71,3.47,3.47,0,0,1,.09.87C177.59,98.59,177.58,98.69,177.56,98.69Z"/><path class="cls-1" d="M188.79,98.25s0-.41-.24-1.09a4.53,4.53,0,0,0-1.68-2.41,4.36,4.36,0,1,0,0,7,4.53,4.53,0,0,0,1.68-2.41c.2-.68.19-1.09.24-1.09s0,.1,0,.3a3.66,3.66,0,0,1-.08.84,4.58,4.58,0,0,1-1.66,2.65,4.74,4.74,0,0,1-4.52.74,4.81,4.81,0,0,1,0-9.06,4.74,4.74,0,0,1,4.52.74,4.63,4.63,0,0,1,1.66,2.65,3.66,3.66,0,0,1,.08.84C188.82,98.15,188.81,98.25,188.79,98.25Z"/><path class="cls-1" d="M179.63,97.21c-.11.1-.55-.19-1.15-.17s-1,.31-1.14.21.28-.72,1.13-.73S179.76,97.13,179.63,97.21Z"/><path class="cls-1" d="M168.44,98c.08.12-.79.92-1.95,1.78a7.18,7.18,0,0,1-2.26,1.37c-.09-.12.78-.91,2-1.78A7,7,0,0,1,168.44,98Z"/><path class="cls-1" d="M261.25,98.46c0,.15-11.56.27-25.83.27s-25.84-.12-25.84-.27,11.57-.26,25.84-.26S261.25,98.32,261.25,98.46Z"/><path class="cls-1" d="M237.36,103.87c0,.15-6.15.26-13.72.26s-13.72-.11-13.72-.26,6.14-.26,13.72-.26S237.36,103.73,237.36,103.87Z"/></g><g id="Character"><path class="cls-3" d="M416.06,138.42a39.38,39.38,0,0,1,18.56,24c4.82,17.28,19.59,62.28,19.59,62.28s8.44,9.93,9.35,17.28-.91,25.14-3.62,28.46a7.64,7.64,0,0,1-6.58,2.76l-35.53-3.37-14-93.67Z"/><path class="cls-3" d="M298.57,136.78s-25.4,8-31.73,14.9l20.8,96.77L287.31,279H407.75c0-1.5,1.08-101.37,1.08-101.37l7.23-39.19-42.81-7.54-8.44-6.63-47.63,2.41L310,133.9Z"/><g class="cls-4"><path d="M308.22,220.73c-.37-.82-.9-1.7-1.78-1.89-1.45-.3-2.42,1.42-2.92,2.82a127,127,0,0,1-15.82,30.89l-.31,14.86c7-5.91,13.95-12.24,18.42-20.25S312,229.1,308.22,220.73Z"/></g><path class="cls-3" d="M266.84,151.68s-8.37,11.41-11.85,18.86-32.27,70-34,76.47-6.21,26.82,7,31.53H255l27.17-54.92,1.39-63.75Z"/><path class="cls-1" d="M256.73,238.87s-.61-.53-1.85-1.24a20.81,20.81,0,0,0-5.68-2.06,26.14,26.14,0,0,0-4.14-.58,16.15,16.15,0,0,0-4.75.31A17.67,17.67,0,0,0,231.2,241a24.64,24.64,0,0,0-5.16,9.59,47.8,47.8,0,0,0-1.63,8.85c-.25,2.56-.34,4.64-.43,6.08,0,.67-.08,1.22-.11,1.66a2.45,2.45,0,0,1-.07.58,2.17,2.17,0,0,1,0-.58v-1.67c0-1.44.07-3.53.28-6.1a45.3,45.3,0,0,1,1.53-9,24.75,24.75,0,0,1,5.23-9.8,18,18,0,0,1,9.4-5.84,16.33,16.33,0,0,1,4.88-.27,26.33,26.33,0,0,1,4.19.65,19.46,19.46,0,0,1,5.7,2.24,9.18,9.18,0,0,1,1.34,1C256.6,238.71,256.74,238.85,256.73,238.87Z"/><path class="cls-1" d="M243.89,227.93a3.64,3.64,0,0,1,.91-.14,15,15,0,0,1,2.51,0,21,21,0,0,1,3.7.55,24,24,0,0,1,4.31,1.52,24.64,24.64,0,0,1,3.9,2.39,20.39,20.39,0,0,1,2.74,2.53,16.44,16.44,0,0,1,1.56,2,4,4,0,0,1,.46.8c-.08.06-.82-1-2.28-2.52a23.57,23.57,0,0,0-2.77-2.39,23.32,23.32,0,0,0-8-3.84,24.17,24.17,0,0,0-3.6-.64C245.21,227.92,243.9,228,243.89,227.93Z"/><path class="cls-1" d="M268.36,224.92a5.58,5.58,0,0,1-1.25-.09c-.8-.11-2-.22-3.39-.33a57.94,57.94,0,0,0-22.14,2.65c-1.36.44-2.46.83-3.21,1.11a5.44,5.44,0,0,1-1.2.39,6.86,6.86,0,0,1,1.12-.57c.73-.35,1.82-.79,3.18-1.28a51.21,51.21,0,0,1,22.28-2.67c1.44.16,2.6.33,3.39.5A5.91,5.91,0,0,1,268.36,224.92Z"/><path class="cls-1" d="M345.44,171.47a3,3,0,0,1-.27-.33l-.74-1-2.72-3.77c-2.34-3.29-5.6-7.89-9.43-13.3l.42-.06c-1.46,4.29-3.06,9-4.76,14l-.1.32-.28-.18-.56-.36a29.14,29.14,0,0,1-5.89-5A35.06,35.06,0,0,1,316.9,156a48.5,48.5,0,0,1-4.63-11.2,74.77,74.77,0,0,1-1.75-8c-.16-.91-.29-1.63-.38-2.18-.05-.25-.1-.43-.13-.56a.74.74,0,0,1-.06-.18,9.22,9.22,0,0,1,.77,2.88c.39,1.89.93,4.62,1.9,7.91a50.54,50.54,0,0,0,4.69,11.06,35.26,35.26,0,0,0,4.18,5.71,28.1,28.1,0,0,0,5.79,4.88l.55.36-.38.13c1.71-5,3.33-9.68,4.8-14l.16-.45.26.39c3.77,5.45,7,10.08,9.27,13.41l2.61,3.84.68,1A1.54,1.54,0,0,1,345.44,171.47Z"/><g class="cls-4"><path d="M376.8,217.66a54.62,54.62,0,0,0,7,32.45c5.6,9.75,13.81,18.44,24,23.1.33-9.93-.14-21.63.19-31.56Z"/></g><path class="cls-8" d="M375.67,204.59s-4.38,1.21-1.1,10.17,4.38,8.42,6.56,16.81,4.74,16,8.57,20.77,18.05,14.4,18.05,14.4l12.76-12s-2.11-9-1.6-15.05,1.78-21,1.6-23.59-2.92-8.75-2.92-8.75v-4.24L411,182.9s-3.65-1.65-4.92,4.19l-2.19-6.19s-3.46-.56-4.38,6.55.73,17,.73,17l-1.82,12.4-2.73,8.38-2.37.37s-3.57-1-5.52-7.69S380.59,203.13,375.67,204.59Z"/><path class="cls-9" d="M416.23,236.29a2.66,2.66,0,0,1-.06-.46c0-.35-.05-.79-.09-1.33-.06-1.23-.15-2.92-.27-5-.19-4.36-.47-10.41-.79-17.48l.06.14a2.55,2.55,0,0,0-2.58-.67,3.8,3.8,0,0,0-2.37,1.73c-1.11,1.8-1.17,4.13-1.52,6.39-.69,5.11-1.35,10-1.95,14.41-.31,2.21-.63,4.32-1.06,6.27a41.66,41.66,0,0,1-1.58,5.32c-.56,1.59-1.06,3-1.37,4.33a13,13,0,0,0-.41,3.37,10.29,10.29,0,0,0,.5,2.86,3.79,3.79,0,0,1-.31-.7,7.9,7.9,0,0,1-.4-2.15,13.16,13.16,0,0,1,.33-3.45,43.63,43.63,0,0,1,1.31-4.38,42.45,42.45,0,0,0,1.51-5.29c.41-1.94.71-4,1-6.25.59-4.43,1.24-9.3,1.91-14.41.16-1.14.29-2.26.49-3.39a8.93,8.93,0,0,1,1.12-3.2,4.31,4.31,0,0,1,2.68-2,3,3,0,0,1,3.07.85l.06.07V212c.24,7.07.45,13.13.6,17.48.06,2.11.1,3.81.13,5,0,.55,0,1,0,1.34A1.38,1.38,0,0,1,416.23,236.29Z"/><path class="cls-9" d="M409.26,213.32a5.06,5.06,0,0,1-.54-1.14,27.9,27.9,0,0,1-1.07-3.27,32,32,0,0,1-.91-5,14.56,14.56,0,0,1-.06-3,6.49,6.49,0,0,1,1.1-3.13,4.48,4.48,0,0,1,2.33-1.75l.2-.06.1.18c1.85,3.26,3.45,6.14,4.58,8.21l1.31,2.44a4.12,4.12,0,0,1,.42.92,3.75,3.75,0,0,1-.58-.83l-1.44-2.37c-1.21-2-2.87-4.87-4.74-8.12l.3.12a4,4,0,0,0-2.05,1.56,6,6,0,0,0-1,2.88,14.51,14.51,0,0,0,0,2.95,37.25,37.25,0,0,0,.8,5c.32,1.41.66,2.52.9,3.29A8.47,8.47,0,0,1,409.26,213.32Z"/><path class="cls-9" d="M406.21,215a4.55,4.55,0,0,1-.12-1.16c0-.86-.08-1.92-.13-3.17-.09-2.68-.17-6.38-.23-10.47a90.59,90.59,0,0,1,.16-10.49,16.5,16.5,0,0,1,.69-3.13,3.64,3.64,0,0,1,.47-1.07,29.32,29.32,0,0,0-.79,4.23c-.25,2.65,0,6.36,0,10.45s.09,7.79.08,10.47c0,1.26,0,2.32,0,3.18A5.64,5.64,0,0,1,406.21,215Z"/><path class="cls-9" d="M395.42,248.57c-.08-.06.72-1,1.71-2.7a23.35,23.35,0,0,0,1.49-3.11,24.64,24.64,0,0,0,1.13-4.06,24.32,24.32,0,0,0,.36-4.2,22.14,22.14,0,0,0-.31-3.44c-.32-1.94-.74-3.1-.65-3.13a3,3,0,0,1,.36.79,15.77,15.77,0,0,1,.66,2.27,20.59,20.59,0,0,1,.42,3.5,23.33,23.33,0,0,1-.32,4.3,22.94,22.94,0,0,1-1.21,4.14,19.25,19.25,0,0,1-1.61,3.13A15.3,15.3,0,0,1,396,248C395.66,248.38,395.45,248.6,395.42,248.57Z"/><path class="cls-8" d="M417.82,242.3l11.07,3.85s10.57-5.47,17.86,0,13.63,19.88,11.62,25.71c0,0-5,6.21-8.86,7.12s-18.71-2.69-24.9-4-16.86-8.25-16.86-8.25Z"/><path class="cls-9" d="M419.18,258.62a3.31,3.31,0,0,1-.12-1c0-.75-.1-1.64-.16-2.68-.11-2.26-.27-5.38-.31-8.84a85.19,85.19,0,0,1,.25-8.85c.1-1.13.22-2.05.34-2.67a3.09,3.09,0,0,1,.23-1c.08,0-.09,1.4-.2,3.65s-.15,5.38-.1,8.82.12,6.44.16,8.84c0,1.13,0,2.05,0,2.68A4.13,4.13,0,0,1,419.18,258.62Z"/><path class="cls-1" d="M455.69,245.71a35.23,35.23,0,0,0-3.68-3.32,20.26,20.26,0,0,0-22.45-1.24,34.46,34.46,0,0,0-4,2.9,5.39,5.39,0,0,1,.91-1,18.18,18.18,0,0,1,2.92-2.22,19.88,19.88,0,0,1,22.86,1.26,17.55,17.55,0,0,1,2.66,2.53A5.47,5.47,0,0,1,455.69,245.71Z"/><path class="cls-1" d="M454.27,236.48a21.56,21.56,0,0,0-4.61-2.54,20.44,20.44,0,0,0-12.47-.38,29,29,0,0,0-6.44,2.69,30.59,30.59,0,0,0-4.67,3.3c-1.24,1.06-2.19,2-2.85,2.63a7.75,7.75,0,0,1-1,1,7.78,7.78,0,0,1,.9-1.11,34.57,34.57,0,0,1,2.75-2.77,27.61,27.61,0,0,1,11.21-6.21,20,20,0,0,1,12.74.54,14.56,14.56,0,0,1,3.41,1.92,8,8,0,0,1,.81.69C454.19,236.37,454.28,236.47,454.27,236.48Z"/><path class="cls-1" d="M454.36,228.48c0,.1-2-.49-5.18-.93a42.4,42.4,0,0,0-5.68-.36,45.71,45.71,0,0,0-6.92.63,45,45,0,0,0-6.73,1.78,41.39,41.39,0,0,0-5.21,2.27c-2.88,1.51-4.5,2.73-4.56,2.64a8.2,8.2,0,0,1,1.11-.89c.37-.27.82-.6,1.38-.94s1.16-.76,1.89-1.13a37,37,0,0,1,5.22-2.4,42.3,42.3,0,0,1,6.81-1.85,43,43,0,0,1,7-.59,37.12,37.12,0,0,1,5.73.48c.82.1,1.54.29,2.17.42s1.18.28,1.61.41A6.64,6.64,0,0,1,454.36,228.48Z"/><path class="cls-1" d="M369.52,130.55a9.12,9.12,0,0,1,.77,2.95,28.63,28.63,0,0,1-.42,8.59,50.58,50.58,0,0,1-1.43,6,45.76,45.76,0,0,1-2.91,6.66c-2.38,4.59-5.38,9.61-8.86,15l-.41.62v-.75c0-3.53,0-7.24,0-11.09l.39.18-9.34,7.54.08-.12a98.34,98.34,0,0,0-4.16,22.45c-.91,12.17-.17,23.81.4,34.37s.81,20.1,1.14,28.1.61,14.46.85,18.93c.13,2.21.23,3.94.31,5.14,0,.57.06,1,.08,1.34s0,.46,0,.46,0-.16-.07-.46-.08-.76-.14-1.33c-.11-1.17-.25-2.91-.4-5.14-.3-4.47-.65-10.93-1-18.93s-.79-17.52-1.26-28.08-1.35-22.22-.44-34.44a98.32,98.32,0,0,1,4.2-22.56l0-.07.06,0,9.36-7.52.38-.31v.5c0,3.85,0,7.56,0,11.09l-.41-.12c6.87-10.65,12.46-19.91,13.32-27.4a29.79,29.79,0,0,0,.54-8.53,15.07,15.07,0,0,0-.41-2.21C369.59,130.81,369.52,130.55,369.52,130.55Z"/><path class="cls-7" d="M351.59,259.55h-.36a2.8,2.8,0,1,0,.36,0Z"/><path class="cls-7" d="M351.59,221l-.36,0a2.88,2.88,0,1,0,.36,0Z"/><path class="cls-7" d="M351.21,186.53a2.82,2.82,0,0,0,.38-5.63h-.36a2.82,2.82,0,0,0,0,5.64Z"/><path class="cls-1" d="M308,85.39c-3.51-3.88-7-7.8-9.6-12.37s-4.08-9.89-3.23-15c.49-3,1.78-5.89,2-8.94.28-4.2-1.49-8.59,0-12.53,2.33-6.15,10.61-7.1,15.63-11.35,3.91-3.31,5.82-8.68,10.12-11.47,3.76-2.43,8.58-2.38,13-1.75s8.89,1.75,13.32,1.15c3.16-.43,6.14-1.7,9.24-2.47s6.55-1,9.31.63,4.31,5.52,2.5,8.15C375.47,17,382,21,383.41,26.51s-1.41,11.41-5.77,15-10,5.3-15.55,6.35c-15.75,3-32.83,1.29-46.4-7.23"/><path class="cls-8" d="M363.4,138.34c-.77-6-1.39-10.94-1.43-11.55,0,0,19.92-4.48,18.82-24.63-.53-9.73-3.26-29.69-5.93-47.72a37.59,37.59,0,0,0-39.69-32l-1.94.13C312.37,25.24,303,44.42,306.15,65.2l11.25,69.67s4.81,15.41,15.08,18.08l13,18.52,2.15-8,9.66-8.41A37.79,37.79,0,0,0,362,148,15.42,15.42,0,0,0,363.4,138.34Z"/><path class="cls-9" d="M362,126.49s-12.65,1.89-26.74-5.7c0,0,7.17,14.07,27.14,10.91Z"/><path class="cls-1" d="M368.39,71.75a2.88,2.88,0,0,1-2.58,3.08,2.76,2.76,0,0,1-3.14-2.39,2.89,2.89,0,0,1,2.58-3.09A2.76,2.76,0,0,1,368.39,71.75Z"/><path class="cls-1" d="M371.2,64.61c-.33.39-2.62-1.07-5.71-.86s-5.26,1.92-5.62,1.56c-.17-.16.14-.86,1.08-1.64A7.93,7.93,0,0,1,365.42,62,7.58,7.58,0,0,1,370,63.1C371,63.77,371.36,64.43,371.2,64.61Z"/><path class="cls-1" d="M339.17,73.84a2.88,2.88,0,0,1-2.58,3.08,2.77,2.77,0,0,1-3.14-2.39A2.89,2.89,0,0,1,336,71.44,2.76,2.76,0,0,1,339.17,73.84Z"/><path class="cls-1" d="M340.83,67.22c-.33.4-2.62-1.07-5.71-.86s-5.25,1.92-5.61,1.56c-.18-.15.13-.85,1.08-1.64a7.9,7.9,0,0,1,4.46-1.71,7.62,7.62,0,0,1,4.58,1.14C340.63,66.38,341,67,340.83,67.22Z"/><path class="cls-1" d="M353.59,89.4c0-.17,1.88-.63,5-1.24.79-.13,1.53-.34,1.62-.89a4,4,0,0,0-.68-2.3c-.87-1.86-1.78-3.82-2.74-5.86-3.81-8.35-6.63-15.23-6.3-15.38s3.71,6.49,7.52,14.84c.93,2.06,1.81,4,2.65,5.9a4.52,4.52,0,0,1,.61,3.07A2,2,0,0,1,360,88.78a5.29,5.29,0,0,1-1.33.28C355.56,89.43,353.62,89.58,353.59,89.4Z"/><path class="cls-1" d="M340.82,55c-.25.86-3.36.67-7,1.35s-6.47,1.87-7,1.15c-.24-.35.22-1.18,1.34-2.07a12.31,12.31,0,0,1,10.64-1.9C340.21,54,340.92,54.63,340.82,55Z"/><path class="cls-1" d="M369.46,55.73c-.5.74-2.68.15-5.24.29s-4.7.79-5.25.09c-.24-.35,0-1.07,1-1.8a7.57,7.57,0,0,1,8.45-.3C369.33,54.67,369.68,55.37,369.46,55.73Z"/><path class="cls-8" d="M308.79,80c-.35-.13-14.1-3.17-12.74,10.56s16.24,9.26,16.22,8.86S308.79,80,308.79,80Z"/><path class="cls-9" d="M306.19,94.91c-.07,0-.23.19-.61.41a2.44,2.44,0,0,1-1.79.22c-1.5-.39-3-2.58-3.26-5a7.83,7.83,0,0,1,.33-3.49,2.77,2.77,0,0,1,1.62-2,1.21,1.21,0,0,1,1.47.52c.22.36.16.65.24.66s.27-.26.1-.81a1.48,1.48,0,0,0-.62-.81,1.82,1.82,0,0,0-1.36-.22A3.39,3.39,0,0,0,300,86.71a8.36,8.36,0,0,0-.45,3.91c.37,2.75,2,5.2,4.08,5.58a2.54,2.54,0,0,0,2.15-.58C306.19,95.24,306.24,94.93,306.19,94.91Z"/><path class="cls-1" d="M373.85,35.68c-.94,5.46-12,10.47-21.22,10.2-8.47-.24-12.66-4.45-18.82-7.43-3.89-1.9-3.89-1.9-9.18-1-4.28.7-6.5,5.74-8.9,9.35,4.58,10,2.73,21.56.79,32.35a5.46,5.46,0,0,1-1.39,3.29c-1.54,1.36-4.05.54-5.56-.85-2.43-2.22-3.54-5.52-4.34-8.72a56.86,56.86,0,0,1-1.36-22.33,38.6,38.6,0,0,1,9.29-20.16,36.59,36.59,0,0,1,25-11.39,45,45,0,0,1,26.63,7.56c3.64,2.38,7,5.33,9.1,9.17"/><path class="cls-9" d="M355.61,96.36l-7-3.26a2.47,2.47,0,0,0-1.28-.33,2.06,2.06,0,0,0-1.21.83,6.5,6.5,0,0,0-.77,7.15,5.45,5.45,0,0,0,6.56,2.41c2.49-1,3.69-3.9,3.88-6.58Z"/><path class="cls-1" d="M352.14,103.66c0,.06-.32.26-1,.41a6.18,6.18,0,0,1-3-.22,6.35,6.35,0,0,1-3.48-2.89,6.43,6.43,0,0,1-.42-5.52A6.69,6.69,0,0,1,345.83,93a6.43,6.43,0,0,1,1.14-.86,1.89,1.89,0,0,1,.8-.26,2.07,2.07,0,0,1,.82.16c.45.21.75.43,1.09.62l.95.59,1.7,1.06c2.08,1.32,3.33,2.2,3.26,2.32s-1.46-.53-3.63-1.68l-1.76-1-1-.54a10.74,10.74,0,0,0-1-.52.76.76,0,0,0-.77.07,5.67,5.67,0,0,0-.92.73,6,6,0,0,0-1.36,2.09,5.68,5.68,0,0,0,.29,4.69,5.8,5.8,0,0,0,2.9,2.66,6.8,6.8,0,0,0,2.71.5C351.74,103.65,352.12,103.58,352.14,103.66Z"/><path class="cls-1" d="M349.94,72.09a26.48,26.48,0,0,0-.55-3.47,14.28,14.28,0,0,0-5.23-7.78,14.12,14.12,0,0,0-13.37-2,14.11,14.11,0,0,0-6.54,4.92,14.06,14.06,0,0,0,0,16.65,14.18,14.18,0,0,0,6.54,4.91,14.22,14.22,0,0,0,18.6-9.76,26.46,26.46,0,0,0,.55-3.48,2.17,2.17,0,0,1,0,.24c0,.18,0,.41,0,.68a6,6,0,0,1-.09,1.11,9.87,9.87,0,0,1-.26,1.5A13.6,13.6,0,0,1,348,79.49a14.18,14.18,0,0,1-3.65,4.15,14.44,14.44,0,0,1-6.1,2.75,14.67,14.67,0,0,1-7.65-.6,14.62,14.62,0,0,1-6.79-5.07,14.52,14.52,0,0,1,0-17.25,14.44,14.44,0,0,1,6.79-5.07,14.57,14.57,0,0,1,7.65-.61A14.51,14.51,0,0,1,348,64.7a13.38,13.38,0,0,1,1.56,3.87,9.76,9.76,0,0,1,.26,1.49,6,6,0,0,1,.09,1.12c0,.27,0,.49,0,.68A2.07,2.07,0,0,1,349.94,72.09Z"/><path class="cls-1" d="M384.18,70.75a24.48,24.48,0,0,0-.53-3.39,13.9,13.9,0,0,0-5.1-7.57,13.68,13.68,0,0,0-5.8-2.56,13.89,13.89,0,0,0-7.22.62,12.72,12.72,0,0,0-3.47,1.87,13,13,0,0,0-2.9,2.92,13.68,13.68,0,0,0,0,16.21,13,13,0,0,0,2.9,2.92,12.72,12.72,0,0,0,3.47,1.87,13.73,13.73,0,0,0,13-1.93,14,14,0,0,0,5.1-7.58,24.74,24.74,0,0,0,.53-3.38,5.44,5.44,0,0,1,0,.89,6.59,6.59,0,0,1-.09,1.08,9.24,9.24,0,0,1-.26,1.46,14.06,14.06,0,0,1-11,10.5,14.15,14.15,0,0,1-7.46-.58,14.23,14.23,0,0,1-6.62-4.94,14.11,14.11,0,0,1,0-16.82,13.48,13.48,0,0,1,3-3,13.23,13.23,0,0,1,3.61-1.92,14.26,14.26,0,0,1,7.46-.59,14.11,14.11,0,0,1,5.94,2.68,13.86,13.86,0,0,1,5.07,7.82,9.24,9.24,0,0,1,.26,1.46,6.68,6.68,0,0,1,.09,1.08A5.62,5.62,0,0,1,384.18,70.75Z"/><path class="cls-1" d="M356.24,67.58c-.06.06-.39-.22-1-.5a5.66,5.66,0,0,0-2.52-.56,5.74,5.74,0,0,0-2.49.64c-.6.31-.92.61-1,.55s.19-.44.78-.86a4.94,4.94,0,0,1,5.39-.1C356,67.15,356.28,67.54,356.24,67.58Z"/><path class="cls-1" d="M322.12,70.06a62.7,62.7,0,0,1-6.27,5,60.39,60.39,0,0,1-6.57,4.58,63.22,63.22,0,0,1,6.26-5A61,61,0,0,1,322.12,70.06Z"/><g class="cls-4"><path d="M310.29,135.14c-1.39,13.57,3.77,27.9,14.65,36.12.86.65,1.93,1.29,2.94.92a3.21,3.21,0,0,0,1.51-1.57,26.43,26.43,0,0,0,3.25-17.43c-1.72,4.54-3.2,9-4.94,13.74C318.21,161.16,312.3,148.92,310.29,135.14Z"/></g><path class="cls-10" d="M347.14,166l8-2.92,1.33,13.51s8.62-15.71,12.18-22.88,1.74-19.81,1.74-19.81,1.27,11-7.37,25.07l-6.51,10.59V158.47Z"/><g class="cls-4"><path d="M254.22,234.66a21.33,21.33,0,0,0-11.57-1.46,22.35,22.35,0,0,0-11.52,4.36c-3.24,2.62-5.43,6.73-5,10.87l.4.06c2.79-7.54,8.33-13,15.48-13.7s14.12,2.52,19,7.76C260.53,238.64,257.78,236.34,254.22,234.66Z"/></g><g class="cls-4"><path d="M456.21,242.37a18.34,18.34,0,0,0-10.32-5.32,23.23,23.23,0,0,0-19.25,5.57l1.53-1.23A24.19,24.19,0,0,1,441,237.91a18.49,18.49,0,0,1,12.22,4.88c3,2.84,4.78,6.68,6.49,10.43A13.08,13.08,0,0,0,456.21,242.37Z"/></g><path class="cls-1" d="M404.72,179.63a4,4,0,0,1,.36-1.09c.3-.79.68-1.76,1.13-2.91,1-2.45,2.3-5.84,3.7-9.6s2.61-7.2,3.48-9.69c.41-1.16.75-2.14,1-2.94a4.59,4.59,0,0,1,.44-1.06,5.46,5.46,0,0,1-.25,1.12c-.19.71-.49,1.74-.88,3-.78,2.52-1.94,6-3.34,9.75s-2.79,7.14-3.85,9.56c-.53,1.21-1,2.18-1.29,2.85A5.64,5.64,0,0,1,404.72,179.63Z"/><path class="cls-1" d="M278.65,180.61c-.14,0-1.23-4.73-2.43-10.63s-2.06-10.7-1.92-10.73,1.23,4.73,2.43,10.63S278.79,180.58,278.65,180.61Z"/><path class="cls-8" d="M276.76,240.1c.32.15-3.66-31.17-3.66-31.17s2.51-23.77,3.92-24.87l0-8.38s3.88-2.36,4.93,1.45c0,0,3.44-3,4.05,4.13s.73,14.4.73,14.4l7.67,19.19,1.26.64s1.65-15,2.61-17.24,1.61-7.59,5.25-6.79,3.94,3.82,3.29,8.72-1.47,10-1.17,13.13,1.74,10.14,1.3,15.68-3.47,11.38-6.66,15.48-9.26,12.58-12.56,15.14C286.6,260.5,276.76,240.1,276.76,240.1Z"/><path class="cls-9" d="M280.63,214.61a8.09,8.09,0,0,1,0-1.34c.07-1,.15-2.19.25-3.64.24-3.07.6-7.31,1-12,.22-2.33.43-4.55.62-6.59a12.27,12.27,0,0,0,0-2.83,4.1,4.1,0,0,0-1-2.16,4.31,4.31,0,0,0-3.13-1.38,9.57,9.57,0,0,0-1.31.17s.1-.07.31-.16a3.55,3.55,0,0,1,1-.21,4.4,4.4,0,0,1,3.41,1.33,4.35,4.35,0,0,1,1.11,2.34,11.54,11.54,0,0,1,0,2.94c-.18,2-.38,4.26-.59,6.6-.42,4.68-.84,8.91-1.17,12l-.41,3.62A6.07,6.07,0,0,1,280.63,214.61Z"/><path class="cls-9" d="M284.76,201.8a10.43,10.43,0,0,0-1.36,2.47,42.18,42.18,0,0,0-1.28,6.76c-.41,2.68-.81,5.1-1.13,6.84a16.41,16.41,0,0,1-.62,2.82,15.52,15.52,0,0,1,.26-2.87c.22-1.76.57-4.19,1-6.87a31.66,31.66,0,0,1,1.45-6.81,6.42,6.42,0,0,1,1.1-1.83C284.5,201.93,284.74,201.78,284.76,201.8Z"/><path class="cls-9" d="M281.94,176.71a4.14,4.14,0,0,1,.26,1c.15.64.32,1.57.51,2.73.38,2.31.8,5.52,1.07,9.09s.32,6.8.28,9.14c0,1.18-.06,2.12-.1,2.78a4,4,0,0,1-.12,1,30.72,30.72,0,0,1-.15-3.78c-.06-2.34-.17-5.56-.43-9.12s-.63-6.75-.92-9.07A32.79,32.79,0,0,1,281.94,176.71Z"/><path class="cls-9" d="M304.07,206.08a2.8,2.8,0,0,1-2.58.22c-1.47-.44-2.16-1.57-2-1.63a15.28,15.28,0,0,0,2.18,1.13A14.61,14.61,0,0,0,304.07,206.08Z"/><path class="cls-8" d="M277.19,236.2l-20.27,8.52H244.85s-11.95,3.73-13.79,14.92-2.1,17,3.16,18.35,20.08,1.53,27.43-.9,26.6-18,26.6-18l1.86-11.24Z"/><path class="cls-9" d="M281.94,248.57s-.23-.16-.58-.52a12.88,12.88,0,0,1-1.31-1.68,22.89,22.89,0,0,1-2.84-6.41,37.83,37.83,0,0,1-1.24-6.89,12.17,12.17,0,0,1-.08-2.89,21.4,21.4,0,0,1,.44,2.85,50.94,50.94,0,0,0,1.39,6.79,26.38,26.38,0,0,0,2.64,6.35C281.27,247.69,282,248.51,281.94,248.57Z"/><path class="cls-9" d="M290.76,252.13a20.66,20.66,0,0,0,1.16-4.35,14,14,0,0,0-2.73-10.17c-1.23-1.72-2.61-3.23-3.78-4.68a22,22,0,0,1-2.74-4.14,10.63,10.63,0,0,1-1-3.2,3.74,3.74,0,0,1,0-1.23,13.86,13.86,0,0,0,1.38,4.26,23.6,23.6,0,0,0,2.78,4c1.18,1.42,2.58,2.92,3.84,4.68a14.67,14.67,0,0,1,2.53,5.54,14.11,14.11,0,0,1,.13,5,12.82,12.82,0,0,1-.93,3.22,5.57,5.57,0,0,1-.41.82C290.84,252.05,290.78,252.14,290.76,252.13Z"/><path class="cls-7" d="M259.52,203.32a98.75,98.75,0,0,1-4.94-9,100.34,100.34,0,0,1-4.48-9.23,101.59,101.59,0,0,1,4.94,9C257.64,199.13,259.64,203.26,259.52,203.32Z"/><path class="cls-7" d="M292.3,166.83a61.19,61.19,0,0,1,3.05-7.49,63.39,63.39,0,0,1,3.53-7.28,63.61,63.61,0,0,1-3.06,7.49A62.45,62.45,0,0,1,292.3,166.83Z"/><path class="cls-7" d="M324.39,190.52a46.77,46.77,0,0,1-4.59-5.14,45.93,45.93,0,0,1-4.19-5.48A45.6,45.6,0,0,1,320.2,185,44.14,44.14,0,0,1,324.39,190.52Z"/><path class="cls-7" d="M317,223.09a36.86,36.86,0,0,1,3.46-5.22,38.84,38.84,0,0,1,3.88-4.91,37.53,37.53,0,0,1-3.46,5.22A38.67,38.67,0,0,1,317,223.09Z"/><path class="cls-7" d="M307.07,269.09a9.29,9.29,0,0,1-1.17-2c-.66-1.28-1.51-3.07-2.37-5.09s-1.55-3.87-2-5.23a10,10,0,0,1-.63-2.24,11.09,11.09,0,0,1,1,2.11L304,261.8c.82,1.91,1.57,3.63,2.22,5.13A10.67,10.67,0,0,1,307.07,269.09Z"/><path class="cls-7" d="M335.31,249.54a72.47,72.47,0,0,1-12-2.33,34.7,34.7,0,0,1,6.07.91A36.15,36.15,0,0,1,335.31,249.54Z"/><path class="cls-7" d="M357.21,206.55a75.27,75.27,0,0,1,5.79-6.63,74.75,74.75,0,0,1,6.17-6.27,73,73,0,0,1-5.79,6.63A73,73,0,0,1,357.21,206.55Z"/><path class="cls-7" d="M379.25,263.88c-.11.09-3.35-3.65-7.22-8.36s-6.94-8.59-6.82-8.69,3.34,3.65,7.22,8.36S379.36,263.79,379.25,263.88Z"/><path class="cls-7" d="M242.46,239.44c.08.15-2.88,1.65-6.1,4.12s-5.46,4.9-5.58,4.79a8.25,8.25,0,0,1,1.36-1.69,32.18,32.18,0,0,1,8.33-6.35A7.86,7.86,0,0,1,242.46,239.44Z"/><path class="cls-7" d="M250.7,217.35a20.66,20.66,0,0,1-2.35,4,20.4,20.4,0,0,1-2.78,3.71,20.66,20.66,0,0,1,2.35-4A21,21,0,0,1,250.7,217.35Z"/><path class="cls-7" d="M269.27,239.05a9.83,9.83,0,0,1-1.7-4.11,10,10,0,0,1-.25-4.44c.16,0,.21,2,.75,4.32S269.41,239,269.27,239.05Z"/><path class="cls-7" d="M272,170.13a15.5,15.5,0,0,1-3.85.81,15.33,15.33,0,0,1-3.93.29,15.36,15.36,0,0,1,3.85-.81A14.81,14.81,0,0,1,272,170.13Z"/><path class="cls-7" d="M286,145.4a15.31,15.31,0,0,1-3.37,2.17,15.81,15.81,0,0,1-3.63,1.71,31,31,0,0,1,7-3.88Z"/><path class="cls-7" d="M325.17,155.84a34.1,34.1,0,0,1-3.86-4.63,34.94,34.94,0,0,1-3.44-5,35.81,35.81,0,0,1,3.86,4.63A36.7,36.7,0,0,1,325.17,155.84Z"/><path class="cls-7" d="M374.94,180.71a24.49,24.49,0,0,1-6.05-9.72c.14-.07,1.22,2.27,2.89,4.94S375.06,180.61,374.94,180.71Z"/><path class="cls-7" d="M393.94,187a29.64,29.64,0,0,1-2.06,5.17,29.81,29.81,0,0,1-2.54,5,30,30,0,0,1,2.06-5.17A29.81,29.81,0,0,1,393.94,187Z"/><path class="cls-7" d="M396.59,161a55.68,55.68,0,0,1-5-5.66,55.39,55.39,0,0,1-4.65-6,55.68,55.68,0,0,1,5.05,5.66A55.39,55.39,0,0,1,396.59,161Z"/><path class="cls-7" d="M367.58,140a23,23,0,0,1-.45-4.85,22,22,0,0,1,.07-4.86,23.5,23.5,0,0,1,.45,4.84A23.69,23.69,0,0,1,367.58,140Z"/><path class="cls-7" d="M391.24,138.67a38.07,38.07,0,0,1-6.18,1.08,38.6,38.6,0,0,1-6.24.58,74.75,74.75,0,0,1,12.42-1.66Z"/><path class="cls-7" d="M428.5,166a60.78,60.78,0,0,1-3.72-7.09,62.53,62.53,0,0,1-3.25-7.3,59.11,59.11,0,0,1,3.72,7.08A61.39,61.39,0,0,1,428.5,166Z"/><path class="cls-7" d="M422.22,189.68a32.44,32.44,0,0,1,.87-5.69,33.2,33.2,0,0,1,1.38-5.59,30.09,30.09,0,0,1-.87,5.69A31.79,31.79,0,0,1,422.22,189.68Z"/><path class="cls-7" d="M439.5,208.33a66.32,66.32,0,0,1-3-7.68,64.64,64.64,0,0,1-2.47-7.86,66.32,66.32,0,0,1,3,7.68A64,64,0,0,1,439.5,208.33Z"/><path class="cls-7" d="M437.1,219.23a13.44,13.44,0,0,1-5.05-1.8,13.61,13.61,0,0,1-4.28-3.25c.11-.12,2,1.41,4.52,2.79S437.14,219.08,437.1,219.23Z"/><path class="cls-7" d="M459.24,244.1a14.23,14.23,0,0,1-1.8-3.39,14.06,14.06,0,0,1-1.31-3.6,28.55,28.55,0,0,1,3.11,7Z"/><path class="cls-7" d="M328.48,278.78a20.07,20.07,0,0,1-.78-4.43,19.53,19.53,0,0,1-.26-4.49,38.65,38.65,0,0,1,1,8.92Z"/><path class="cls-7" d="M396.41,277.06a18.58,18.58,0,0,1,.65-4.33,17.72,17.72,0,0,1,1.17-4.22,19,19,0,0,1-.66,4.33A18.6,18.6,0,0,1,396.41,277.06Z"/></g><g id="Speech_Bubble" data-name="Speech Bubble"><path class="cls-11" d="M409.43,78.77l8.79-15.48a41.46,41.46,0,1,1,9.93,11.05v0Z"/><path class="cls-1" d="M409.43,78.77l18.76-4.29.19,0-.12-.16v0l-.18.18a42.62,42.62,0,0,0,8.52,5.14A41.71,41.71,0,0,0,448,82.82a37.1,37.1,0,0,0,6.55.33c1.13-.06,2.28-.09,3.44-.19l3.5-.53a41.76,41.76,0,0,0,25.88-16.61,41.29,41.29,0,0,0,7-16,42.11,42.11,0,0,0-.49-18.43,40.73,40.73,0,0,0-8.87-17l-1.7-1.86c-.55-.63-1.22-1.15-1.82-1.72s-1.2-1.16-1.88-1.64l-2-1.49a19.8,19.8,0,0,0-2.06-1.36L473.42,5,471.22,4A20.88,20.88,0,0,0,469,3,42.19,42.19,0,0,0,450.43.11a40.71,40.71,0,0,0-17,5,42,42,0,0,0-19.66,24.19,44.6,44.6,0,0,0-1.8,13.47,41,41,0,0,0,2,11.63,42,42,0,0,0,4.15,8.91v-.12c-5.54,9.93-8.25,14.78-8.68,15.54l8.89-15.42,0-.06,0-.06a42.37,42.37,0,0,1-4.08-8.88,41.36,41.36,0,0,1-2-11.55,44.44,44.44,0,0,1,1.83-13.34,41.64,41.64,0,0,1,19.5-23.9,40.4,40.4,0,0,1,16.86-5,41.87,41.87,0,0,1,18.34,2.83,18.55,18.55,0,0,1,2.19,1l2.17,1,2.08,1.27a16.19,16.19,0,0,1,2,1.34l2,1.47a23.7,23.7,0,0,1,1.86,1.62c.59.57,1.25,1.07,1.8,1.69l1.67,1.84a40.38,40.38,0,0,1,8.77,16.83,41.83,41.83,0,0,1,.5,18.2,40.79,40.79,0,0,1-6.9,15.82A41.42,41.42,0,0,1,461.36,82l-3.46.53c-1.15.1-2.29.13-3.41.2a36.61,36.61,0,0,1-6.5-.31,41.35,41.35,0,0,1-11.27-3.17,42.33,42.33,0,0,1-8.49-5.05l-.77-.59.59.77v0l.07-.2Z"/><path class="cls-1" d="M464.67,39.88a4,4,0,1,0,4-4.05A4,4,0,0,0,464.67,39.88Z"/><path class="cls-1" d="M448.48,39.88a4,4,0,1,0,4-4.05A4,4,0,0,0,448.48,39.88Z"/><path class="cls-1" d="M432.32,37.85a4,4,0,1,0,5.53-1.48A4.06,4.06,0,0,0,432.32,37.85Z"/></g></g></svg>