<svg xmlns="http://www.w3.org/2000/svg" xmlns:xlink="http://www.w3.org/1999/xlink" viewBox="0 0 651.02 422.5"><defs><style>.cls-1{fill:none;}.cls-2{fill:#f4dcd3;}.cls-3{fill:#e9cec2;}.cls-4{fill:#a3cebd;}.cls-5{fill:#18363e;}.cls-6{fill:#d3e5ab;}.cls-7{fill:#285b5c;}.cls-8{fill:#fade9d;}.cls-9{fill:#ed9033;}.cls-10{fill:#1b3431;}.cls-11{fill:#5a918e;}.cls-12{fill:#d76751;}.cls-13{fill:#fff;}.cls-14{fill:#efe3df;}.cls-15{fill:#414f50;}.cls-16{fill:#f5bf69;}.cls-17{fill:#647a7a;}.cls-18{fill:#468280;}.cls-19{fill:#78b1de;}.cls-20{fill:#e2534d;}.cls-21{clip-path:url(#clip-path);}.cls-22{fill:#eebd9d;}.cls-23{fill:#d37363;}.cls-24{fill:#cfe7eb;}.cls-25{fill:#4e88af;}.cls-26{fill:#ba4131;}.cls-27{fill:#c7acd5;}.cls-28{fill:#f49d8b;}.cls-29{fill:#232323;}.cls-30{fill:#df615c;}.cls-31{fill:#c67022;}</style><clipPath id="clip-path"><rect class="cls-1" x="160.77" y="8.5" width="294.25" height="258.5"/></clipPath></defs><g id="Layer_2" data-name="Layer 2"><g id="OBJECTS"><path class="cls-2" d="M72.93,52.07a5.28,5.28,0,0,1,5.92,3.31c1.5,4.08-2.44,8.65-7.74,6.6h0C66.54,58.59,68.53,52.87,72.93,52.07Z"/><circle class="cls-2" cx="569.7" cy="30.41" r="10.64" transform="translate(448.13 587.82) rotate(-80.75)"/><circle class="cls-2" cx="94.82" cy="46.58" r="10.74" transform="translate(31.75 131.33) rotate(-79.51)"/><path class="cls-2" d="M556.21,14.13a6.55,6.55,0,1,1-6.55-6.54A6.54,6.54,0,0,1,556.21,14.13Z"/><path class="cls-2" d="M582.63,126.66C582.63,68.21,534,4.16,473.38.29c-1.06-.07-2.13-.13-3.22-.18-86.84-4-93.45,101.87-172,113.81s-138.56-48.36-232.57-9C-18.87,140.24-41.74,338.8,206.34,346.76,404.83,353.13,582.66,301.06,582.63,126.66Z"/><path class="cls-3" d="M651,389.87c0,3.8-24.74,6.88-55.25,6.88s-55.26-3.08-55.26-6.88S565.25,383,595.77,383,651,386.08,651,389.87Z"/><path class="cls-4" d="M587.47,270.38s-11.49,2.55-9.78-5.47,1.58-11-3.09-14.61-9.37-5.45-5.79-11.22-3.21-10.25-6.72-13.36.45-5.44,1.38-11.32-5.39-5-5.88-12.38,7-16,.55-26.21c0,0,8.68,4.5,11.53,12.4s.55,14,5.67,17,8.34,8.2,6.59,13.53.74,8.16,4.94,12.05,3.08,5.43,2.56,10.19.52,3.63,5.33,10.12S599.7,268.25,587.47,270.38Z"/><path class="cls-5" d="M589.11,270a.34.34,0,0,1-.06-.12l-23-69.79a.57.57,0,0,1,.36-.72h0a.56.56,0,0,1,.71.36l23,69.79a.47.47,0,0,1,0,.17Z"/><path class="cls-4" d="M608.2,270.24s11.43,2.53,9.73-5.44-1.57-10.92,3.08-14.54,9.32-5.42,5.76-11.16,3.19-10.2,6.68-13.29-.45-5.41-1.37-11.25,5.35-5,5.85-12.32-7-16-.56-26.08c0,0-8.63,4.48-11.46,12.34s-.55,13.93-5.64,16.92-8.29,8.15-6.56,13.46-.73,8.11-4.91,12-3.06,5.41-2.54,10.14-.53,3.61-5.31,10.07S596,268.12,608.2,270.24Z"/><path class="cls-5" d="M605.52,269.58a.86.86,0,0,1,0-.17L628.42,200a.58.58,0,0,1,.71-.36h0a.57.57,0,0,1,.36.72l-22.87,69.41a.5.5,0,0,1,0,.13Z"/><path class="cls-6" d="M595.51,268.79s-13.15-1.09-8.66-9.11,5.34-11.23,1.55-16.68-8.23-8.94-2.48-13.94,0-12.05-2.76-16.54,2.29-5.68,5.24-11.66-4.12-7.13-2.19-15.22,12.84-14.84,9.3-27.89c0,0,7.8,7.7,8.23,17.11s-4.07,15.18.42,20.1,6.21,11.55,2.57,16.68-1.92,9,1.28,14.55,1.5,6.84-.64,11.76-.64,4.06,2.36,12.62S609.31,270.57,595.51,268.79Z"/><path class="cls-7" d="M597.38,269a.77.77,0,0,1,0-.15l-1.45-82.38a.64.64,0,0,1,.63-.65h0a.64.64,0,0,1,.64.63l1.45,82.38a.41.41,0,0,1,0,.19Z"/><path class="cls-8" d="M633.8,266l-.95,2.53-.6,1.6-1.73,4.58-.6,1.6L628.14,281l-.6,1.6-7.6,20.19H578.39l-7.61-20.19-.6-1.6-1.77-4.71-.61-1.6-1.72-4.58-.61-1.6-1-2.53a2.65,2.65,0,0,1,2.48-3.58h64.32A2.65,2.65,0,0,1,633.8,266Z"/><polygon class="cls-9" points="632.85 268.53 632.25 270.13 566.08 270.13 565.47 268.53 632.85 268.53"/><polygon class="cls-9" points="630.52 274.71 629.92 276.31 568.4 276.31 567.8 274.71 630.52 274.71"/><polygon class="cls-9" points="628.14 281.02 627.54 282.62 570.78 282.62 570.18 281.02 628.14 281.02"/><polygon class="cls-10" points="626.34 290.89 571.25 290.89 570.65 286.4 626.94 286.4 626.34 290.89"/><polygon class="cls-10" points="632.84 367.25 565.18 367.25 564.45 362.76 633.58 362.76 632.84 367.25"/><polygon class="cls-10" points="638.77 390.14 622.72 290.89 618.52 290.89 635.02 390.14 638.77 390.14"/><polygon class="cls-10" points="562.73 390.14 579.23 290.89 575.04 290.89 558.98 390.14 562.73 390.14"/><path class="cls-7" d="M84.86,249a.9.9,0,0,0-.33-1.09A143.42,143.42,0,0,1,58,223.63c-12.07-14.1-26.5-36.78-26.72-64.72a.89.89,0,0,0-.9-.88.88.88,0,0,0-.88.89,90.81,90.81,0,0,0,8.64,37.43,122.78,122.78,0,0,0,18.54,28.48,145.09,145.09,0,0,0,26.83,24.52.89.89,0,0,0,1.23-.25A1.09,1.09,0,0,0,84.86,249Z"/><path class="cls-7" d="M38.69,193.82a.87.87,0,0,0-.32-1.08c-.35-.24-8.74-5.79-18.6-5.7a.89.89,0,1,0,0,1.78c9.31-.09,17.52,5.34,17.6,5.39a.88.88,0,0,0,1.23-.24A1.09,1.09,0,0,0,38.69,193.82Z"/><path class="cls-7" d="M53.53,218.82a.84.84,0,0,0,0-.66c-6.63-17.24,1.09-29.68,1.17-29.81a.9.9,0,0,0-.27-1.23.89.89,0,0,0-1.23.28c-.35.53-8.28,13.33-1.33,31.4a.89.89,0,0,0,1.65,0Z"/><path class="cls-7" d="M66.89,233.94a.89.89,0,0,0-.29-1.05,45.62,45.62,0,0,0-10.19-5.49c-5.7-2.25-14.49-4.45-24-2.15a.9.9,0,0,0-.65,1.08.88.88,0,0,0,1.07.65c17.31-4.18,32.53,7.21,32.68,7.32a.89.89,0,0,0,1.25-.17A.76.76,0,0,0,66.89,233.94Z"/><path class="cls-11" d="M51.24,194.53s-3.53-21.75,6.45-23.12C70.35,169.67,63.24,192.27,51.24,194.53Z"/><path class="cls-11" d="M43,225.2s-18.11-12.55-23.65-4.14C12.34,231.74,35.8,235.06,43,225.2Z"/><path class="cls-6" d="M30.36,168.23s-15.6-25.61.18-26.35C40.28,141.43,40,161,30.36,168.23Z"/><path class="cls-7" d="M61.94,228.79a.87.87,0,0,0,.06-.48c-1.26-8.85,5.5-14.86,5.57-14.92A.89.89,0,0,0,66.4,212c-.31.27-7.56,6.72-6.16,16.53a.89.89,0,0,0,1,.75A.91.91,0,0,0,61.94,228.79Z"/><path class="cls-11" d="M16.65,191.12a4.31,4.31,0,1,0-2.28-5.64A4.3,4.3,0,0,0,16.65,191.12Z"/><path class="cls-11" d="M65,216.37a4.31,4.31,0,1,0-2.28-5.64A4.3,4.3,0,0,0,65,216.37Z"/><path class="cls-7" d="M530.9,160.13a.9.9,0,0,1,.34-1.09,143.68,143.68,0,0,0,26.81-23.88c12.25-14,27-36.44,27.55-64.37a.9.9,0,1,1,1.79,0,91.09,91.09,0,0,1-9.13,37.32,123.18,123.18,0,0,1-18.91,28.23,145.5,145.5,0,0,1-27.14,24.17.89.89,0,0,1-1.23-.27Z"/><path class="cls-7" d="M577.78,105.6a.88.88,0,0,1,.33-1.08c.36-.23,8.81-5.68,18.68-5.46a.89.89,0,1,1,0,1.78c-9.3-.2-17.58,5.12-17.66,5.17a.89.89,0,0,1-1.23-.26A.55.55,0,0,1,577.78,105.6Z"/><path class="cls-7" d="M562.62,130.41a.91.91,0,0,1,0-.67c6.86-17.15-.7-29.69-.78-29.82a.88.88,0,0,1,.29-1.22.89.89,0,0,1,1.23.29c.33.54,8.1,13.44.92,31.41a.89.89,0,0,1-1.16.5A.94.94,0,0,1,562.62,130.41Z"/><path class="cls-7" d="M549.07,145.35a.89.89,0,0,1,.29-1A45.6,45.6,0,0,1,559.63,139c5.73-2.18,14.54-4.26,24-1.84a.89.89,0,0,1-.44,1.72c-17.26-4.41-32.63,6.79-32.78,6.9a.88.88,0,0,1-1.24-.19A.52.52,0,0,1,549.07,145.35Z"/><path class="cls-4" d="M565.22,106.15s3.81-21.71-6.15-23.21C546.43,81,553.25,103.73,565.22,106.15Z"/><path class="cls-6" d="M573.05,136.92s18.27-12.32,23.7-3.83C603.63,143.85,580.13,146.88,573.05,136.92Z"/><path class="cls-4" d="M586.44,80.12s15.94-25.4.17-26.35C576.87,53.19,576.86,72.72,586.44,80.12Z"/><path class="cls-7" d="M554.08,140.26a.94.94,0,0,1-.06-.47c1.38-8.84-5.3-14.94-5.37-15a.89.89,0,1,1,1.19-1.33c.3.27,7.47,6.81,5.94,16.6a.88.88,0,0,1-1,.74A.87.87,0,0,1,554.08,140.26Z"/><path class="cls-11" d="M599.85,103.18a4.3,4.3,0,1,1,2.36-5.61A4.3,4.3,0,0,1,599.85,103.18Z"/><path class="cls-11" d="M551.23,127.8a4.3,4.3,0,1,1,2.36-5.61A4.3,4.3,0,0,1,551.23,127.8Z"/><ellipse class="cls-3" cx="26.86" cy="100.23" rx="26.86" ry="26.52"/><ellipse class="cls-12" cx="26.86" cy="96.77" rx="26.86" ry="26.52"/><ellipse class="cls-13" cx="26.86" cy="96.77" rx="21.83" ry="21.56"/><path class="cls-3" d="M48.69,96.77c0,.58,0,1.15-.07,1.71a21.86,21.86,0,0,0-43.53,0c0-.56-.07-1.13-.07-1.71a21.84,21.84,0,0,1,43.67,0Z"/><path class="cls-10" d="M26.86,99a.54.54,0,0,1-.44-.22L15.71,84.56a.54.54,0,0,1,.11-.76.57.57,0,0,1,.77.12L27,97.81l11.87-5.15a.55.55,0,0,1,.72.28.53.53,0,0,1-.28.71L27.08,99A.59.59,0,0,1,26.86,99Z"/><ellipse class="cls-3" cx="307.23" cy="389.33" rx="294.27" ry="19.77"/><rect class="cls-10" x="71.25" y="67.21" width="473.45" height="293.57" rx="17.93"/><path class="cls-14" d="M523.67,98.49V313.43c0,6.33-5.47,11.45-12.22,11.45H104.51a12.52,12.52,0,0,1-9.09-3.8,11,11,0,0,1-3.14-7.65V98.49c0-6.33,5.48-11.45,12.23-11.45H511.45a12.74,12.74,0,0,1,6.18,1.57A11.32,11.32,0,0,1,523.67,98.49Z"/><path class="cls-15" d="M588.93,350.57v1.63a37.16,37.16,0,0,1-37.16,37.16H64.18A37.16,37.16,0,0,1,27,352.2v-1.63Z"/><path class="cls-10" d="M312.13,370a5.38,5.38,0,1,1-5.38-5.38A5.38,5.38,0,0,1,312.13,370Z"/><path class="cls-10" d="M293.15,370a5.37,5.37,0,1,1-5.37-5.38A5.37,5.37,0,0,1,293.15,370Z"/><path class="cls-10" d="M331.1,370a5.37,5.37,0,1,1-5.37-5.38A5.38,5.38,0,0,1,331.1,370Z"/><path class="cls-12" d="M519.46,370a5.37,5.37,0,1,1-5.37-5.38A5.37,5.37,0,0,1,519.46,370Z"/><path class="cls-16" d="M538.43,370a5.37,5.37,0,1,1-5.37-5.38A5.37,5.37,0,0,1,538.43,370Z"/><path class="cls-17" d="M245,350.57v.37c0,2.95,2,5.33,4.4,5.33H364.11c2.43,0,4.4-2.38,4.4-5.33v-.37Z"/><path class="cls-13" d="M523.67,99.26V112.8H92.28V99.26A12.25,12.25,0,0,1,104.51,87H511.45a12.23,12.23,0,0,1,12.22,12.22Z"/><path class="cls-18" d="M489,100.58a3.24,3.24,0,1,1-3.24-3.24A3.24,3.24,0,0,1,489,100.58Z"/><path class="cls-19" d="M499.43,100.58a3.24,3.24,0,1,1-3.23-3.24A3.23,3.23,0,0,1,499.43,100.58Z"/><path class="cls-20" d="M509.41,100.58a3.24,3.24,0,1,1-3.24-3.24A3.24,3.24,0,0,1,509.41,100.58Z"/><rect class="cls-3" x="134.3" y="97.16" width="335.13" height="6.84" rx="3.27"/><path class="cls-10" d="M112.73,100.58v3.17a.58.58,0,0,1-.87.5l-2.75-1.59-2.74-1.58a.58.58,0,0,1,0-1l2.74-1.58,2.75-1.58a.58.58,0,0,1,.87.5Z"/><path class="cls-10" d="M117.55,100.58v3.17a.58.58,0,0,0,.87.5l2.74-1.59,2.75-1.58a.59.59,0,0,0,0-1l-2.75-1.58-2.74-1.58a.58.58,0,0,0-.87.5Z"/><rect class="cls-13" x="159.54" y="123.54" width="313.33" height="175.88" rx="7.34"/><path class="cls-3" d="M412,246.92a6,6,0,0,0,.83,3.22c.27.46.54.91.8,1.37l4.39,7.92,2.88-5.19c.76-1.38,1.59-2.72,2.39-4.07A6.07,6.07,0,1,0,412,246.92Zm3.51-.57a2.56,2.56,0,1,1,2.56,2.56A2.56,2.56,0,0,1,415.53,246.35Z"/><path class="cls-3" d="M387.63,250.39a9.11,9.11,0,1,0,9.11-9.12A9.12,9.12,0,0,0,387.63,250.39Zm5.11,3.36a12.1,12.1,0,0,1-.49-3.19h4.12v3.19Zm2.15,4.81a8.35,8.35,0,0,1-5.46-4.08h2.78a10.09,10.09,0,0,0,1.58,2.91A9.44,9.44,0,0,0,394.89,258.56Zm1.48-4.08v4.28a7.59,7.59,0,0,1-2-1.85,9.13,9.13,0,0,1-1.36-2.43Zm-3.18-8.58a11.41,11.41,0,0,1,2.86-3.87l.32,0v3.89Zm-3.52,0a8.37,8.37,0,0,1,5.1-3.66,12.29,12.29,0,0,0-1.15,1.42,11.89,11.89,0,0,0-1.23,2.24Zm2.59,3.93a10.28,10.28,0,0,1,.63-3.2h3.48v3.2Zm-3.88,0a8.29,8.29,0,0,1,.87-3.2h2.86a11.29,11.29,0,0,0-.58,3.2Zm3.14.73a13.13,13.13,0,0,0,.46,3.19h-2.91a8.15,8.15,0,0,1-.71-3.19Zm10.36,0h3.24a8.32,8.32,0,0,1-.7,3.19h-3A13.13,13.13,0,0,0,401.88,250.56Zm-4.77-4.66V242l.23,0a10.47,10.47,0,0,1,1.85,2.07,11,11,0,0,1,1,1.8Zm3.4.73a11,11,0,0,1,.63,3.2h-4v-3.2Zm.5-.73a11.89,11.89,0,0,0-1.23-2.24,12.86,12.86,0,0,0-1.18-1.45,8.42,8.42,0,0,1,5.21,3.69Zm.13,4.66a12.1,12.1,0,0,1-.48,3.19h-3.55v-3.19Zm.73-.73a11.3,11.3,0,0,0-.59-3.2h3a8.12,8.12,0,0,1,.87,3.2Zm2.18,4.65a8.43,8.43,0,0,1-5.57,4.1,8.47,8.47,0,0,0,1.12-1.19,10.11,10.11,0,0,0,1.59-2.91Zm-3.65,0a8.68,8.68,0,0,1-3.29,4.23v-4.23Z"/><path class="cls-3" d="M439.26,247.2c0-.79-.76-1.2-1.7-1.2a3,3,0,0,0-2.65,1.73l-4.53-2.26c1.29-2.45,3.87-4.13,7.94-4.13s7,1.68,7,4.87c0,3.89-4.08,4.58-4.08,6.54H436C436,249.67,439.26,248.75,439.26,247.2Zm-4,9.57a3.38,3.38,0,0,1,6.72,0,3.37,3.37,0,0,1-6.72,0Z"/><rect class="cls-13" x="472.02" y="157.75" width="20.75" height="64.5" rx="2.32"/><rect class="cls-10" x="475.51" y="184.08" width="11.4" height="8.79" rx="1.66"/><polygon class="cls-10" points="490.21 184.08 490.21 192.88 486.66 189.89 486.66 187.07 490.21 184.08"/><circle class="cls-12" cx="482.86" cy="208.48" r="7.32"/><path class="cls-13" d="M479.41,212.7a.76.76,0,0,0,.54-.22l6.9-6.91a.77.77,0,0,0,0-1.09.76.76,0,0,0-1.08,0l-6.91,6.91a.77.77,0,0,0,.55,1.31Z"/><path class="cls-13" d="M486.31,212.7a.75.75,0,0,0,.54-.22.77.77,0,0,0,0-1.09l-6.9-6.91a.77.77,0,1,0-1.09,1.09l6.91,6.91A.75.75,0,0,0,486.31,212.7Z"/><rect class="cls-10" x="480.84" y="162.19" width="4.03" height="10.5" rx="1.82" transform="translate(965.72 334.88) rotate(-180)"/><rect class="cls-10" x="482.45" y="170.26" width="0.82" height="4.93" rx="0.37" transform="translate(965.72 345.44) rotate(180)"/><rect class="cls-10" x="478.81" y="173.83" width="8.09" height="1.73" rx="0.78" transform="translate(965.72 349.39) rotate(180)"/><rect class="cls-14" x="169.99" y="208.46" width="79.42" height="44.59" rx="3.45"/><rect class="cls-14" x="373.99" y="138.46" width="79.42" height="44.59" rx="3.45"/><rect class="cls-14" x="373.88" y="209.63" width="79.54" height="3.82" rx="1.82"/><rect class="cls-14" x="373.88" y="193.48" width="79.54" height="3.82" rx="1.82"/><rect class="cls-14" x="373.88" y="225.78" width="79.54" height="3.82" rx="1.82"/><rect class="cls-14" x="169.88" y="171.88" width="79.54" height="3.82" rx="1.82"/><rect class="cls-14" x="169.88" y="155.73" width="79.54" height="3.82" rx="1.82"/><rect class="cls-14" x="169.88" y="188.03" width="79.54" height="3.82" rx="1.82"/><path class="cls-10" d="M159.54,272.1H472.86v25.69a1.62,1.62,0,0,1-1.62,1.63H161.16a1.62,1.62,0,0,1-1.62-1.63Z"/><path class="cls-13" d="M450.4,282.23v-2.32h2.9v-2.06h-3.93a1,1,0,0,0-1,1v3.35Z"/><path class="cls-13" d="M450.4,286.35h-2.06v3.52a1,1,0,0,0,1,1h3.93v-2.06h-2.9Z"/><path class="cls-13" d="M459.33,282.23h2.06v-3.35a1,1,0,0,0-1-1h-3.78v2.06h2.75Z"/><path class="cls-13" d="M459.33,286.35v2.49h-2.75v2.06h3.78a1,1,0,0,0,1-1v-3.52Z"/><rect class="cls-14" x="159.54" y="266.97" width="313.33" height="5.14"/><path class="cls-10" d="M182.3,133.15h3.53v7.75h4.74v2.74H182.3Z"/><path class="cls-10" d="M191.54,133.15h3.53v10.49h-3.53Z"/><path class="cls-10" d="M208,133.15l-4.43,10.49h-3.47l-4.44-10.49h3.81l2.5,6.13,2.56-6.13Z"/><path class="cls-10" d="M217.05,141v2.67h-8.72V133.15h8.52v2.67h-5v1.23h4.44v2.54H211.8V141Z"/><path class="cls-12" d="M176.48,138.31a4.31,4.31,0,1,1-4.31-4.31A4.31,4.31,0,0,1,176.48,138.31Z"/><g class="cls-21"><path class="cls-22" d="M401.8,98.29s3.73,8.45,10.63,8.35c5.58-.08,9.22-6.39,10.42-8.82.29-.58.43-.94.43-.94a9.25,9.25,0,0,0,1-.22c1.37-.37,3.73-1.27,4.25-3.2.73-2.75-4.63-3.11-4.63-3.11s1.95-2.92.89-4.4-4.52-.91-4.52-.91,3-3.32,1.28-5.08c-2.64-2.64-5.54,1.77-5.79,2,.16-.33,3.64-6.46.82-6.67-2.47-.19-5.53,3.32-7.33,6.48l-.44.78-.48-.17c-1.44-.51-5.76-1.73-7.64.89C398.4,86.46,401.8,98.29,401.8,98.29Z"/><path class="cls-23" d="M410,102a.55.55,0,0,0,.51-.17.54.54,0,0,0-.05-.75,4.81,4.81,0,0,1-1.78-3.66c0-3.53,3.83-6.95,3.87-7a.53.53,0,0,0-.7-.8c-.18.16-4.23,3.79-4.24,7.79a5.79,5.79,0,0,0,2.15,4.45A.47.47,0,0,0,410,102Z"/><path class="cls-23" d="M411.21,88.08a1.64,1.64,0,0,0,1.09,1.21,1.51,1.51,0,0,0,.38.09,4.12,4.12,0,0,0,1,0,3.67,3.67,0,0,0-.52.71,1.76,1.76,0,0,0-.24.71,1.38,1.38,0,0,0,.56,1.24c1.11.88,3.14.84,4.74.62a5.62,5.62,0,0,0-1.77,3.06,1.66,1.66,0,0,0,.61,1.52,3.14,3.14,0,0,0,1.33.53,17.32,17.32,0,0,0,4.48.08c.29-.58.43-.94.43-.94s.41-.06,1-.21a.44.44,0,0,0-.3,0c-2,.27-5.41.44-6.27-.25a.61.61,0,0,1-.21-.59c.1-1.08,1.62-2.86,3.12-3.67a.53.53,0,0,0,.24-.67.52.52,0,0,0-.63-.31c-1.27.35-4.84,1-6.09,0a.34.34,0,0,1-.17-.31,1.81,1.81,0,0,1,.6-.91A13.06,13.06,0,0,1,417.32,88a.45.45,0,0,0,.22-.23.5.5,0,0,0,0-.49.53.53,0,0,0-.72-.22c-.17.09-.52.28-.94.54a12.34,12.34,0,0,1-2.31.69,2,2,0,0,1-.93,0c-.14,0-.31-.14-.4-.48a3.32,3.32,0,0,1,.15-1.71.52.52,0,0,0-.19-.56h0a.51.51,0,0,0-.81.26A4.42,4.42,0,0,0,411.21,88.08Z"/><path class="cls-15" d="M412.5,77.45a14.48,14.48,0,0,0-2,2.4c-.55.88-.92,1.36-1.31,2h0l-.94-44.62a.53.53,0,0,1,1-.06l3.16,40.33S412.5,77.44,412.5,77.45Z"/><path class="cls-15" d="M409.91,103c4,1.33,4.55-.56,4.55-.56l-.81-10.33-.19-.13a1.38,1.38,0,0,1-.56-1.24,1.76,1.76,0,0,1,.24-.71,3.37,3.37,0,0,1,.31-.46l0-.22a4.68,4.68,0,0,1-.75,0,1.72,1.72,0,0,1-1.23-.76,2.64,2.64,0,0,1-1.37,1.1,3.94,3.94,0,0,1-.49.14Z"/><path class="cls-23" d="M402.94,88.38a17.7,17.7,0,0,0,4,1.39,5.94,5.94,0,0,0,3.17,0,2.68,2.68,0,0,0,1.6-1.54c1.06-2.62-1.08-5.12-2.45-6.38l-.44.78-.48-.17c1.17,1,3.25,3.25,2.38,5.37a1.63,1.63,0,0,1-1,.94c-1.77.66-5.14-.71-6.29-1.29a.52.52,0,0,0-.71.23A.53.53,0,0,0,402.94,88.38Z"/><path class="cls-24" d="M347.24,91.87v0s0,0,0,0l0,.05.06.12.14.29.31.63.33.66c.11.23.23.45.35.68.46.9,1,1.82,1.47,2.72,1,1.82,2.11,3.64,3.28,5.4s2.34,3.5,3.61,5.17c.63.84,1.27,1.67,1.93,2.48s1.32,1.61,2,2.41c1.37,1.57,2.77,3.09,4.23,4.53.36.38.74.72,1.1,1.08s.73.72,1.12,1.05c.76.68,1.51,1.38,2.29,2,1.53,1.34,3.15,2.54,4.77,3.73s3.31,2.25,5,3.24l1.29.75,1.32.69.66.35.16.08-.08,0-.11-.06c-.15-.07-.31-.12-.47-.18a6.74,6.74,0,0,0-2.16-.39h-.48l-.24,0-.2,0a2.44,2.44,0,0,0-.39.07,1.45,1.45,0,0,0-.3.06l-.14,0-.11,0-.2.08-.12.05,0,0h0c-.13.08.15,0,.55-.35a16.79,16.79,0,0,0,1.49-1.34c.56-.56,1.15-1.22,1.74-1.93,1.21-1.42,2.42-3.06,3.63-4.78s2.38-3.55,3.54-5.43,2.31-3.8,3.42-5.76,2.24-3.94,3.31-6c.55-1,1.09-2,1.62-3l1.54-2.92,19.87,8.19-.34,1-.33.91-.65,1.8q-.67,1.78-1.38,3.54c-1,2.35-1.95,4.68-3,7s-2.19,4.62-3.39,6.93c-.61,1.15-1.23,2.3-1.88,3.45s-1.32,2.29-2,3.44a83.21,83.21,0,0,1-4.74,6.94c-.91,1.16-1.87,2.33-3,3.52a37,37,0,0,1-3.74,3.59,27.31,27.31,0,0,1-5.46,3.6l-.43.21-.47.2c-.31.14-.63.27-.95.39s-.7.25-1.05.36l-.53.17a5.47,5.47,0,0,1-.58.15l-1.18.28c-.42.07-.85.14-1.28.19l-.65.08-.68,0c-.47,0-.92,0-1.39,0a18.51,18.51,0,0,1-5.68-1.05c-.44-.16-.87-.34-1.3-.53l-.32-.14-.29-.14-.23-.12-.94-.48-1.87-1c-.62-.34-1.23-.69-1.84-1-2.45-1.37-4.78-2.93-7.07-4.53s-4.46-3.35-6.54-5.19-4.07-3.73-6-5.71l-1.4-1.5c-.47-.5-.91-1-1.36-1.53s-.91-1-1.34-1.56l-1.3-1.57a101.06,101.06,0,0,1-9.1-13.41c-1.32-2.35-2.57-4.74-3.7-7.2-.57-1.24-1.12-2.48-1.63-3.77l-.39-1c-.13-.33-.25-.66-.38-1s-.25-.68-.37-1l-.43-1.24Z"/><path class="cls-25" d="M406.8,106.73a1.48,1.48,0,1,1-1.7-1.21A1.48,1.48,0,0,1,406.8,106.73Z"/><path class="cls-25" d="M383.34,139.09a.64.64,0,0,1-.72-.31,47.81,47.81,0,0,1-3.74-10.37.63.63,0,0,1,.48-.76.62.62,0,0,1,.75.48,48,48,0,0,0,3.62,10,.63.63,0,0,1-.25.86A.42.42,0,0,1,383.34,139.09Z"/><path class="cls-25" d="M378.27,135.66a.57.57,0,0,1-.29,0,.64.64,0,0,1-.49-.75,51.3,51.3,0,0,1,1.63-6.09.64.64,0,0,1,.84-.32.63.63,0,0,1,.32.83,52.53,52.53,0,0,0-1.55,5.84A.64.64,0,0,1,378.27,135.66Z"/><path class="cls-25" d="M414.29,117.5a.65.65,0,0,1-.49-.07c-6.5-4-20.24-9.34-20.38-9.4a.62.62,0,0,1-.36-.82.64.64,0,0,1,.82-.36c.14.06,14,5.47,20.58,9.5a.63.63,0,0,1,.21.87A.66.66,0,0,1,414.29,117.5Z"/><path class="cls-25" d="M408.16,114.26a.65.65,0,0,1-.43-.05.62.62,0,0,1-.3-.84l4.28-9a.62.62,0,0,1,.84-.3.63.63,0,0,1,.3.84l-4.28,9A.62.62,0,0,1,408.16,114.26Z"/><path class="cls-10" d="M279.82,237.88c.14.55.29,1.09.45,1.61a.14.14,0,0,0,0,.06c.22.72.46,1.4.73,2.06,2.38,5.79,20.68,6.6,38.7,4.55,14-1.59,27.77-4.9,33.82-9,5.69-3.81-6.5-38.85-6.5-38.85L278.7,212.83S277.19,227.41,279.82,237.88Z"/><path class="cls-10" d="M327.28,299.21h33.91c-1.22-18.76-3.12-39.82-5.44-61.93-.06-.59-.12-1.18-.19-1.78-.2-2-.41-3.94-.63-5.92-.06-.53-.11-1.06-.17-1.59l-6.58,3-1.61.74-25.82,12L321,246Z"/><path class="cls-15" d="M331.33,299.21H333L326.08,247a.84.84,0,0,0-1.66.22Z"/><path class="cls-15" d="M339.28,216.73c.08.43,1.75,9,7.29,15.05a19.14,19.14,0,0,0,3.86,3.28,15.9,15.9,0,0,0,3.57,1.73,14.6,14.6,0,0,0,1.75.49c-.06-.59-.12-1.18-.19-1.78q-.42-.1-.84-.24a14.81,14.81,0,0,1-3.39-1.61,17.7,17.7,0,0,1-3.15-2.61c-5.53-5.76-7.23-14.52-7.25-14.63a.84.84,0,0,0-1-.66A.83.83,0,0,0,339.28,216.73Z"/><path class="cls-15" d="M325.51,242.52a.7.7,0,0,1-.66.71h0a.69.69,0,0,1-.73-.64c-.13-2.53-.28-5.12-.45-7.7l-.09-1.37c-.57-8.45-1.28-16.74-1.82-22.6,0-.47-.08-.93-.12-1.37-.12-1.29-.23-2.43-.33-3.39l1.39-.23c.09,1,.2,2.12.32,3.42,0,.44.08.9.13,1.37.53,5.81,1.24,14,1.81,22.42l.09,1.4C325.21,237.21,325.37,239.9,325.51,242.52Z"/><path class="cls-15" d="M327.48,233.6a19.68,19.68,0,0,1-2.44.94c-.43.13-.9.25-1.38.35a11.92,11.92,0,0,1-1.32.17,4.9,4.9,0,0,1-2.35-.36,2.87,2.87,0,0,1-1.59-2.13c-.52-2.61-1.6-13.37-2.34-21,0-.47-.09-.93-.13-1.37-.11-1.22-.22-2.33-.31-3.27l1.39-.17c.09.94.2,2.07.32,3.3,0,.44.08.9.13,1.37.73,7.59,1.81,18.33,2.31,20.86a1.49,1.49,0,0,0,.85,1.18,5,5,0,0,0,2.95,0c.47-.1.94-.24,1.38-.38a16.6,16.6,0,0,0,1.91-.75.71.71,0,0,1,.94.3A.67.67,0,0,1,327.48,233.6Z"/><path class="cls-10" d="M280.26,239.47a0,0,0,0,1,0,0,.2.2,0,0,0,0,.07c.05.54.1,1.09.15,1.66,1.52,16,3.86,40,5.88,58h33.51l-.12-64.15a202.34,202.34,0,0,0-19.37-7.83l-1.63-.54c-1-.33-2.07-.66-3.1-1l-1.64-.46c-6.18-1.68-11.92-2.51-15.13-1.16,0,0,.5,5.43,1.28,13.77C280.16,238.4,280.22,238.93,280.26,239.47Z"/><path class="cls-15" d="M291.11,299.21c-1.93-21.89-4.3-55-4.33-55.47a.83.83,0,0,0-.9-.77.82.82,0,0,0-.77.89c0,.43,2.39,33.43,4.32,55.35Z"/><path class="cls-15" d="M280.26,239.47a0,0,0,0,1,0,0,.2.2,0,0,0,0,.07c.05.54.1,1.09.15,1.66a13.61,13.61,0,0,0,7-.64c4.3-1.57,7.66-5.09,10.1-8.59a41.22,41.22,0,0,0,2.84-4.76,39.1,39.1,0,0,0,2-4.48.84.84,0,1,0-1.58-.56,39.13,39.13,0,0,1-2,4.5,39.73,39.73,0,0,1-2.65,4.39c-2.28,3.27-5.37,6.52-9.24,7.92A11.84,11.84,0,0,1,280.26,239.47Z"/><path class="cls-13" d="M268.48,162.8c.12,1.78.27,3.56.45,5.35.93,8.94,4.36,38.88,7.44,47.26,11.39,5.51,24.14,7.52,36.3,7,2.31-.1,4.61-.29,6.87-.57q3-.37,5.91-.94c12.63-2.44,23.69-7.53,30.55-14-3.24-12.56-7-35.33-8.45-45.1-.26-1.82-.5-3.59-.71-5.33s-.39-3.33-.56-4.94c-.18-1.83-.34-3.61-.47-5.34s-.26-3.65-.34-5.39-.16-3.64-.19-5.37c-.5-23.51,3.8-35.12,2.66-40.76-1.71-8.48-9.55-8.36-16.7-11-.41-.16-.83-.32-1.24-.5l-.83-.37a16,16,0,0,1-6.54-5.45l-21,0a29,29,0,0,1-4.74,2.95l-.89.44c-.75.36-1.58.71-2.49,1.06a39.25,39.25,0,0,1-7.89,2.09c-9.4,1.52-14.8,11.52-15.79,27.75-.5,8.19-1,15.91-1.38,23.35,0,.5-.05,1-.07,1.48A234.72,234.72,0,0,0,268.48,162.8Z"/><polygon class="cls-20" points="326.47 174.71 322.88 183.42 322.88 183.42 321.26 187.34 316.71 198.41 314.49 194.14 313.7 192.63 311.92 189.21 311.14 187.7 309.36 184.28 308.57 182.77 306.79 179.35 306.79 179.35 306 177.84 304.33 174.63 304.37 174.28 304.62 171.72 305.2 165.94 305.46 163.38 306.03 157.59 306.29 155.04 306.87 149.25 307.12 146.7 307.7 140.91 307.95 138.35 308.53 132.57 308.79 130.01 309.37 124.23 309.62 121.67 310.2 115.89 310.45 113.33 311.03 107.54 311.29 104.99 311.57 102.2 311.88 99 316.31 98.82 316.44 99.82 316.71 101.84 316.79 102.47 317.32 106.43 317.59 108.46 318.21 113.05 318.48 115.08 319.1 119.67 319.37 121.69 319.98 126.28 320.25 128.31 320.87 132.9 321.14 134.92 321.75 139.51 322.02 141.54 322.64 146.13 322.91 148.16 323.52 152.75 323.8 154.77 324.41 159.36 324.68 161.39 325.3 165.98 325.57 168.01 326.18 172.6 326.45 174.62 326.47 174.71"/><polygon class="cls-26" points="316.79 102.47 314.17 107.12 311.57 102.2 311.88 99 316.31 98.82 316.44 99.82 316.71 101.84 316.79 102.47"/><path class="cls-24" d="M268.48,162.8c.12,1.78.27,3.56.45,5.35.93,8.94,4.36,38.88,7.44,47.26,11.39,5.51,24.14,7.52,36.3,7l6.38-10.1,6.4,8.59c12.63-2.44,23.69-7.53,30.55-14-1.17-4.55-2.42-10.44-3.6-16.57l-.84-4.44c-1.73-9.39-3.23-18.71-4-24.09-.26-1.82-.5-3.59-.71-5.33s-.39-3.33-.56-4.94c-.18-1.83-.34-3.61-.47-5.34s-.26-3.65-.34-5.39-.16-3.64-.19-5.37c-.5-23.51,3.8-35.12,2.66-40.76-1.71-8.48-9.55-8.36-16.7-11l-.35.17-15.59,69-21.37-70.9-.4-.09a39.25,39.25,0,0,1-7.89,2.09c-9.4,1.52-14.8,11.52-15.79,27.75-.5,8.19-1,15.91-1.38,23.35,0,.5-.05,1-.07,1.48A234.72,234.72,0,0,0,268.48,162.8Z"/><path class="cls-25" d="M281.73,218.72a.74.74,0,0,1-.7-.48c-10.26-27.32-10.1-79.33-10.1-79.85a.75.75,0,0,1,.75-.74h0a.74.74,0,0,1,.74.75c0,.52-.16,52.25,10,79.31a.74.74,0,0,1-.43,1A.65.65,0,0,1,281.73,218.72Z"/><path class="cls-25" d="M333.85,184.8a134.12,134.12,0,0,0,18.55,5.56l-.84-4.44c-7.75-1.9-16.74-4.75-16.74-4.75Z"/><path class="cls-25" d="M302.23,184.09S287,193.26,280,195.88l2.13,3.72s13.28-6,21.91-12.2Z"/><path class="cls-25" d="M330.88,83.85a7.45,7.45,0,0,1,9.45,2.63l-3.5,22.6-7.9,4.7,5.36,3.2-6,26.28-13,9.58Z"/><path class="cls-25" d="M297,81.84s-5.76-3.66-9.75,1.81l4.93,25.52,7.92,4.67-5.34,3.22,6.09,26.25,14.46,9.53Z"/><path class="cls-25" d="M319.72,205.3a1.58,1.58,0,1,1-1.44-1.7A1.58,1.58,0,0,1,319.72,205.3Z"/><path class="cls-25" d="M319.05,193.58a1.58,1.58,0,1,1-1.44-1.71A1.57,1.57,0,0,1,319.05,193.58Z"/><path class="cls-25" d="M318.38,181.85a1.58,1.58,0,1,1-3.15-.26,1.58,1.58,0,0,1,3.15.26Z"/><path class="cls-25" d="M317.71,170.13a1.58,1.58,0,1,1-1.45-1.71A1.57,1.57,0,0,1,317.71,170.13Z"/><path class="cls-25" d="M317,158.4a1.59,1.59,0,1,1-1.45-1.71A1.59,1.59,0,0,1,317,158.4Z"/><path class="cls-25" d="M344.69,136.3a.67.67,0,0,0,1.12-.49c0-5.17.19-10.72.57-16.56,0-.27,0-.48,0-.63a.68.68,0,1,0-1.35-.09c0,.16,0,.37,0,.63-.38,5.87-.57,11.44-.57,16.63a.68.68,0,0,0,.22.5Z"/><path class="cls-10" d="M299.45,53.07s-4.8-3.43-5.93-8.82c-1-4.75,3-4.75,3-4.75s-3.28-5.16-1.32-9a7,7,0,0,1,7.36-3.9s-1.32-7.68,10.89-7,19.48,1.08,21.46,6.36a4.9,4.9,0,0,1-3,6.82s4.93,3,2.52,6.12A5.18,5.18,0,0,1,329,41Z"/><path class="cls-23" d="M324.1,51s1.52-5.69,6.15-4.63,5.52,16.26-3.2,16.2Z"/><path class="cls-22" d="M302.18,79s-1.09,1.92,7.41,4.27a18.24,18.24,0,0,0,12.61-1.53,18,18,0,0,0,1.73-1.14C322.54,74.17,323.66,70,324,69l.08-.23-22.14-11Z"/><path class="cls-10" d="M305.06,66.44s5.33,14.62,17.14,15.32a18,18,0,0,0,1.73-1.14C322.54,74.17,323.66,70,324,69Z"/><path class="cls-22" d="M313.65,74.07C322.78,75.75,330,71.77,330.8,64c.19-1.89.26-4.62.27-7.46V54.58c0-.44,0-.88,0-1.32-.06-5.07-.25-9.66-.25-9.66C329.37,31,316.86,26.47,306.93,31.35S301,51.51,301.1,59,305.83,72.63,313.65,74.07Z"/><path class="cls-13" d="M315.46,59.14s1.29,4.18,4.7,4.85c3.88.77,4.76-4.09,4.76-4.09Z"/><path class="cls-10" d="M313,46.75c-2.58.55-3.31-2.21-1-3.65a6.8,6.8,0,0,1,3.42-1.23c3.4,0,3.51,2.38,1.8,3.35A17.83,17.83,0,0,1,313,46.75Z"/><path class="cls-10" d="M327.66,45.38c2.63.23,3-2.6.54-3.75a6.86,6.86,0,0,0-3.55-.8c-3.38.39-3.2,2.78-1.39,3.54A18.4,18.4,0,0,0,327.66,45.38Z"/><path class="cls-23" d="M330,56.62a8.28,8.28,0,0,0,1-.13V54.58c0-.44,0-.88,0-1.32a11,11,0,0,0-1.28,0c-2.29.17-4.09,1.06-4,2S327.75,56.8,330,56.62Z"/><path class="cls-13" d="M329.18,55.92a5.68,5.68,0,1,1,4.48-6.66A5.69,5.69,0,0,1,329.18,55.92Zm-2-10.32a4.84,4.84,0,1,0,5.68,3.82A4.85,4.85,0,0,0,327.16,45.6Z"/><path class="cls-10" d="M322.35,57.41a.48.48,0,0,0,.2-.07c2.06-1.42,2.45-2.17,2.51-2.3a.41.41,0,0,0,0-.39l-3-4.48,0,0c-.64-.75-.76-2.31-.84-4.12a.42.42,0,0,0-.43-.39.41.41,0,0,0-.39.43c.09,2,.23,3.63,1,4.59l2.82,4.24a10.63,10.63,0,0,1-2.11,1.78.41.41,0,0,0-.11.57A.43.43,0,0,0,322.35,57.41Z"/><path class="cls-23" d="M306.11,54.92c.07.92,2,1.53,4.27,1.35s4.1-1.06,4-2-2-1.53-4.28-1.36S306,54,306.11,54.92Z"/><path class="cls-13" d="M315.67,56.29a5.68,5.68,0,1,1,4.48-6.66A5.69,5.69,0,0,1,315.67,56.29Zm-2-10.32a4.84,4.84,0,1,0,5.68,3.82A4.85,4.85,0,0,0,313.65,46Z"/><path class="cls-13" d="M322.89,50.78h0a.41.41,0,0,1-.48-.34s-.21-1.07-1-1a1.48,1.48,0,0,0-1.19,1,.43.43,0,0,1-.53.27.42.42,0,0,1-.27-.52,2.32,2.32,0,0,1,1.95-1.59,1.92,1.92,0,0,1,1.85,1.72A.42.42,0,0,1,322.89,50.78Z"/><path class="cls-13" d="M309.52,50a.44.44,0,0,1-.45-.21c-2.24-4-6.43-2-6.61-2a.41.41,0,0,1-.37-.74c.06,0,5.08-2.44,7.71,2.31a.41.41,0,0,1-.16.56Z"/><path class="cls-10" d="M330.81,44.46h0a15.19,15.19,0,0,0-3.7-12.31c-6.3-7.25-19.15-6.84-24.28.52s-2.61,13.78-2.61,13.78,2.07.75,3.07,4.79l2.74-.11a20,20,0,0,0,0-8.9c-1.08-5.51,8.65-11,15.25-9.78a11.94,11.94,0,0,1,8.71,7.26A20.5,20.5,0,0,1,330.81,44.46Z"/><path class="cls-10" d="M309.5,35.63s4.6-1.8,6.82-.92,5.45,2,7.87.27,5.21,3.43,5.21,3.43-3.08-9.22-10.69-7.3S311.13,32.31,309.5,35.63Z"/><path class="cls-23" d="M321.32,65.73l.29-.1a.41.41,0,1,0-.31-.75,2.64,2.64,0,0,1-2.57-.41.4.4,0,0,0-.57,0,.41.41,0,0,0,0,.58A3.41,3.41,0,0,0,321.32,65.73Z"/><path class="cls-22" d="M302.83,48.7s-2.64-4.19-6.91-2.1-1.71,17.09,6.77,15Z"/><path class="cls-10" d="M301,56.34H301a.41.41,0,0,0,.27-.51c-.05-.18-1.4-4.52-5.37-5.12a.4.4,0,0,0-.46.34.42.42,0,0,0,.34.47c3.46.52,4.7,4.5,4.71,4.54A.4.4,0,0,0,301,56.34Z"/><path class="cls-10" d="M297.27,55a.39.39,0,0,0,.28-.13s.77-.88,1.69-1.74a.41.41,0,0,0,0-.58.4.4,0,0,0-.57,0c-.95.89-1.71,1.75-1.74,1.79a.4.4,0,0,0,0,.57A.39.39,0,0,0,297.27,55Z"/><path class="cls-10" d="M314.07,50.63c0,.91.43,1.64.95,1.64s.94-.75.93-1.66S315.51,49,315,49,314.06,49.72,314.07,50.63Z"/><path class="cls-10" d="M324.65,50.66c0,.91.44,1.64,1,1.64s.93-.75.92-1.66-.44-1.64-1-1.63S324.64,49.75,324.65,50.66Z"/><path class="cls-13" d="M301.85,73.75s-3.16,1-4.86,8.09c2.2,6.49,8.4,11.94,17.09,13.53l0-12.76A22.47,22.47,0,0,1,301.85,73.75Z"/><path class="cls-13" d="M323.48,75.55s5.23,1.19,7.4,8.3c-5.59,6.84-8.59,9.42-16.8,11.52l0-12.76S319,82.53,323.48,75.55Z"/><polygon class="cls-20" points="308.18 93.52 314.09 102.27 319.73 93.49 314.06 86.18 308.18 93.52"/><path class="cls-3" d="M326,102.47a.81.81,0,0,0,.41-.14.68.68,0,0,0,.12-1L314.6,85.77a.68.68,0,0,0-.52-.26.67.67,0,0,0-.53.23L301.77,99.26a.69.69,0,0,0,.07,1,.68.68,0,0,0,1-.07L314,87.25l11.42,15A.68.68,0,0,0,326,102.47Z"/><path class="cls-3" d="M314.06,86.86h0a.68.68,0,0,0,.67-.68l0-3a.68.68,0,0,0-.68-.67h0a.67.67,0,0,0-.67.68l0,3A.69.69,0,0,0,314.06,86.86Z"/><path class="cls-22" d="M279.46,212c1.48-.41,3.65,1.15,5.61,1.66a24.07,24.07,0,0,1,8.05,4.08c1.09.95,6.53,7.16,9,9.86a1.55,1.55,0,0,1-.06,2.17c-.81.72-2.49.71-5.75-2.29-.15-.13-1.15-1-1.26-1.08a7.19,7.19,0,0,0-2.89-1.43s1.82,1.63,4.92,4.58c-3.39,5.89-8.89,11.49-16.22,10a47.18,47.18,0,0,1-2.89-5.44c-1.39-2.51-5.69-9-6.92-12.54C270.19,219.19,274.77,213.29,279.46,212Z"/><path class="cls-24" d="M276.44,89.29l-.67.54-.53.44-1,.84c-.64.55-1.26,1.1-1.87,1.65-1.22,1.11-2.39,2.23-3.53,3.36-2.3,2.26-4.49,4.59-6.6,7a137.64,137.64,0,0,0-11.64,15.25,122.57,122.57,0,0,0-9.37,17c-1.34,3-2.56,6-3.63,9.13-.55,1.55-1.05,3.13-1.52,4.71-.23.79-.47,1.58-.68,2.38l-.16.6-.08.3-.16.62a19.75,19.75,0,0,0-.49,2.92,21.22,21.22,0,0,0-.11,2.44c0,.76.05,1.45.11,2.11a30.15,30.15,0,0,0,.52,3.55,47.66,47.66,0,0,0,1.56,5.72c.59,1.74,1.21,3.34,1.86,4.89s1.33,3,2,4.49c1.39,2.9,2.84,5.65,4.34,8.34s3,5.3,4.6,7.87c3.13,5.15,6.4,10.12,9.76,15q2.54,3.66,5.13,7.25,1.29,1.8,2.61,3.59l1.34,1.78,1.39,1.83,18.07-12.74-1.08-1.73-1.1-1.78L283.33,205q-2.19-3.62-4.31-7.25c-2.84-4.84-5.58-9.72-8.17-14.59-1.29-2.44-2.52-4.88-3.7-7.3s-2.29-4.84-3.26-7.2a65,65,0,0,1-2.42-6.73,23,23,0,0,1-.59-2.65,4.72,4.72,0,0,1-.05-.73c0-.06,0-.09,0-.05a1,1,0,0,1,0,.29,5.42,5.42,0,0,1-.12.79l0,.13v0l0-.06.07-.22.14-.44c.18-.58.39-1.16.59-1.75.41-1.16.83-2.32,1.3-3.47.91-2.3,2-4.57,3.08-6.81a103.62,103.62,0,0,1,7.81-13c1.47-2.09,3-4.13,4.63-6.13s3.29-4,5-5.85,3.52-3.76,5.36-5.52c.91-.89,1.84-1.75,2.77-2.57.46-.42.91-.82,1.36-1.21l.66-.56.48-.39Z"/><path class="cls-25" d="M260.23,159.72a.67.67,0,0,0,.66-.53.69.69,0,0,0-.51-.81,71.18,71.18,0,0,0-10.51-1.5.68.68,0,0,0-.7.65.66.66,0,0,0,.64.7,70.26,70.26,0,0,1,10.27,1.47Z"/><path class="cls-25" d="M259.84,159.64a.71.71,0,0,0,.53-.27.68.68,0,0,0-.12-1c-2.28-1.73-5.47-3.66-5.6-3.75a.68.68,0,0,0-.7,1.16s3.26,2,5.48,3.67A.68.68,0,0,0,259.84,159.64Z"/><path class="cls-25" d="M268.48,144.05a.68.68,0,0,0,.57-.31c.12-.19,12.16-18.86,19.94-25.58a.68.68,0,0,0-.88-1c-7.94,6.85-19.7,25.1-20.2,25.88a.68.68,0,0,0,.2.93A.72.72,0,0,0,268.48,144.05Z"/><path class="cls-25" d="M284.42,122.45h.1l5.8-.89a.67.67,0,0,0-.21-1.33l-5.79.88a.68.68,0,0,0,.1,1.35Z"/><path class="cls-25" d="M263.61,216.31a.68.68,0,0,0,.38-.12l17.9-12.33a.67.67,0,0,0,.17-.94.68.68,0,0,0-.94-.18l-17.9,12.34a.68.68,0,0,0,.39,1.23Z"/><path class="cls-25" d="M274.4,221.4a.63.63,0,0,0,.37-.12.66.66,0,0,0,.19-.93L269.43,212a.67.67,0,0,0-.94-.18.66.66,0,0,0-.18.93l5.52,8.32A.68.68,0,0,0,274.4,221.4Z"/><path class="cls-25" d="M277.37,214.45a1.58,1.58,0,1,1-.68-2.13A1.58,1.58,0,0,1,277.37,214.45Z"/></g><path class="cls-10" d="M155.21,285.46c-19.81-1-37.54-7.26-49-5.09s-11.28-27.46.22-36.28c8.56-6.57-4.06-19.65-4-30.23-.77-1.52-2.73-12.14,5.31-20,8.74-8.56,17.71-8.91,26.74-4.47,5.93,2.12,11.68,7.88,13.45,22.42,3,25.05,13.15,21.22,28.44,41.91C185.34,265.79,175,286.41,155.21,285.46Z"/><path class="cls-22" d="M101.82,251.55l-2.82,4-2.79,3.95q-2.76,4-5.5,8c-3.64,5.33-7.22,10.71-10.71,16.25-1.74,2.77-3.46,5.58-5.14,8.53-.84,1.47-1.67,3-2.48,4.59-.41.8-.81,1.64-1.21,2.54A31.28,31.28,0,0,0,70,302.38l0,.11,0,.12-.08.25-.14.49-.15.59c0,.19-.1.41-.13.54q-.09.43-.18,1c0,.35-.11.73-.15,1.19a12.87,12.87,0,0,0,0,1.75v.47l0,.17c0,.13,0,.24,0,.37l.06.42a9.56,9.56,0,0,0,.71,2.37,7.29,7.29,0,0,0,.42.84l.27.46.17.24.18.26c.12.17.25.32.39.49s.31.36.48.53l.25.24.29.26c.2.17.41.33.62.49a9.22,9.22,0,0,0,1.39.82,8.7,8.7,0,0,0,1.47.56l.37.1.35.08c.22,0,.45.08.68.1l.33,0,.29,0h.6l.52,0,.25,0,.24,0,.42-.06.4-.07.36-.08.33-.09c.19-.05.39-.12.56-.18a10.63,10.63,0,0,0,1.54-.67l.53-.3.22-.14.2-.13.19-.13.17-.12.32-.23c.39-.3.7-.56,1-.81.55-.48,1-.9,1.36-1.31.78-.8,1.41-1.54,2-2.26,1.2-1.43,2.24-2.81,3.26-4.19.51-.69,1-1.38,1.5-2.08l.73-1,.74-1.09a8.7,8.7,0,0,0-14.32-9.9l-.1.14-.61.88-.65.91c-.43.6-.87,1.21-1.31,1.8-.88,1.18-1.78,2.33-2.63,3.34-.42.5-.84,1-1.18,1.31a4,4,0,0,1-.36.34l.06,0,.07-.06.12-.08.08-.05.09-.06.26-.15a7.55,7.55,0,0,1,1-.43l.42-.13.26-.07.28-.06a2.19,2.19,0,0,1,.33-.06l.35-.05.2,0,.22,0,.44,0,.52,0H79l.29,0,.6.1.32.07.33.09a5.67,5.67,0,0,1,.66.22c.23.08.45.18.67.28a7.76,7.76,0,0,1,1.27.76c.19.13.37.28.55.43l.26.24a2.39,2.39,0,0,1,.23.22c.15.15.29.3.43.47s.24.28.35.43l.16.23.14.21c.08.13.16.26.23.39.16.29.26.48.36.71a7.79,7.79,0,0,1,.55,1.8,2.51,2.51,0,0,0,0,.27l0,.21v.35a3.38,3.38,0,0,1,0,.55c0,.07,0,.06,0,0a1.72,1.72,0,0,1,0-.21c0-.07,0,0,0,0h0l0-.08v0h0v0c.11-.31.31-.83.57-1.39s.54-1.15.85-1.77c.63-1.24,1.34-2.53,2.08-3.82,1.48-2.6,3.1-5.23,4.76-7.85,3.32-5.25,6.82-10.48,10.38-15.68q2.68-3.9,5.4-7.77l2.74-3.87,2.74-3.82.06-.08a8.84,8.84,0,0,0-14.37-10.3Z"/><path class="cls-27" d="M100.88,333.24c-.35,2.19-.34,3.88.32,4.86.94,1.42,8.56,2.89,18.17,3.82l1.83.17c2,.18,4.12.33,6.25.46l1.5.08c16.23.82,33.73-.13,34.77-5.14,2-9.66-3.74-24.25-2.42-39.3.54-6.07,5.61-18,6.08-25.56.71-11.46.91-22.19-.71-24.9-1.13-1.9-6-3.57-11.31-4.87-1.63-.4-3.3-.76-4.91-1.09C145,240.66,140.24,240,140.24,240s-14.09.73-23.67,3.18a33.68,33.68,0,0,0-4.69,1.51l-.58.26-1.84.88c-9.12,4.4-7.87,5.24-7.18,10.65,1,8,1.87,7.48-.23,14.41q-.26.84-.57,1.83c-.53,1.65-1.17,3.64-2,6.1a22.63,22.63,0,0,0-1.12,5.3,7.94,7.94,0,0,0,0,.83c0,8.26,8.34,7.58,8.34,18,0,6.37-1.45,12.88-2.93,18.59-.07.27-.14.54-.22.81-.85,3.26-1.69,6.23-2.25,8.74C101.13,331.87,101,332.58,100.88,333.24Z"/><path class="cls-7" d="M146.77,261.42c.14,3.09,3.32,4.41,5.79,5-.14-.31-.28-.64-.4-1-2.11-.56-4.46-1.71-4.56-4s1.55-3.7,3.07-4.41c0-.29,0-.59,0-.89C148.88,256.86,146.64,258.43,146.77,261.42Z"/><path class="cls-7" d="M142.55,252.08a8.09,8.09,0,0,0,4.88-1.63,3.72,3.72,0,0,0,1.57-2.7c.32-3.09-2.82-6.65-3-6.8a.41.41,0,0,0-.61.55s3,3.44,2.75,6.17a2.88,2.88,0,0,1-1.25,2.11,7.47,7.47,0,0,1-7.56.79.42.42,0,0,0-.56.19.41.41,0,0,0,.19.55A8.44,8.44,0,0,0,142.55,252.08Z"/><path class="cls-7" d="M119.27,255.25a21.49,21.49,0,0,0,2.86-.18.41.41,0,0,0,.35-.46.41.41,0,0,0-.46-.36c-.06,0-5.85.77-8.1-1.05a2.14,2.14,0,0,1-.83-1.57c-.28-3.94,4.94-6.91,5-6.94a.41.41,0,1,0-.4-.72c-.23.13-5.73,3.26-5.42,7.72a3,3,0,0,0,1.14,2.15C114.82,255,117.31,255.25,119.27,255.25Z"/><path class="cls-7" d="M158.94,328.25H159a.42.42,0,0,0,.36-.46c0-.18-2-18.08-2.17-28.23s4.48-28.37,4.53-28.55a.4.4,0,0,0-.3-.5.4.4,0,0,0-.5.3c0,.18-4.73,18.54-4.55,28.76s2.15,28.13,2.17,28.31A.41.41,0,0,0,158.94,328.25Z"/><path class="cls-7" d="M118.36,322.31c8.18,0,15.47-3.14,20.68-6.25a59.41,59.41,0,0,0,12.58-10,.41.41,0,1,0-.61-.55,59.33,59.33,0,0,1-12.42,9.89c-6.89,4.11-17.51,8.29-28.92,4.84a.42.42,0,0,0-.24.8A30.81,30.81,0,0,0,118.36,322.31Z"/><path class="cls-7" d="M122.18,329.56a30.75,30.75,0,0,0,9.42-1.6,40.32,40.32,0,0,0,8.57-3.94.41.41,0,0,0,.13-.57.42.42,0,0,0-.58-.12c-.13.09-13.92,8.91-25.47,3.83a.41.41,0,1,0-.33.75A20.37,20.37,0,0,0,122.18,329.56Z"/><path class="cls-7" d="M122.7,267.62a24.21,24.21,0,0,0,11.71-3.25,34.42,34.42,0,0,0,9.1-7.38.41.41,0,1,0-.63-.52,34.68,34.68,0,0,1-8.89,7.19c-7.21,4-14.29,4.21-21.06.6a.41.41,0,0,0-.56.17.42.42,0,0,0,.17.56A21.39,21.39,0,0,0,122.7,267.62Z"/><path class="cls-22" d="M167.38,272.63c.71-11.46.91-22.19-.71-24.9-1.13-1.9-6-3.57-11.31-4.87C143.84,258.73,155.72,280.5,167.38,272.63Z"/><path class="cls-22" d="M102.05,270.91c6.21-7,7.3-18.84,7.41-25.06-9.12,4.4-7.87,5.24-7.18,10.65C103.31,264.46,104.15,264,102.05,270.91Z"/><path class="cls-22" d="M116.57,243.2c1.05,5.65,2,16.28,10.88,16.28,8.67,0,20.06-14.08,23-17.71a72.83,72.83,0,0,1-10.7-3.16S126.15,240.75,116.57,243.2Z"/><path class="cls-7" d="M106.85,262.28a6.41,6.41,0,0,1,2.54,3.52,4.42,4.42,0,0,1-1.47,3.88c-1.21,1.28-2.3,2.31-3.18,3.13-2.92,2.74-4.25,4-2.27,7.58a2,2,0,0,1,.07,2.17,4.48,4.48,0,0,1-3.94,1.59h-.21a7.94,7.94,0,0,0,0,.83h.47a5.13,5.13,0,0,0,4.43-2,2.84,2.84,0,0,0,0-3c-1.67-3-.8-3.85,2.1-6.57.89-.84,2-1.87,3.22-3.18a5.15,5.15,0,0,0,1.68-4.59,7.38,7.38,0,0,0-3.07-4.2Z"/><path class="cls-7" d="M150.33,283.26a11,11,0,0,1-5.91-1.75,7.8,7.8,0,0,0-6.28-1.15l-.37.06h0a6.18,6.18,0,0,1-7.19-5.19,5.91,5.91,0,0,1,4.8-7.09,6.69,6.69,0,0,1,5.94,1.79c4.53,3.94,6.39,3.66,8.74,3.3a14.11,14.11,0,0,1,2.82-.23c1.85.06,3.1,1.84,3,4.34-.07,3-2,5.92-5.48,5.92Zm-.15-9.22c-2.46.38-4.59.71-9.41-3.49a5.87,5.87,0,0,0-5.22-1.6,5.06,5.06,0,0,0-4.16,6.14,5.33,5.33,0,0,0,6.26,4.51h0l.34-.05a8.54,8.54,0,0,1,6.84,1.24,10.22,10.22,0,0,0,5.51,1.64h.09c3,0,4.59-2.56,4.66-5.11,0-1.7-.63-3.44-2.24-3.5h-.32A15.15,15.15,0,0,0,150.18,274Z"/><path class="cls-7" d="M105.21,295.14c-2.19-2.15-3.16-4.55-2.78-6.95a.4.4,0,0,1,.27-.33s3.91-1.43,4.6-7.1a8,8,0,0,1,6.24-6.6,6.31,6.31,0,0,1,7,2.5c3.19,4.81,4.31,5.5,13.37,8.2,4,1.19,6.32,4.21,6.1,7.88s-3.34,8.06-9.83,9.19a25.94,25.94,0,0,1-4.39.35C118.24,302.28,109.56,299.41,105.21,295.14ZM113.73,275a7.17,7.17,0,0,0-5.61,5.89c-.65,5.41-4,7.26-4.91,7.68-.24,2.08.63,4.1,2.58,6,5,4.88,16.32,7.95,24.29,6.56,6-1.05,8.95-5,9.15-8.42.19-3.27-1.92-6-5.51-7-8.91-2.65-10.41-3.37-13.83-8.54a5.25,5.25,0,0,0-4.51-2.34A6.88,6.88,0,0,0,113.73,275Z"/><path class="cls-7" d="M112.25,307.94a.41.41,0,0,1,.26-.4c.52-.21,12.85-5.09,16.82-3.7a.41.41,0,0,1,.28.36c0,.29.49,7.19-2.87,10.93a6.93,6.93,0,0,1-5.12,2.3h-.38C112.78,317.44,112.26,308,112.25,307.94Zm.85.26a12.6,12.6,0,0,0,1.21,4.19,7.3,7.3,0,0,0,7.28,4.21,6.12,6.12,0,0,0,4.53-2c2.76-3.07,2.73-8.72,2.68-10C125.17,303.64,114.94,307.49,113.1,308.2Z"/><path class="cls-7" d="M143.87,334.1c-2.53-.17-4.15-1.28-4.43-3-.34-2.13,1.43-4.44,4.31-5.62,2.71-1.11,2.73-3.17,2.74-5.35,0-1.57,0-3.2,1.16-4.34a5.24,5.24,0,0,1,6-.72,3.73,3.73,0,0,1,1.53,4.57c-1.26,4.28,1.6,5.8,1.72,5.86h0a.42.42,0,0,1,.22.28.43.43,0,0,1-.09.35c-.29.34-6.89,8-12.75,8Zm10.57-14.72a2.92,2.92,0,0,0-1.16-3.63,4.36,4.36,0,0,0-5,.6c-.9.9-.91,2.28-.92,3.76,0,2.24,0,4.79-3.26,6.11-2.81,1.15-4,3.24-3.8,4.72s1.55,2.19,3.67,2.34c4.89.34,10.8-5.81,12.21-7.36C155.22,325.23,153.3,323.26,154.44,319.38Z"/><path class="cls-7" d="M100.88,333.24a8.26,8.26,0,0,0,1.23,2.6,3.7,3.7,0,0,0,2.9,1.74l.42,0c1.62-.26,3-2,3.94-4.83,1.16-3.59,1-6.41-.43-8.39a7.64,7.64,0,0,0-5.18-2.76c-.07.27-.14.54-.22.81a6.93,6.93,0,0,1,4.73,2.44c1.29,1.75,1.39,4.32.32,7.64-.83,2.55-2,4.07-3.29,4.27a2.7,2.7,0,0,1-2.52-1.38,8.91,8.91,0,0,1-1.49-4.23C101.13,331.87,101,332.58,100.88,333.24Z"/><path class="cls-7" d="M117.28,340l0,0a12.84,12.84,0,0,0,2.07,1.86l1.83.17a13.67,13.67,0,0,1-3.27-2.55c-.11-.17-1.27-1.88-.63-3.41.55-1.31,2.26-2.18,5.07-2.58,7.49-1.07,9.26,3.51,9.53,4.39a11,11,0,0,1-4.45,4.61l1.5.08a13.54,13.54,0,0,0,3.76-4.43.42.42,0,0,0,0-.29c0-.07-1.51-6.46-10.49-5.18-3.13.45-5.06,1.48-5.73,3.08C115.68,337.85,117.21,340,117.28,340Z"/><path class="cls-12" d="M95.55,347c-.34-9.34-1.92-18.55-3.23-27.79,6.23,2.7,12.36,5.16,17.77,8.43h0c3.34,2,6.35,3.8,8.56,5,3.36,1.89,7.66,2.07,11.86,1.49A57.7,57.7,0,0,0,146.59,329S173,317,178,317.41c3.85.31-16.87,21.94-34,30.8a31.12,31.12,0,0,1-8.48,3.8c-16.77,5.33-32.53.52-39.86-2.5C95.6,348.67,95.58,347.82,95.55,347Z"/><polygon class="cls-28" points="47.48 387.59 45.24 401.75 31.98 402.68 33.37 385.27 47.48 387.59"/><path class="cls-16" d="M1.07,422.5l47.41,0a6.7,6.7,0,0,0,.62-2.64c.29-4-1-10.41-1.62-14.44-.08-.47-.14-.91-.19-1.31a13.65,13.65,0,0,1-.15-1.65c0-3.29-2.91-2.72-2.91-2.72-4.8,4.7-10.24-2.35-13.41,0,0,0-1.36,1-5.12,4.37S15.54,409.67,10.09,412c-7,2.94-9,5.88-9.41,7.91A3.68,3.68,0,0,0,1.07,422.5Z"/><path class="cls-9" d="M1.07,422.5l47.41,0a6.7,6.7,0,0,0,.62-2.64l-48.42.05A3.68,3.68,0,0,0,1.07,422.5Z"/><path class="cls-13" d="M30.12,401.69s-.85-2.07-2.73-1.41S25.7,404,25.7,404,26.83,406.86,30.12,401.69Z"/><path class="cls-13" d="M30.71,411a.78.78,0,0,0,.78-.79,10,10,0,0,0-3.08-7.36.79.79,0,0,0-1.1.09.78.78,0,0,0,.09,1.1,8.42,8.42,0,0,1,2.52,6.18A.78.78,0,0,0,30.71,411Z"/><path class="cls-13" d="M20.85,404.88a.81.81,0,0,0,.52-.2c1-.88,3.9-1.05,5.5-.95a.78.78,0,0,0,.1-1.56c-.49,0-4.85-.26-6.64,1.34a.79.79,0,0,0-.07,1.1A.78.78,0,0,0,20.85,404.88Z"/><path class="cls-13" d="M27.72,402.25l.39.4h0v.05l-.32,1.61.18,0a9,9,0,0,0,1.5.08h.31a28.83,28.83,0,0,0,3.47-.29,7.64,7.64,0,0,0,3.73-1.45,3.42,3.42,0,0,0,1.14-1.54.58.58,0,0,0,0-.14,2.43,2.43,0,0,0-.62-2.39,3.29,3.29,0,0,0-2.45-1H35a6.72,6.72,0,0,0-2.83.75A16.54,16.54,0,0,0,29,400.37l-.24.2c-.4.32-.73.62-1,.85l-.44.42Zm1.69.47h-.56c.33-.31.76-.68,1.25-1.06h0a21.53,21.53,0,0,1,2-1.37,8.81,8.81,0,0,1,1.81-.83,3.69,3.69,0,0,1,1.1-.19h0a1.65,1.65,0,0,1,1.25.52.76.76,0,0,1,.23.66.43.43,0,0,1,0,.14c-.25.73-1.43,1.59-3.5,1.87l-1,.12A24.4,24.4,0,0,1,29.41,402.72Z"/><path class="cls-13" d="M26.44,403.56l.72-1.53c-1.56-.74-3.05-2.68-2.95-3.85,0-.29.14-.64.88-.85a.94.94,0,0,1,.92.1c.82.63,1.08,2.77,1,4l1.69.05c0-.41.05-4-1.7-5.35a2.6,2.6,0,0,0-2.43-.4,2.6,2.6,0,0,0-2.1,2.34C22.35,400.12,24.45,402.62,26.44,403.56Z"/><path class="cls-9" d="M43.64,422.46h1.41a10.38,10.38,0,0,1-2.55-7.59,13.37,13.37,0,0,1,5-9.49c-.08-.47-.14-.91-.19-1.31a14.51,14.51,0,0,0-5.92,10.75A11.5,11.5,0,0,0,43.64,422.46Z"/><path class="cls-13" d="M26.5,406.84a.79.79,0,0,0,.76-.6.78.78,0,0,0-.57-.94l-3-.73a.78.78,0,1,0-.38,1.51l3,.73Z"/><path class="cls-13" d="M23.54,408.56a.78.78,0,0,0,.19-1.54l-3-.73a.78.78,0,1,0-.38,1.52l3,.73Z"/><path class="cls-13" d="M20.58,410.22a.78.78,0,0,0,.19-1.54l-3-.73a.78.78,0,1,0-.38,1.51l3,.74Z"/><path class="cls-13" d="M17.36,411.75a.77.77,0,0,0,.75-.59.78.78,0,0,0-.57-1l-3-.73a.79.79,0,0,0-.95.57.8.8,0,0,0,.57.95l3,.73A.58.58,0,0,0,17.36,411.75Z"/><path class="cls-13" d="M13.85,413.06a.78.78,0,0,0,.19-1.54l-3-.73a.78.78,0,1,0-.38,1.52l3,.73Z"/><path class="cls-12" d="M114.92,330.5c-16-8.48-44.17-25.39-56-27.79-20.67-4.19-27.4,88.09-27.4,88.09l16.59,1.63s15.52-39.78,16.75-55.12c0,0,21.58,20.74,65.3,21.61Z"/><path class="cls-26" d="M50.18,388.24a8.69,8.69,0,0,1-2.4,5l-17.21-1.71s-.38-3.91.49-5.5Z"/><path class="cls-26" d="M46.45,388.72a.47.47,0,0,0,.46-.34c0-.14,4.19-13.75,8.09-25.73,3.44-10.58,7.07-30.14,7.92-34.85A61.12,61.12,0,0,0,79,341a103.58,103.58,0,0,0,19,8.5,128.51,128.51,0,0,0,22.09,5.37.49.49,0,0,0,.55-.41.5.5,0,0,0-.42-.55,127.5,127.5,0,0,1-21.93-5.33C87.37,344.87,72.3,338,63,326.38a.49.49,0,0,0-.85.22c0,.24-4.18,23.79-8.07,35.75S46,388,46,388.1a.48.48,0,0,0,.32.6A.32.32,0,0,0,46.45,388.72Z"/><path class="cls-22" d="M122.77,245.37c9.14,12.31,20.14-2.4,20-5.69-3.79-7.32-4.85-17.05-4.85-17.05l-17.58,9.83c.13.54.27,1.08.41,1.62a74.49,74.49,0,0,1,1.68,7.83A28.93,28.93,0,0,1,122.77,245.37Z"/><path class="cls-10" d="M122.42,241.91c9.45-3.83,14.14-15,14.14-15l-15.82,7.19A74.49,74.49,0,0,1,122.42,241.91Z"/><path class="cls-23" d="M113.9,219.27s-2.2-4.37-5.78-2.72-1.7,14.15,5.37,12.61Z"/><path class="cls-13" d="M113.43,238.27a6.31,6.31,0,1,1,6.1-6.52A6.31,6.31,0,0,1,113.43,238.27Zm-.38-11.67a5.37,5.37,0,1,0,5.54,5.19A5.37,5.37,0,0,0,113.05,226.6Z"/><path class="cls-22" d="M138.41,224.09c-1.19,5.28-13.27,13.06-19,11.39-3.46-1-6.77-3.6-9.36-10a.49.49,0,0,1,0-.11c-.15-.38-.3-.75-.43-1.12-.25-.67-.48-1.33-.68-2,0-.15-.09-.3-.13-.44-.12-.4-.22-.78-.32-1.15s-.21-.89-.28-1.3c-1.19-6.65-2.67-14.1,2.81-19.17s14.81-7.61,21.15-2.44c0,0,4.83,4.62,6.08,14.29S139.26,220.27,138.41,224.09Z"/><path class="cls-10" d="M126.87,197.35s4.62,10,7.95,11.65,5.18-3.79,5.18-3.79S131.62,190.09,126.87,197.35Z"/><path class="cls-10" d="M113.92,199.5s7.09,7.79,14.31,4.75,1.33-8.59,1.33-8.59S114.83,191.85,113.92,199.5Z"/><path class="cls-10" d="M115.82,198.51s-2.2,11.67-9.8,10.75,1.24-13.34,6.2-13.56S115.82,198.51,115.82,198.51Z"/><path class="cls-23" d="M122.66,228.48l-.29,0a.39.39,0,0,1-.39-.37.38.38,0,0,1,.37-.39,2.43,2.43,0,0,0,2-1.32.38.38,0,1,1,.69.33A3.14,3.14,0,0,1,122.66,228.48Z"/><path class="cls-29" d="M119.46,226.63a4.76,4.76,0,0,1-.83.07.37.37,0,0,1-.37-.38.38.38,0,0,1,.38-.38,4.74,4.74,0,0,0,4.9-4.58.37.37,0,0,1,.4-.35.37.37,0,0,1,.35.4A5.34,5.34,0,0,1,119.46,226.63Z"/><path class="cls-10" d="M118.93,222.42a3.91,3.91,0,0,0,.72-.13.47.47,0,0,0,.32-.56.45.45,0,0,0-.56-.31,2.75,2.75,0,0,1-2.14-.31c1.07-2.15,1-7,1-7.25a.46.46,0,0,0-.46-.45.45.45,0,0,0-.44.46c0,1.52-.13,5.75-1.07,7.1a.46.46,0,0,0,.07.6A3.67,3.67,0,0,0,118.93,222.42Z"/><path class="cls-23" d="M110,225.36c-.15-.38-.3-.75-.43-1.12-.25-.67-.48-1.33-.68-2,0-.15-.09-.3-.13-.44l.33-.07c2.49-.47,4.67,0,4.86,1S112.42,224.87,110,225.36Z"/><path class="cls-23" d="M133.37,218.69c.19,1-1.68,2.2-4.17,2.67s-4.67,0-4.86-1,1.68-2.2,4.17-2.67S133.18,217.68,133.37,218.69Z"/><path class="cls-13" d="M118.42,216.09a6.14,6.14,0,1,1,6.55,5.72A6.14,6.14,0,0,1,118.42,216.09Zm.9-.06a5.24,5.24,0,1,0,4.87-5.59A5.25,5.25,0,0,0,119.32,216Z"/><path class="cls-13" d="M104.51,218.86a6.14,6.14,0,1,1,6.55,5.72A6.14,6.14,0,0,1,104.51,218.86Zm.9-.06a5.24,5.24,0,1,0,4.87-5.58A5.25,5.25,0,0,0,105.41,218.8Z"/><path class="cls-13" d="M116.66,217.88a1.51,1.51,0,0,1,2.06-.48l.43-.8a2.39,2.39,0,0,0-3.26.8Z"/><path class="cls-13" d="M130,213.4a.59.59,0,0,0,.46-.26c.06-.07.95-1,5.21-2a.61.61,0,0,0,.45-.73.61.61,0,0,0-.73-.46c-4.9,1.15-5.82,2.32-6,2.54a.61.61,0,0,0,.56.92Z"/><path class="cls-13" d="M105,219.29a.46.46,0,0,0,.26-.11,5.73,5.73,0,0,1,2.35-.84.45.45,0,0,0,.39-.51.45.45,0,0,0-.51-.39,6.66,6.66,0,0,0-2.81,1.05.45.45,0,0,0-.06.63A.45.45,0,0,0,105,219.29Z"/><path class="cls-10" d="M119.73,207.72a5.2,5.2,0,0,1,4.39-2.08c1.56.12,1.61,1.66-.15,1.94a5.85,5.85,0,0,0-2.94,1.17A.83.83,0,0,1,119.73,207.72Z"/><path class="cls-10" d="M112.85,209.29a5.18,5.18,0,0,0-4.85-.2c-1.39.71-.84,2.14.89,1.73a5.65,5.65,0,0,1,3.16-.06A.84.84,0,0,0,112.85,209.29Z"/><path class="cls-22" d="M135.63,211.26s1.58-4.24,5.79-3.19,4.74,15-3.23,14.75Z"/><path class="cls-13" d="M143.46,219.43c-.18.29-.27.58-.45.87a5.36,5.36,0,1,1-3.35.74c1.1-.52,1.2-1,1.16-1.5a6.31,6.31,0,1,0,7.92,5.88A6.39,6.39,0,0,0,143.46,219.43Z"/><path class="cls-10" d="M138.33,217.34a.37.37,0,0,0,.34.41h.08a.36.36,0,0,0,.32-.34,7.64,7.64,0,0,1,.86-2.7c.87.55,1.58,1.08,1.59,1.08a.31.31,0,0,0,.27.07.35.35,0,0,0,.25-.14.38.38,0,0,0-.08-.53s-.74-.54-1.63-1.11a4.6,4.6,0,0,1,2.1-1.63.38.38,0,0,0,.22-.48.38.38,0,0,0-.48-.22C138.73,213,138.34,217.17,138.33,217.34Z"/><path class="cls-10" d="M123.69,215.39c.18.9-.09,1.71-.6,1.81s-1.08-.54-1.26-1.44.1-1.7.61-1.81S123.51,214.5,123.69,215.39Z"/><path class="cls-10" d="M113.69,217.61c.18.9-.1,1.71-.61,1.81s-1.07-.54-1.25-1.44.09-1.7.61-1.81S113.51,216.72,113.69,217.61Z"/><path class="cls-15" d="M87.26,332.19l73.36,7.9a.3.3,0,0,0,.33-.26h0a4.15,4.15,0,0,0-3.68-4.57l-69.54-7.49a.3.3,0,0,0-.33.27L87,331.86A.3.3,0,0,0,87.26,332.19Z"/><path class="cls-10" d="M67.12,289l5,39.71a2.3,2.3,0,0,0,2,2l56.41,6.08a2.32,2.32,0,0,0,2.53-2.58l-5-39.71a2.29,2.29,0,0,0-2-2l-56.41-6.08A2.31,2.31,0,0,0,67.12,289Z"/><path class="cls-15" d="M103.78,312.35c-.45,3.47-6.81,7.19-6.81,7.19s-6.37-5.09-6.83-8.65c-.49-3.87,3.94-4.56,6.82-1.38C99.83,307,104.26,308.59,103.78,312.35Z"/><path class="cls-15" d="M123.83,292.28l5.09,44.35,1.64.18a2.32,2.32,0,0,0,2.53-2.58l-5-39.71a2.29,2.29,0,0,0-2-2Z"/><path class="cls-28" d="M100.34,364.77s6-1,7.9-2.94l3.92,12.53-14.41,3S97.93,366.75,100.34,364.77Z"/><path class="cls-8" d="M65.19,395.39,83.82,354a6.56,6.56,0,0,1,2.54.49c3.61,1.32,8.69,5,12,7.08l1.06.68a12,12,0,0,0,1.39.77c2.87,1.3,1.39,2.23,1.39,2.23-6,2.34-2.13,11.23-5.39,13.09,0,0-1.39.81-5.83,2.76s-8.89,6.66-13,10.51c-5.33,5-8.68,5.57-10.6,5.11A3.56,3.56,0,0,1,65.19,395.39Z"/><path class="cls-13" d="M97.79,376.05s1.66,1.13.72,2.66-3.61.77-3.61.77S92.64,378,97.79,376.05Z"/><path class="cls-13" d="M89.74,373.78a.7.7,0,0,1,.83-.54,9,9,0,0,1,5.87,4.08.7.7,0,0,1-.29.95.69.69,0,0,1-.94-.28,7.55,7.55,0,0,0-4.94-3.38A.7.7,0,0,1,89.74,373.78Z"/><path class="cls-13" d="M93.25,383.57a.77.77,0,0,1,.27-.42c1-.7,1.66-3.22,1.87-4.64a.7.7,0,0,1,.8-.59.69.69,0,0,1,.58.79c-.06.44-.68,4.3-2.42,5.57a.69.69,0,0,1-1-.15A.7.7,0,0,1,93.25,383.57Z"/><path class="cls-13" d="M97.13,378.48l.45-.3.93-.7.22-.18a15.15,15.15,0,0,0,2.41-2.4,6.26,6.26,0,0,0,1.19-2.34.13.13,0,0,1,0-.06,3,3,0,0,0-.46-2.34,2.15,2.15,0,0,0-2-1h-.14a3.12,3.12,0,0,0-1.56.72,6.81,6.81,0,0,0-2,3,27.65,27.65,0,0,0-.91,3l-.06.27a8.29,8.29,0,0,0-.21,1.33c0,.1,0,.15,0,.16l1.47,0h0v0l.28.43Zm.25-4.24c.08-.26.18-.53.28-.83.64-1.76,1.62-2.63,2.3-2.72h.14a.67.67,0,0,1,.53.34,1.48,1.48,0,0,1,.22,1.19v0a3.4,3.4,0,0,1-.37.93,8,8,0,0,1-1.07,1.42,14.53,14.53,0,0,1-1.58,1.48h0c-.43.36-.83.67-1.17.9,0-.14.06-.31.1-.5A21.65,21.65,0,0,1,97.38,374.24Z"/><path class="cls-13" d="M95.46,378.92l1.48-.35c.35,1.51,1.77,3.18,2.81,3.32.26,0,.59,0,.91-.61a.82.82,0,0,0,.08-.83c-.39-.84-2.22-1.47-3.28-1.67l.29-1.49c.35.07,3.5.71,4.36,2.5a2.62,2.62,0,0,1-2.55,3.6C97.7,383.15,95.91,380.84,95.46,378.92Z"/><path class="cls-9" d="M65.19,395.39,83.82,354a6.56,6.56,0,0,1,2.54.49l-19,42.23A3.56,3.56,0,0,1,65.19,395.39Z"/><path class="cls-9" d="M81.92,358.26l.55-1.23a10,10,0,0,0,5.62,5.21,12.79,12.79,0,0,0,10.24-.63l1.06.68a13.83,13.83,0,0,1-11.69.95A10.92,10.92,0,0,1,81.92,358.26Z"/><path class="cls-13" d="M88.83,379.34a.75.75,0,0,1,.81-.43.76.76,0,0,1,.61.87l-.53,2.87a.74.74,0,0,1-.87.6.75.75,0,0,1-.6-.86l.53-2.88A.84.84,0,0,1,88.83,379.34Z"/><path class="cls-13" d="M92.14,377.74a.74.74,0,0,1,1.41.44L93,381.06a.75.75,0,0,1-.87.6.76.76,0,0,1-.6-.87l.52-2.87A.55.55,0,0,1,92.14,377.74Z"/><path class="cls-13" d="M86.16,381.25a.76.76,0,0,1,.82-.43.74.74,0,0,1,.6.87l-.52,2.87a.75.75,0,0,1-1.47-.27l.52-2.87A.84.84,0,0,1,86.16,381.25Z"/><path class="cls-13" d="M83.56,383.18a.74.74,0,0,1,1.41.44l-.52,2.87a.74.74,0,0,1-.87.6.75.75,0,0,1-.6-.87l.52-2.87A.85.85,0,0,1,83.56,383.18Z"/><path class="cls-13" d="M81,385.39a.75.75,0,0,1,1.42.45l-.52,2.87a.76.76,0,0,1-.87.6.74.74,0,0,1-.6-.87l.52-2.87A1.21,1.21,0,0,1,81,385.39Z"/><path class="cls-13" d="M78.44,387.94a.75.75,0,0,1,1.42.44l-.53,2.87a.75.75,0,0,1-1.47-.27l.53-2.87A.84.84,0,0,1,78.44,387.94Z"/><path class="cls-12" d="M178,317.41s16.71-9,26.39-2.05c17.71,12.75-12.33,37.28-46.7,49.26S112.13,375,112.13,375s-7.47-2-4.82-14.15c0,0,19.81-7.53,30.12-15.42S154.76,327.83,178,317.41Z"/><path class="cls-26" d="M116.24,357.79a.4.4,0,0,0,.24-.07c.17-.09,17.24-9.7,24.27-15.47,5.67-4.65,18.08-13.36,18.2-13.45a.49.49,0,0,0,.12-.68.48.48,0,0,0-.67-.11c-.13.08-12.57,8.82-18.26,13.49-7,5.72-24,15.28-24.13,15.38a.48.48,0,0,0-.19.66A.49.49,0,0,0,116.24,357.79Z"/><path class="cls-26" d="M108.65,364.33c7.2-1.74,21.89-8.47,39.28-18,13-7.15,28-16.28,30.22-19.44q1.78-2.58.89-4.16c-.9-1.57-3.47-1.74-4.65-1.72a.53.53,0,0,0-.52.56h0a.53.53,0,0,0,.53.48c1.15,0,3.16.19,3.73,1.19.48.84-.19,2.12-.84,3-1.77,2.55-14.33,10.59-29.86,19.12-13.37,7.34-30.64,15.9-39,17.92Z"/><path class="cls-26" d="M110,359.2c.81,6.36,2.46,12.14,6.06,16.58,0,0-3.08,2.21-5.89.62-2.15-1.21-6.29-11.15-4.71-16.45C107.26,359,108.81,358.63,110,359.2Z"/><line class="cls-28" x1="118.61" y1="324.28" x2="118.61" y2="317.6"/><path class="cls-22" d="M187.13,305c-.1-1.49-.27-2.88-.47-4.23-.39-2.7-.91-5.22-1.49-7.69s-1.21-4.85-1.89-7.21-1.41-4.67-2.15-7c-1.52-4.59-3.15-9.08-4.91-13.52-.88-2.21-1.77-4.43-2.71-6.61-.47-1.1-.94-2.19-1.43-3.29l-.74-1.63L171,253l-.41-.85a10.41,10.41,0,0,0-19.18,8l.05.13,2.32,6.29c.78,2.13,1.57,4.24,2.33,6.37,1.53,4.25,3,8.49,4.44,12.72s2.72,8.43,3.81,12.53c.28,1,.52,2,.76,3s.44,2,.62,2.91c.08.47.16.93.23,1.38-.68.19-1.38.38-2.1.56-2,.53-4.16,1-6.33,1.46s-4.37.88-6.58,1.3c-4.44.84-8.94,1.62-13.45,2.4l-6.78,1.17-.49.09c.63,5.27,1.51,10.52,1.95,15.81,2.33,0,4.67-.07,7-.12,4.72-.14,9.45-.39,14.22-.77,2.39-.18,4.78-.42,7.2-.7s4.86-.61,7.37-1c1.26-.22,2.54-.47,3.86-.77a42.75,42.75,0,0,0,4.24-1.15,26.44,26.44,0,0,0,2.56-1c.47-.21,1-.47,1.58-.8a14.72,14.72,0,0,0,2.07-1.38c.21-.17.4-.33.64-.55l.34-.31.37-.38.19-.2.09-.1.1-.12.4-.48c.13-.16.28-.37.42-.57l.21-.31c.06-.1.13-.2.2-.33s.29-.49.42-.75l.1-.19.1-.23a4.68,4.68,0,0,0,.2-.45l.18-.45.17-.51.15-.53.06-.27,0-.16.17-.85c0-.14.06-.3.08-.42l.06-.4c0-.25.07-.52.1-.78l.07-.72,0-.36,0-.34A37.28,37.28,0,0,0,187.13,305Z"/><path class="cls-23" d="M177.24,309.81a.51.51,0,0,1-.35-.13C173,306.06,166.64,306,166.58,306a.5.5,0,0,1-.5-.5.5.5,0,0,1,.5-.5c.28,0,6.84,0,11,3.94a.5.5,0,0,1-.34.86Z"/><path class="cls-23" d="M168.49,306.16a.51.51,0,0,1-.44-.26.51.51,0,0,1,.19-.68c2.54-1.44,7.34-.74,7.55-.71a.5.5,0,0,1,.42.56.51.51,0,0,1-.57.43s-4.66-.68-6.9.59A.59.59,0,0,1,168.49,306.16Z"/><path class="cls-19" d="M15.3,259.52v17.81a4.26,4.26,0,0,0,4.26,4.26H51.91l9.76,3.51a1.25,1.25,0,0,0,1.58-1.62l-3.69-9.54V259.52a4.27,4.27,0,0,0-4.27-4.27H19.56A4.27,4.27,0,0,0,15.3,259.52Z"/><path class="cls-25" d="M43.4,268.93a3.09,3.09,0,1,0,3.08-3.09A3.08,3.08,0,0,0,43.4,268.93Z"/><path class="cls-25" d="M33.63,268.93a3.09,3.09,0,1,0,3.08-3.09A3.08,3.08,0,0,0,33.63,268.93Z"/><path class="cls-25" d="M23.86,268.93A3.09,3.09,0,1,0,27,265.84,3.08,3.08,0,0,0,23.86,268.93Z"/><path class="cls-16" d="M268.05,338.78h1.53v-2.28l-57.94.07a7,7,0,0,0,0,13.92l57.95-.08v-2h-1.53Z"/><path class="cls-13" d="M268.44,338.78l0,9.64-53.18.07a4.77,4.77,0,0,1-4.7-4.82,4.88,4.88,0,0,1,1.37-3.41,4.67,4.67,0,0,1,3.32-1.42Z"/><path class="cls-3" d="M268.45,341.22v1.47l-51.8.07a.74.74,0,0,1-.74-.74h0a.74.74,0,0,1,.74-.74Z"/><path class="cls-3" d="M268.45,344.85v1.47l-51.8.07a.73.73,0,0,1-.73-.73h0a.75.75,0,0,1,.73-.74Z"/><path class="cls-11" d="M262.87,324.87h1.53v-2.29l-57.95.07a7,7,0,1,0,0,13.92l57.94-.08v-2h-1.53Z"/><path class="cls-13" d="M263.26,324.87l0,9.64-53.18.07a4.76,4.76,0,0,1-4.7-4.81,4.89,4.89,0,0,1,1.37-3.42,4.62,4.62,0,0,1,3.32-1.41Z"/><path class="cls-3" d="M263.27,327.31v1.47l-51.8.07a.75.75,0,0,1-.74-.73h0a.74.74,0,0,1,.74-.73Z"/><path class="cls-3" d="M263.27,330.94v1.47l-51.79.07a.74.74,0,0,1-.74-.73h0a.73.73,0,0,1,.73-.73Z"/><path class="cls-12" d="M273,310.94h1.53v-2.29l-57.95.07a7,7,0,1,0,0,13.92l57.95-.08v-2H273Z"/><path class="cls-13" d="M273.37,310.94v9.64l-53.17.07a4.77,4.77,0,0,1-4.71-4.81,4.93,4.93,0,0,1,1.37-3.42,4.62,4.62,0,0,1,3.32-1.41Z"/><path class="cls-3" d="M273.37,313.38v1.48l-51.8.06a.73.73,0,0,1-.73-.73h0a.73.73,0,0,1,.73-.73Z"/><path class="cls-3" d="M273.37,317v1.48l-51.8.06a.74.74,0,0,1-.74-.73h0a.74.74,0,0,1,.74-.73Z"/><rect class="cls-12" x="216.53" y="272.78" width="4.17" height="31.46" transform="translate(-41.17 36.43) rotate(-8.71)"/><polygon class="cls-28" points="218.3 272.64 214.17 273.27 215.08 270.13 215.55 268.5 216.49 269.91 218.3 272.64"/><rect class="cls-10" x="218.74" y="301.78" width="4.17" height="2.29" transform="translate(-43.33 36.94) rotate(-8.71)"/><path class="cls-30" d="M223.06,305.58l-3.57.55a.28.28,0,0,1-.32-.24l-.23-1.52,4.12-.63.24,1.52A.29.29,0,0,1,223.06,305.58Z"/><polygon class="cls-10" points="216.49 269.91 215.08 270.13 215.55 268.5 216.49 269.91"/><rect class="cls-26" x="218.44" y="300.16" width="4.17" height="1.64" transform="translate(-43.03 36.86) rotate(-8.71)"/><path class="cls-26" d="M215.43,274.65l3.53,23a.32.32,0,0,0,.37.26h0a.31.31,0,0,0,.26-.36l-3.53-23a.3.3,0,0,0-.36-.26h0A.32.32,0,0,0,215.43,274.65Z"/><path class="cls-26" d="M217.05,274.4l3.52,23a.32.32,0,0,0,.37.26h0a.31.31,0,0,0,.26-.36l-3.52-23a.32.32,0,0,0-.37-.26h0A.31.31,0,0,0,217.05,274.4Z"/><rect class="cls-11" x="221.63" y="272.79" width="4.17" height="31.46" transform="translate(-0.95 0.74) rotate(-0.19)"/><polygon class="cls-28" points="225.76 272.79 221.58 272.8 222.95 269.82 223.66 268.28 224.37 269.81 225.76 272.79"/><rect class="cls-10" x="221.68" y="301.96" width="4.17" height="2.29" transform="translate(-0.99 0.74) rotate(-0.19)"/><path class="cls-30" d="M225.59,306.07H222a.29.29,0,0,1-.28-.28v-1.54l4.17,0v1.55A.28.28,0,0,1,225.59,306.07Z"/><polygon class="cls-10" points="224.37 269.81 222.95 269.82 223.66 268.28 224.37 269.81"/><rect class="cls-7" x="221.68" y="300.32" width="4.17" height="1.64" transform="translate(-0.99 0.74) rotate(-0.19)"/><path class="cls-7" d="M222.63,274.35l.07,23.29a.32.32,0,0,0,.32.32h0a.32.32,0,0,0,.32-.32l-.08-23.3a.31.31,0,0,0-.32-.31h0A.31.31,0,0,0,222.63,274.35Z"/><path class="cls-7" d="M224.26,274.34l.07,23.29a.32.32,0,0,0,.32.32h0a.32.32,0,0,0,.32-.32l-.07-23.29a.33.33,0,0,0-.32-.32h0A.32.32,0,0,0,224.26,274.34Z"/><rect class="cls-9" x="212.95" y="286.42" width="31.46" height="4.17" transform="translate(-89.13 474.33) rotate(-81.91)"/><polygon class="cls-28" points="232.96 273.23 228.82 272.64 230.6 269.89 231.53 268.46 232.01 270.09 232.96 273.23"/><rect class="cls-10" x="224.54" y="301.81" width="4.17" height="2.29" transform="translate(44.87 -28.87) rotate(8.09)"/><path class="cls-30" d="M228,306.14l-3.58-.51a.28.28,0,0,1-.24-.31l.22-1.53,4.13.58-.22,1.53A.28.28,0,0,1,228,306.14Z"/><polygon class="cls-10" points="232.01 270.09 230.6 269.89 231.53 268.46 232.01 270.09"/><rect class="cls-31" x="226.08" y="298.92" width="1.64" height="4.17" transform="translate(-103.04 483.3) rotate(-81.91)"/><path class="cls-31" d="M229.63,274.32l-3.27,23.07a.32.32,0,0,0,.27.36h0a.33.33,0,0,0,.36-.27l3.27-23.07a.32.32,0,0,0-.27-.36h0A.33.33,0,0,0,229.63,274.32Z"/><path class="cls-31" d="M231.25,274.55,228,297.61a.32.32,0,0,0,.27.36h0a.31.31,0,0,0,.36-.27l3.28-23.06a.32.32,0,0,0-.27-.36h0A.32.32,0,0,0,231.25,274.55Z"/><polygon class="cls-8" points="234.98 285.56 234.64 288.6 234.51 289.82 232.41 308.69 214.7 308.69 212.83 291.92 212.47 288.6 212.13 285.56 234.98 285.56"/><polygon class="cls-9" points="234.64 288.6 234.51 289.82 212.83 291.92 212.47 288.6 234.64 288.6"/><polygon class="cls-16" points="235.72 288.6 211.43 288.6 210.96 284.16 236.19 284.16 235.72 288.6"/></g></g></svg>