<svg xmlns="http://www.w3.org/2000/svg" viewBox="0 0 568.48 363.92"><defs><style>.cls-1{fill:#e0e0e0;}.cls-2{fill:#263238;}.cls-3{fill:#f5f5f5;}.cls-4{fill:#ae7461;}.cls-5{fill:#ffbe9d;}.cls-6{fill:#eb996e;}.cls-7{fill:#6f4439;}.cls-8{fill:#455a64;}.cls-9{fill:#fade9d;}.cls-10{fill:#ff725e;}.cls-11,.cls-13{opacity:0.3;}.cls-12{fill:#ebebeb;}.cls-14{fill:#fff;}</style></defs><g id="Layer_2" data-name="Layer 2"><g id="Puzzle"><path class="cls-1" d="M261.28,210.58c5.57-.39,10.38,1.12,15,3.29a16.71,16.71,0,0,0,6.82,1.67l6.09-.14.07-67.71a11.61,11.61,0,0,0-11.65-11.58l-64.36.24V135a17.91,17.91,0,0,1,1.89-7.82,35.66,35.66,0,0,0,3.06-21.75,36.19,36.19,0,0,0-71.81,6.2,35.51,35.51,0,0,0,3.07,14.47,17.82,17.82,0,0,1,1.61,7.25l.38,3H73.92a11.61,11.61,0,0,0-11.65,11.58v66.2H56.74a17.05,17.05,0,0,1-7.41-1.78,34.88,34.88,0,0,0-21-2.9,34.25,34.25,0,0,0,5.87,67.95,33.5,33.5,0,0,0,13.69-2.91A17,17,0,0,1,54.79,273h7.1L62,354a9.46,9.46,0,0,0,9.49,9.43H279.13c5.24,0,9.35-6.58,9.35-11.78V278h-8.41a15.26,15.26,0,0,0-5.66,1.11,31.43,31.43,0,0,1-43.14-30.27C231.9,233.1,245.48,211.67,261.28,210.58Z"/><path class="cls-2" d="M261.28,210.58l-.55.07a12.91,12.91,0,0,0-1.62.24,22.13,22.13,0,0,0-6.09,2.17c-5.07,2.58-11.72,8.49-16.72,18.35A43.68,43.68,0,0,0,231.38,249a32.11,32.11,0,0,0,1.43,10.4,31,31,0,0,0,5.33,10.06A31.2,31.2,0,0,0,260,281.09a30.88,30.88,0,0,0,13.74-1.89,16.31,16.31,0,0,1,7.2-1.36h7.7V278q0,17.46,0,37.08v20.09q0,5.16,0,10.42v5.3a15.38,15.38,0,0,1-.18,2.7,15,15,0,0,1-.74,2.62,13.76,13.76,0,0,1-2.9,4.63,8.46,8.46,0,0,1-4.8,2.68,26.19,26.19,0,0,1-2.79.07H246l-48.41,0-105.94,0h-14c-2.36,0-4.68.05-7.08-.05a9.72,9.72,0,0,1-8.76-9.95c0-2.38,0-4.77,0-7.17q0-7.18,0-14.43-.06-29-.11-59.06l.26.26H57.46a43.28,43.28,0,0,0-4.42.1,17.07,17.07,0,0,0-4.27,1.09,44.46,44.46,0,0,1-4.22,1.64,34.07,34.07,0,0,1-34.33-8.35,34.59,34.59,0,0,1-5.75-7.47,35.62,35.62,0,0,1-2-4.28c-.27-.75-.6-1.47-.82-2.23L1,251.44A34.9,34.9,0,0,1,3.1,228.75,34.35,34.35,0,0,1,29.5,209a35.56,35.56,0,0,1,11.28.27,34.15,34.15,0,0,1,5.44,1.47c.88.32,1.75.67,2.6,1.07s1.67.79,2.54,1.09c3.45,1.36,7.23.86,10.91,1l-.26.25v-42.4q0-10.47,0-20.77a32.2,32.2,0,0,1,.2-5.18,11.51,11.51,0,0,1,2-4.76,11.89,11.89,0,0,1,8.82-4.88l78.4,0-.24.27c-.13-1-.25-2-.38-3v0h0a16.89,16.89,0,0,0-.93-5.47c-.29-.88-.67-1.72-1-2.59s-.68-1.76-1-2.65a35.66,35.66,0,0,1-1.73-11l.15-2.77c0-.46,0-.92.09-1.38l.23-1.36c.17-.9.25-1.83.49-2.71l.73-2.64a9.46,9.46,0,0,1,.44-1.3l.51-1.27a18.46,18.46,0,0,1,1.1-2.49l1.26-2.4L152.7,91A35.38,35.38,0,0,1,160,83.26l1-.83,1.11-.74c.74-.47,1.47-1,2.23-1.42A37.42,37.42,0,0,1,169.16,78a35.84,35.84,0,0,1,10.08-2.42,36.8,36.8,0,0,1,5.14-.08c.85.06,1.71.07,2.55.16l2.52.39a36.55,36.55,0,0,1,17.66,8.83,36,36,0,0,1,11,34.47,37.71,37.71,0,0,1-3,8.48,18.19,18.19,0,0,0-1.31,4.17,20.88,20.88,0,0,0-.28,4.33l-.18-.19,49-.15,11.14,0h2.71c.9,0,1.8,0,2.7.06a11.83,11.83,0,0,1,5,1.69,11.7,11.7,0,0,1,5.49,8.36,45.63,45.63,0,0,1,.12,4.94c0,1.62,0,3.22,0,4.81-.05,25.31-.1,45.43-.12,59.58v.07h-.08c-2.45,0-4.73.14-6.87.1a17.47,17.47,0,0,1-5.7-1.49,38.2,38.2,0,0,0-8.41-3,26.18,26.18,0,0,0-5.24-.56c-.58,0-1,0-1.3,0h-.43a17.17,17.17,0,0,1,1.73-.08,25,25,0,0,1,5.25.53,37.35,37.35,0,0,1,8.45,2.95,16.81,16.81,0,0,0,5.66,1.46c2.11,0,4.41-.08,6.86-.12l-.08.08c0-14.15,0-34.27,0-59.58V151a47.15,47.15,0,0,0-.12-4.9,11.38,11.38,0,0,0-5.37-8.14,11.51,11.51,0,0,0-4.9-1.65c-.87-.06-1.76-.06-2.67,0h-2.71l-11.14.05-49,.21h-.19v-.19a21.79,21.79,0,0,1,.28-4.4,18.72,18.72,0,0,1,1.33-4.25,38,38,0,0,0,3-8.41A35.55,35.55,0,0,0,206.83,85.2a36.19,36.19,0,0,0-17.46-8.71l-2.49-.38c-.83-.09-1.68-.1-2.52-.16a36,36,0,0,0-5.08.08,35.35,35.35,0,0,0-10,2.4,37.86,37.86,0,0,0-4.69,2.22c-.75.44-1.47.94-2.2,1.41l-1.1.72-1,.83a34.73,34.73,0,0,0-7.24,7.67l-1.48,2.23-1.24,2.37a16.88,16.88,0,0,0-1.09,2.46l-.5,1.26a7.91,7.91,0,0,0-.43,1.27l-.72,2.62c-.25.87-.32,1.78-.49,2.67l-.22,1.34c-.07.45-.06.91-.1,1.36l-.14,2.74a35.41,35.41,0,0,0,1.71,10.86q.44,1.32,1,2.61c.36.85.76,1.72,1.06,2.62a17.54,17.54,0,0,1,1,5.62v0c.13,1,.25,2,.38,3l0,.27h-.26l-78.37,0a11.35,11.35,0,0,0-8.44,4.67,11,11,0,0,0-2,4.57,31.57,31.57,0,0,0-.2,5.08v20.77q0,20.91,0,42.4v.26H56.72a16.57,16.57,0,0,1-5.53-1,24.74,24.74,0,0,1-2.58-1.11c-.84-.39-1.7-.73-2.57-1a33.84,33.84,0,0,0-5.35-1.46,35.44,35.44,0,0,0-11.12-.26A33.85,33.85,0,0,0,3.57,229,34.31,34.31,0,0,0,1.5,251.31l.61,2.26c.22.75.55,1.46.82,2.2a35.27,35.27,0,0,0,2,4.22,34.37,34.37,0,0,0,5.66,7.35,33.51,33.51,0,0,0,33.81,8.22,43.62,43.62,0,0,0,4.19-1.62,17.56,17.56,0,0,1,4.4-1.12c1.51-.18,3-.08,4.48-.11h4.69V273q0,30,.1,59.06,0,7.25,0,14.43c0,2.4,0,4.79,0,7.17a9.23,9.23,0,0,0,8.31,9.45c2.3.1,4.69,0,7,.05h14l105.94,0h79.71a27.25,27.25,0,0,0,2.73-.07,8.05,8.05,0,0,0,4.57-2.56,13.27,13.27,0,0,0,2.82-4.49,12.8,12.8,0,0,0,.9-5.18v-5.3c0-3.51,0-7,0-10.42q0-10.29,0-20.09,0-19.59,0-37.08l.16.16h-7.54a16.12,16.12,0,0,0-7.09,1.33A30.88,30.88,0,0,1,260,281.37a31.32,31.32,0,0,1-27.39-21.92A32.62,32.62,0,0,1,231.16,249a43.85,43.85,0,0,1,5-17.64c5.05-9.88,11.74-15.78,16.83-18.35a21.69,21.69,0,0,1,6.13-2.13,13.84,13.84,0,0,1,1.63-.22Z"/><path class="cls-3" d="M533.26,213.35a34.76,34.76,0,0,0-14.14,3,18.23,18.23,0,0,1-4.73,1.39V146.57a9.49,9.49,0,0,0-9.49-9.49h-74v8.41a15.06,15.06,0,0,0,1.11,5.66,31.42,31.42,0,0,1-30.46,43.14,31.7,31.7,0,0,1-30.09-29.21,31.11,31.11,0,0,1,2.89-15.49,15.66,15.66,0,0,0,1.53-6.62v-5.89l-75-.24a11.65,11.65,0,0,0-11.65,11.65l-.07,66H284c-.58,0-1.17,0-1.76-.06a38.33,38.33,0,1,0-3.55,64.25,14.74,14.74,0,0,1,3.11-.34h6.56V352A11.66,11.66,0,0,0,300,363.67H504.9a9.49,9.49,0,0,0,9.49-9.49v-75a19.49,19.49,0,0,1,3.67,1.35,34.82,34.82,0,0,0,21.25,3,35.36,35.36,0,0,0-6-70.16Z"/><path class="cls-2" d="M533.26,213.35s.75,0,2.22.1a17,17,0,0,1,2.74.26L540,214a13.37,13.37,0,0,1,2,.45l2.23.61c.76.26,1.55.6,2.39.92.42.17.85.33,1.28.52l1.28.66a21.88,21.88,0,0,1,2.68,1.51,35.39,35.39,0,0,1,16.53,27.66c0,.86.11,1.73.12,2.6s-.1,1.76-.15,2.65c0,.45,0,.9-.09,1.35s-.14.9-.2,1.35-.14.9-.22,1.36-.21.9-.32,1.35A35.13,35.13,0,0,1,563,267.67a35.17,35.17,0,0,1-20.28,15.2c-1.11.34-2.26.52-3.4.78s-2.32.35-3.51.43a34.92,34.92,0,0,1-7.21-.22,34.32,34.32,0,0,1-7.21-1.76c-2.39-.81-4.56-2.21-7-2.77l.2-.16q0,17.28,0,36.64,0,9.68,0,19.82v18.13c0,.43,0,.89,0,1.34a10,10,0,0,1-.23,1.33,9.7,9.7,0,0,1-7.44,7.24,13.31,13.31,0,0,1-2.74.2H473.34l-47.59,0-104,0H301.09a18.18,18.18,0,0,1-3.51-.24,13.14,13.14,0,0,1-3.32-1.23,12,12,0,0,1-4.89-5.06,11.31,11.31,0,0,1-1.11-3.4,19.25,19.25,0,0,1-.18-3.55V336.28q0-28.45,0-57.93l.26.26H283.6c-.81,0-1.65,0-2.46,0a15.28,15.28,0,0,0-2.42.32l.07,0a38.35,38.35,0,0,1-15.59,4.93,38.64,38.64,0,0,1-42.13-38.09,40.86,40.86,0,0,1,1.86-12.19,38.49,38.49,0,0,1,5.6-10.91,40.28,40.28,0,0,1,4-4.66l2.26-2.06c.77-.68,1.62-1.24,2.43-1.86A39.67,39.67,0,0,1,248,208.61,42.45,42.45,0,0,1,260,206.83a38.39,38.39,0,0,1,22.4,7.4l-.13,0c2.27.12,4.58,0,6.86.06l-.26.26q0-21.15.05-41.75,0-10.29,0-20.44v-2.53c0-.84,0-1.69.07-2.55a11.93,11.93,0,0,1,9.8-10.45,31.25,31.25,0,0,1,5-.17h5l9.85,0,19.45.06,37.79.13h.23v5.52a15.54,15.54,0,0,1-.75,5.24,20.18,20.18,0,0,1-1,2.45c-.36.78-.68,1.59-1,2.4a29.75,29.75,0,0,0-1.32,5,30.74,30.74,0,0,0,3,19.66,31.08,31.08,0,0,0,5.85,7.95,32.23,32.23,0,0,0,7.92,5.69,30.75,30.75,0,0,0,18.57,3,31.19,31.19,0,0,0,22.18-14.86,29.65,29.65,0,0,0,3.42-8.17,30.71,30.71,0,0,0-.37-17.09c-.39-1.36-1-2.63-1.41-4a15.05,15.05,0,0,1-.57-4.21V136.9h.19l54.19,0H503.1c1,0,1.93,0,2.9.07a9.8,9.8,0,0,1,2.78.76A9.64,9.64,0,0,1,513,141.4a9.81,9.81,0,0,1,1.51,5.23q0,5.37,0,10.43c0,27,0,47.58-.07,60.68l-.07-.06c3.33-.43,5.85-2.06,8.22-2.71a34.56,34.56,0,0,1,5.93-1.33,33.21,33.21,0,0,1,3.56-.29h1.17l-1.17,0a34.65,34.65,0,0,0-9.46,1.67c-2.36.66-4.87,2.29-8.23,2.74h-.07v-.07c0-13.1,0-33.66-.07-60.68,0-3.37,0-6.85,0-10.43a9.36,9.36,0,0,0-5.59-8.61,9.92,9.92,0,0,0-2.69-.73c-.93-.08-1.9-.06-2.87-.06H485l-54.19,0,.18-.19q0,4.11,0,8.31a14.71,14.71,0,0,0,.56,4.11c.37,1.33,1,2.63,1.41,4a31.18,31.18,0,0,1,.39,17.3,30.3,30.3,0,0,1-3.46,8.28,31.26,31.26,0,0,1-5.77,7.08,31.61,31.61,0,0,1-16.7,8,31.21,31.21,0,0,1-18.83-3,33.29,33.29,0,0,1-8-5.76,32,32,0,0,1-5.94-8.07,31.24,31.24,0,0,1-3.07-19.94,30.68,30.68,0,0,1,1.33-5c.3-.82.62-1.63,1-2.43a19.06,19.06,0,0,0,1-2.4,15.14,15.14,0,0,0,.72-5.1v-5.29l.23.24-37.78-.12-19.45-.06-9.85,0h-5a30.89,30.89,0,0,0-4.92.17,11.43,11.43,0,0,0-9.4,10c-.06.82-.07,1.65-.06,2.5v2.53q0,10.14,0,20.44,0,20.58,0,41.75v.26h-.25c-2.29,0-4.56.05-6.9-.06h-.07l-.06,0a37.88,37.88,0,0,0-22.1-7.3,42,42,0,0,0-11.77,1.75,39.5,39.5,0,0,0-10.69,5.39c-.79.61-1.64,1.17-2.39,1.83l-2.24,2A40.15,40.15,0,0,0,229,223a38.11,38.11,0,0,0-5.53,10.76,40.75,40.75,0,0,0-1.83,12,38.26,38.26,0,0,0,11,26.47,38.37,38.37,0,0,0,30.53,11.1,37.81,37.81,0,0,0,15.38-4.85l0,0h0a15.27,15.27,0,0,1,2.51-.33c.85,0,1.66,0,2.48,0h5v58.19q0,7.13,0,14.16a20.86,20.86,0,0,0,.17,3.47,10.89,10.89,0,0,0,1.07,3.25A11.46,11.46,0,0,0,294.5,362a12.56,12.56,0,0,0,3.18,1.18,17.62,17.62,0,0,0,3.41.23h20.66l104,0,47.59,0h30.79a13,13,0,0,0,2.66-.2,9.29,9.29,0,0,0,7.14-6.93,10.14,10.14,0,0,0,.26-2.58v-2.63c0-1.75,0-3.5,0-5.23V335.63q0-10.14,0-19.82,0-19.33,0-36.64V279l.2,0c2.55.58,4.73,2,7.08,2.78a33.56,33.56,0,0,0,7.14,1.76,34.33,34.33,0,0,0,7.15.22c1.18-.08,2.34-.24,3.48-.42s2.28-.43,3.37-.77a35.23,35.23,0,0,0,24.63-25.66c.1-.45.21-.9.32-1.35l.21-1.35c.07-.45.14-.89.2-1.34s.07-.89.1-1.33q.07-1.34.15-2.64c0-.87-.08-1.73-.11-2.58a35.27,35.27,0,0,0-16.39-27.57,22.43,22.43,0,0,0-2.66-1.51l-1.28-.67c-.43-.19-.86-.35-1.27-.51-.84-.33-1.62-.67-2.39-.93l-2.21-.62a13.45,13.45,0,0,0-2-.46l-1.75-.29a17.42,17.42,0,0,0-2.73-.29Z"/></g><g id="Characters"><path class="cls-4" d="M283.54,226.48s3.36-1.73,6.33-1.08,13.76,7.68,13.76,7.68l8.69-1.62L317.44,256l-33.9,14.09Z"/><path class="cls-5" d="M258.47,235s7.76-1,10.57-2.38,9.52-7.36,10.93-7.25,6.49,1.08,6.49,1.08l-2,6.17s10.17,6.16,13.19,8.43,12.55,12.44,13,14.93-.33,5.41-1.52,6.39-5.52-1-5.52-1a5.42,5.42,0,0,1-1,4.44c-1.62,2.16-5.41,1.4-5.41,1.4s-.32,3.57-2.05,4.22-5.63-1.3-5.63-1.3-1.17,3-2.59,3.36-5.41-2.06-5.41-2.06S264.18,259,260.28,257.2s-5.08-1.94-5.08-1.94Z"/><path class="cls-6" d="M289.49,270.18c-.08,0-.13-.3-.31-.75a12.66,12.66,0,0,0-.87-1.73,11.33,11.33,0,0,1-1.34-2.47,6,6,0,0,1,1.79,2.21,6.32,6.32,0,0,1,.77,1.88C289.64,269.85,289.56,270.19,289.49,270.18Z"/><path class="cls-6" d="M296.68,268.08a28.71,28.71,0,0,1-2.18-3.27c-1.18-1.8-2.45-3-2.36-3.11a7.59,7.59,0,0,1,2.79,2.82A10.39,10.39,0,0,1,296.68,268.08Z"/><path class="cls-6" d="M303.63,261.84c-.15,0-.64-1.84-1.83-3.86s-2.58-3.36-2.47-3.48a10.59,10.59,0,0,1,4.3,7.34Z"/><path class="cls-6" d="M298.56,248.34a6.17,6.17,0,0,1,.58,2.9,6.36,6.36,0,0,1-.32,2.94,61.12,61.12,0,0,1-.26-5.84Z"/><path class="cls-4" d="M273.37,238.6s2.71-8.66,3.68-9.74,10-3.46,10-3.46l2.8,7.25-2,2.12-4.33-.29S280.84,241.62,273.37,238.6Z"/><path class="cls-4" d="M256.77,255.71s-1.23,1,0,3.22,4.59.65,5.68,0c0,0-1.63,3.79.43,5a8.09,8.09,0,0,0,4.54.87s-.11,2.27,2.81,3.78,3.68,0,3.68,0,.33,3.79,3.68,4.11,4.53-.82,4.53-.82l-1.5-2.24s1.95-4,.43-5.7a5.17,5.17,0,0,0-4-1.51s.66-3.52-1.27-4.5a3.55,3.55,0,0,0-5.11,1.57s-.22-3.85-3-3.76a6.29,6.29,0,0,0-4.33,1.82Z"/><path class="cls-7" d="M270.67,259.47a8.53,8.53,0,0,1-1.29,2.89,8.27,8.27,0,0,1-1.9,2.53,11.45,11.45,0,0,1,1.45-2.79A11.71,11.71,0,0,1,270.67,259.47Z"/><path class="cls-7" d="M277.12,262.88a11.86,11.86,0,0,1-3.73,5.46,18.58,18.58,0,0,1,1.82-2.76A19,19,0,0,1,277.12,262.88Z"/><path class="cls-2" d="M210.11,303.71H193.7l-4.2,59.67H206c2.8-9.09,9.8-56.45,9.8-56.45Z"/><path class="cls-2" d="M117.17,303.71s-10.5,24.62-9.45,34.59,7,25.08,7,25.08h81.27a185.94,185.94,0,0,0,4-20.64c1.75-12.31,6.48-39,6.48-39Z"/><path class="cls-2" d="M224.57,66c-2.74-3.46-6.13-6.8-6.84-11.16-.64-4,1.11-8.41-.69-12.05-2.21-4.48-8.57-5.36-11.33-9.53-1.34-2-1.65-4.58-3-6.61-2.25-3.46-6.86-4.57-11-4.33s-8.14,1.52-12.26,1.6c-5.66.12-11.39-2-16.88-.65-6.07,1.5-10,6.61-14.12,11.54l-5.35,5.68a22.47,22.47,0,0,1-3.51,2.58c-2.2,1.27-4.69,2.11-6.61,3.78-4.1,3.56-4.12,10.81,0,14.41a10.69,10.69,0,0,0-7.71,10.12c0,2.51,1,4.91,1.59,7.34s.95,5.11-.16,7.36-4.13,3.69-6.25,2.35a11.23,11.23,0,0,0,5.76,7.78A6.74,6.74,0,0,1,121.61,98c4,11,16.22,17.21,27.9,17.82s23.06-3.27,34.1-7.11l31.82-6.68c2.79-.5,4.1-3.8,4.2-6.63s-.49-5.82.65-8.42c1.56-3.56,5.87-5.28,7.49-8.81C229.61,74.19,227.32,69.5,224.57,66Z"/><path class="cls-2" d="M148.83,91.19C146.89,84,145,76.71,144.31,69.27s-.05-15.12,2.91-22c.45-1,4.17-8,5.29-7.8.8.12-1.61,6.64-1.24,7.36,3.54,6.87,4.18,14.94,3.17,22.59a101.11,101.11,0,0,1-5.61,21.75"/><path class="cls-5" d="M149.56,62.69c.36-18.72,11.55-34.12,30.26-33.25l1.73.18a33.49,33.49,0,0,1,30,34.12c-.4,16.23-1.05,34.15-2.07,42.78-2.1,17.85-20.27,18.74-20.27,18.74s-.49,29.49-.49,29.49l-42.54-29.48Z"/><path class="cls-6" d="M189.18,125.26a43.36,43.36,0,0,1-22.55-9.33s4.19,15.11,22.2,15.38Z"/><path class="cls-2" d="M205.32,77.59a2.57,2.57,0,0,1-2.73,2.32,2.47,2.47,0,0,1-2.39-2.58A2.57,2.57,0,0,1,202.93,75,2.45,2.45,0,0,1,205.32,77.59Z"/><path class="cls-2" d="M206.92,70.75c-.36.3-2.14-1.33-4.89-1.61s-4.9.87-5.16.51c-.13-.17.25-.73,1.2-1.28a7,7,0,0,1,4.18-.82,6.77,6.77,0,0,1,3.84,1.7C206.86,70,207.09,70.62,206.92,70.75Z"/><path class="cls-2" d="M180.47,77.59a2.58,2.58,0,0,1-2.74,2.32,2.45,2.45,0,0,1-2.38-2.58A2.56,2.56,0,0,1,178.08,75,2.46,2.46,0,0,1,180.47,77.59Z"/><path class="cls-2" d="M179.89,69c-.35.3-2.13-1.34-4.88-1.62s-4.9.88-5.17.51c-.13-.16.26-.73,1.2-1.27a7.08,7.08,0,0,1,4.18-.83,6.81,6.81,0,0,1,3.85,1.71C179.84,68.26,180.06,68.9,179.89,69Z"/><path class="cls-2" d="M187.52,91.17c0-.15,1.74-.27,4.55-.33.71,0,1.39-.07,1.55-.54a3.57,3.57,0,0,0-.24-2.12c-.49-1.77-1-3.62-1.52-5.56-2.07-7.91-3.5-14.38-3.18-14.46s2.26,6.26,4.34,14.17q.75,2.91,1.42,5.58a4.08,4.08,0,0,1,.07,2.79,1.74,1.74,0,0,1-1.26.9,4.59,4.59,0,0,1-1.21,0C189.24,91.5,187.52,91.33,187.52,91.17Z"/><path class="cls-2" d="M179.24,92.22c.45,0,.14,3,2.47,5.39s5.54,2.39,5.51,2.81c0,.19-.76.5-2.11.4a7.43,7.43,0,0,1-4.62-2.18,6.48,6.48,0,0,1-1.88-4.5C178.63,92.89,179,92.18,179.24,92.22Z"/><path class="cls-2" d="M180.92,57.87c-.35.72-3.06.07-6.32.12s-6,.65-6.32-.06c-.16-.34.37-1,1.5-1.61a11,11,0,0,1,9.62,0C180.54,56.88,181.07,57.52,180.92,57.87Z"/><path class="cls-2" d="M206.74,61.5c-.55.58-2.37-.27-4.64-.54s-4.25,0-4.62-.72c-.16-.34.21-.93,1.11-1.44a6.5,6.5,0,0,1,3.89-.62,6.41,6.41,0,0,1,3.58,1.65C206.79,60.55,207,61.22,206.74,61.5Z"/><path class="cls-5" d="M149.63,76.08c-.29-.16-11.9-4.92-12.8,7.34s11.6,10.63,11.64,10.28S149.63,76.08,149.63,76.08Z"/><path class="cls-6" d="M145.07,88.78s-.23.13-.6.27a2.1,2.1,0,0,1-1.6-.08c-1.26-.57-2.2-2.71-2.1-4.92a7.27,7.27,0,0,1,.83-3,2.49,2.49,0,0,1,1.72-1.52,1.09,1.09,0,0,1,1.22.68c.14.36,0,.59.11.62s.28-.19.21-.7a1.31,1.31,0,0,0-.42-.8,1.61,1.61,0,0,0-1.16-.4,3,3,0,0,0-2.37,1.74,7.24,7.24,0,0,0-1,3.36c-.1,2.48,1,4.88,2.73,5.52a2.28,2.28,0,0,0,2-.18C145,89.07,145.11,88.81,145.07,88.78Z"/><path class="cls-2" d="M204.89,42.9c2.05-1-3.49-7.78-8.23-10.31-7.16-3.82-18.28-6.6-25.21-5.11-8.33,1.79-15.4,5.43-20,12.62s-6.7,15.76-7,24.28c-.09,2.6,0,5.33,1.25,7.61,1.54,2.82,4.72,4.74,4.33,8.48a5.15,5.15,0,0,0,1,3.82c2.09,2.54,5,.47,6.39-1.7,3-4.63,3.68-10.35,4.27-15.84.42-3.9.84-7.89,0-11.72C161.24,53,160.4,51,160,48.85a7.4,7.4,0,0,1,1.27-6.07,7.18,7.18,0,0,1,1.06-.94,12.83,12.83,0,0,1,12.85-1.6c6.75,2.89,18.31,7.3,21.54,5.15,4.65-3.09,5.86-5.22,5.86-5.22Z"/><path class="cls-2" d="M172.2,25.86c6.89-1.82,14.55-1.21,20.65,2.47,3.24,2,6.09,4.92,6.88,8.62s-1.06,8.07-4.64,9.27l-.25.13c-5.35,1.43-8.71.51-13.81-1.64-4.29-1.8-8-4.76-12.32-6.54a25,25,0,0,0-14.57-1.37C159.18,31.77,165.32,27.68,172.2,25.86Z"/><path class="cls-8" d="M175.3,23.73a4.86,4.86,0,0,1,1.25.12,20.4,20.4,0,0,1,3.3.9,21,21,0,0,1,4.52,2.33,17.23,17.23,0,0,1,4.5,4.31,16.49,16.49,0,0,1,2.48,5.72,30.14,30.14,0,0,1,.75,5,33.53,33.53,0,0,1,.09,3.41,4.54,4.54,0,0,1-.09,1.24,7.83,7.83,0,0,1-.11-1.24c-.05-.8-.11-2-.25-3.38a32.47,32.47,0,0,0-.86-4.93,16.55,16.55,0,0,0-2.43-5.54,17.85,17.85,0,0,0-4.35-4.22,22.93,22.93,0,0,0-4.38-2.38A42.52,42.52,0,0,0,175.3,23.73Z"/><path class="cls-8" d="M186.59,23.05a4.06,4.06,0,0,1,1.06.29,8.53,8.53,0,0,1,1.21.45l1.54.78a15.87,15.87,0,0,1,6.36,7.48,20.35,20.35,0,0,1,.9,2.7,19.48,19.48,0,0,1,.4,2.61,17.77,17.77,0,0,1,.05,2.4c-.1.74-.13,1.44-.28,2.06a11.19,11.19,0,0,1-.46,1.66,8,8,0,0,1-.49,1.2,4.28,4.28,0,0,1-.57.94,22.58,22.58,0,0,0,1.15-3.86,19.22,19.22,0,0,0,.22-2,20.86,20.86,0,0,0-.1-2.33,19.76,19.76,0,0,0-.42-2.54,19.21,19.21,0,0,0-.88-2.62,16.2,16.2,0,0,0-6.08-7.37l-1.46-.82a9.91,9.91,0,0,0-1.16-.53A5.36,5.36,0,0,1,186.59,23.05Z"/><path class="cls-9" d="M194.59,151.79c0,1.68,8.44,38.72,11.66,47.82S219.7,300,218.36,306.46s-4.84,6.24-4.84,6.24-82.59-5.2-91.46-4.42-12.65.52-14.8-9.62.07-62.83-1.82-75.57-1.9-18.91-2.62-37.84c-.64-16.4,3.1-29.56,10.9-39.05s25.07-19.1,25.07-19.1l6.12-8.93,43.35,22.92,1-5.22,2.63,8.13Z"/><path d="M213.22,264.69c-.72-1.84-3.06-2.3-5-2.52-18.37-2-37.49-6.62-50.9-19.33-5.25-5-9.39-11-13.37-17-8.72-13.18-16.92-26.7-25.11-40.21L112.46,188c3.9,19.08,7.74,32.89,14.1,48.53s11.28,30.81,27.39,35.93c10.41,3.31,30.18.78,41.07-.08a63.2,63.2,0,0,0,13.49-2.11,8.74,8.74,0,0,0,3.65-1.86A3.59,3.59,0,0,0,213.22,264.69Z"/><path class="cls-9" d="M110.22,183c.48.84,37.23,79.34,53.64,82.57s67.4,4,77.36,2.1,19.69-3.64,19.69-3.64,7.2-17.12.63-31.7l-13.7.43s-38.09-2.05-43.47-3.52-10-6.52-14.87-6.25l-29-67.43s-18.83-17.49-32.28-12.11S106.28,176,110.22,183Z"/><path class="cls-2" d="M248.89,266.79a7.93,7.93,0,0,1,.27-1.32c.22-.83.49-2.05.78-3.57s.54-3.33.73-5.36a59.08,59.08,0,0,0,.14-6.61,53.61,53.61,0,0,0-1.87-11.87c-.41-1.48-.78-2.68-1.06-3.49a5.75,5.75,0,0,1-.38-1.3,8,8,0,0,1,.57,1.23c.34.79.77,2,1.23,3.46a48.67,48.67,0,0,1,2,11.94,51.6,51.6,0,0,1-.19,6.69,47.39,47.39,0,0,1-.84,5.39,34.39,34.39,0,0,1-.94,3.55A6.25,6.25,0,0,1,248.89,266.79Z"/><path class="cls-2" d="M160.52,155.6s.2.4.55,1.2.87,2,1.55,3.52c1.35,3.11,3.33,7.66,5.86,13.5,5.05,11.71,12.33,28.55,21.21,49.13l-.2-.13a12.56,12.56,0,0,1,6.42,2c2,1.1,3.94,2.38,6.06,3.35a20.26,20.26,0,0,0,6.89,1.61c2.42.28,4.88.5,7.38.71,10,.83,20.58,1.48,31.61,2.09h0l13.7-.43h.17l.07.16A35.22,35.22,0,0,1,264.51,248a51.37,51.37,0,0,1-3.36,16.18l0,.13-.15,0-8.71,1.61-9.53,1.76a64.29,64.29,0,0,1-9.54,1c-6.34.29-12.59.31-18.72.28s-12.16-.18-18.06-.39-11.67-.52-17.29-.95c-2.81-.2-5.59-.47-8.32-.77a56.81,56.81,0,0,1-8.05-1.34,13.86,13.86,0,0,1-3.49-2,28.38,28.38,0,0,1-3-2.6,63.26,63.26,0,0,1-5.09-5.73,210.13,210.13,0,0,1-15.44-23.23c-8.61-14.72-14.83-27-19.1-35.57-2.12-4.26-3.73-7.6-4.81-9.86s-1.62-3.47-1.62-3.47.16.29.45.86l1.26,2.56,4.9,9.82c4.32,8.49,10.59,20.79,19.24,35.48a211.69,211.69,0,0,0,15.46,23.14,64,64,0,0,0,5.06,5.69,29.62,29.62,0,0,0,2.92,2.55,13.48,13.48,0,0,0,3.37,1.94,57.33,57.33,0,0,0,8,1.31c2.73.29,5.5.56,8.3.75q8.43.64,17.28.93c5.89.21,11.91.35,18,.38s12.37,0,18.69-.29a63,63,0,0,0,9.47-1l9.54-1.77,8.71-1.6-.19.15A51,51,0,0,0,264,248a34.78,34.78,0,0,0-2.7-15.5l.24.15-13.69.43h0c-11-.62-21.62-1.29-31.62-2.13-2.5-.22-5-.43-7.39-.72-1.21-.14-2.41-.3-3.6-.52a13.76,13.76,0,0,1-3.42-1.14c-2.17-1-4.11-2.28-6.08-3.38a12.21,12.21,0,0,0-6.2-1.92h-.14l-.06-.13c-8.81-20.61-16-37.47-21-49.2-2.49-5.85-4.44-10.42-5.76-13.54L161,156.82C160.68,156,160.52,155.6,160.52,155.6Z"/><path class="cls-2" d="M156.68,150.31s-.51-.48-1.42-1.32a27.65,27.65,0,0,0-11.34-6.26,26.43,26.43,0,0,0-9.45-.83,26.73,26.73,0,0,0-9.1,2.68A27.19,27.19,0,0,0,119,149,27.59,27.59,0,0,0,115.5,153c-.73,1-1.1,1.6-1.14,1.58a1.61,1.61,0,0,1,.22-.46c.17-.28.39-.72.75-1.23a23.51,23.51,0,0,1,3.41-4.09,25.75,25.75,0,0,1,25.31-6.49,26.19,26.19,0,0,1,7.2,3.24,24.27,24.27,0,0,1,4.15,3.33,14.29,14.29,0,0,1,1,1.07C156.59,150.16,156.7,150.29,156.68,150.31Z"/><path class="cls-2" d="M189.39,223.09a35.29,35.29,0,0,1-1.86,5.69,33.29,33.29,0,0,1-2.34,5.52,35.21,35.21,0,0,1,1.86-5.7A34.44,34.44,0,0,1,189.39,223.09Z"/><path class="cls-2" d="M256,236s.14-.07.38,0a1.48,1.48,0,0,1,.74.72,1.58,1.58,0,0,1,0,1.56,1.8,1.8,0,0,1-1.74.81,1.71,1.71,0,0,1-1.31-1.4,1.63,1.63,0,0,1,.5-1.48,1.34,1.34,0,0,1,1-.32c.24,0,.35.09.35.12s-.58,0-1.08.47a1.28,1.28,0,0,0-.29,1.12,1.25,1.25,0,0,0,.93,1,1.37,1.37,0,0,0,1.25-.55,1.22,1.22,0,0,0,.1-1.15C256.48,236.18,255.94,236.09,256,236Z"/><path class="cls-2" d="M189.29,143.7a7.38,7.38,0,0,1-1-.51l-2.74-1.56.19-.09c-.54,2.74-1.06,6.76-2,11.58l-.06.32-.28-.18c-4-2.53-8.85-5.43-14-8.54-3.84-2.3-7.43-4.62-10.74-6.63s-6.36-3.71-8.92-5.14l-6.06-3.38-1.65-.93a2.44,2.44,0,0,1-.56-.35,3.22,3.22,0,0,1,.61.26l1.69.84c1.46.74,3.57,1.84,6.15,3.23s5.64,3.09,9,5.06l10.76,6.59c5.15,3.11,10,6,14,8.61l-.34.15c1-4.79,1.55-8.81,2.17-11.54l0-.18.15.1,2.68,1.66A5.69,5.69,0,0,1,189.29,143.7Z"/><path d="M147.6,131.53l22.62,16.85c5,3.71,10.07,7.48,16,9.38q-.15-7.86-.32-15.72l-2.32,11Z"/><path class="cls-2" d="M380.52,52.79a8.39,8.39,0,0,1-9-6.16,8.4,8.4,0,0,1,5.23-9.53,8.43,8.43,0,0,1,7.08-14.36,10.09,10.09,0,0,1,15.06-8.56,11.33,11.33,0,0,1,14-.55,8.3,8.3,0,0,1,8.71,4,8.3,8.3,0,0,1-1.32,9.51"/><path class="cls-4" d="M379.37,54A34.4,34.4,0,0,1,413,21.63l1.78,0c19.23.73,29.35,17.47,28.08,36.67L444,126.75h0L397.3,143.52l-.41-24.66s-18.52-2.5-19.12-21C377.48,89,378.37,70.6,379.37,54Z"/><path class="cls-7" d="M396.74,118.83a44.77,44.77,0,0,0,24-7.57s-5.42,13.4-23.87,12.11Z"/><path class="cls-2" d="M384.55,70.64a2.65,2.65,0,0,0,2.6,2.61,2.52,2.52,0,0,0,2.67-2.43,2.63,2.63,0,0,0-2.59-2.61A2.53,2.53,0,0,0,384.55,70.64Z"/><path class="cls-2" d="M383.52,62.9c.34.34,2.3-1.18,5.14-1.23s4.94,1.33,5.24,1c.15-.15-.19-.77-1.11-1.41a7.19,7.19,0,0,0-4.21-1.2,6.85,6.85,0,0,0-4.08,1.41C383.64,62.12,383.36,62.75,383.52,62.9Z"/><path class="cls-2" d="M410.4,70.64A2.63,2.63,0,0,0,413,73.25a2.52,2.52,0,0,0,2.67-2.43,2.64,2.64,0,0,0-2.59-2.61A2.52,2.52,0,0,0,410.4,70.64Z"/><path class="cls-2" d="M411.41,62.86c.34.34,2.31-1.18,5.14-1.23s4.94,1.33,5.25,1c.14-.15-.2-.77-1.12-1.41a7.26,7.26,0,0,0-4.21-1.2,6.92,6.92,0,0,0-4.08,1.41C411.53,62.09,411.25,62.71,411.41,62.86Z"/><path class="cls-2" d="M401.55,84.11c0-.16-1.76-.43-4.63-.74-.72-.06-1.41-.19-1.54-.68a3.66,3.66,0,0,1,.44-2.16l2-5.56c2.81-7.91,4.83-14.41,4.51-14.52s-2.86,6.21-5.67,14.13q-1,2.92-1.94,5.59a4.19,4.19,0,0,0-.32,2.85,1.83,1.83,0,0,0,1.21,1,5.41,5.41,0,0,0,1.24.15C399.76,84.29,401.54,84.27,401.55,84.11Z"/><path class="cls-2" d="M410.36,53.23c.38.71,2.8-.12,5.79-.28s5.52.29,5.78-.47c.11-.35-.43-1-1.52-1.54a8.88,8.88,0,0,0-4.51-.85,8.64,8.64,0,0,0-4.31,1.41C410.61,52.19,410.18,52.89,410.36,53.23Z"/><path class="cls-2" d="M383,52.87c.61.63,2.94-.09,5.76-.17s5.2.32,5.74-.36c.23-.33-.16-1-1.21-1.56a9.13,9.13,0,0,0-4.7-1A9,9,0,0,0,384,51.21C383,51.89,382.7,52.56,383,52.87Z"/><path class="cls-2" d="M381,45.45S385.61,33.79,391.12,31c6.69-3.4,9.74,3.95,16.13,2s12.78-5.19,19.45-.36c7.3,5.3,4,9.18,4.62,17.36,2.48,33.17,8.73,42.44,10.14,26.76.15-1.72,4.88-3.18,5.44-10.43.72-9.4.85-20.81-1.38-27.43-1.88-5.58-5.16-9.39-11-13.55-9.2-6.57-21.65-6.46-30.09-5.44S379.91,31,381,45.45Z"/><path class="cls-4" d="M440.27,76.28a5,5,0,0,1,5.31-4.93c3.45.25,7.32,2.13,7.24,9.25C452.68,93.22,440,90.47,440,90.11S440.17,81.57,440.27,76.28Z"/><path class="cls-7" d="M442.81,85.39c.06,0,.22.16.59.33a2.23,2.23,0,0,0,1.64.06c1.34-.48,2.49-2.58,2.58-4.86a7.19,7.19,0,0,0-.58-3.16,2.52,2.52,0,0,0-1.63-1.7,1.12,1.12,0,0,0-1.31.59c-.17.35-.1.6-.16.62s-.27-.21-.16-.73a1.37,1.37,0,0,1,.5-.79,1.72,1.72,0,0,1,1.22-.31,3.1,3.1,0,0,1,2.28,2A7.43,7.43,0,0,1,448.5,81c-.11,2.55-1.44,4.91-3.27,5.42a2.34,2.34,0,0,1-2-.36C442.83,85.7,442.77,85.41,442.81,85.39Z"/><path class="cls-2" d="M439.53,51.84a12.1,12.1,0,0,1-5.3,2.58c-2,.23-4.25-.86-4.62-2.81-.17-.87,0-1.89-.57-2.56s-2-.52-3-.38a8.07,8.07,0,0,1-8.48-5.61c-.91,1.42-3.09,1.41-4.53.52s-2.37-2.36-3.51-3.6-2.71-2.35-4.37-2.08c-.93.15-1.8.72-2.74.66-1.66-.12-2.5-2-2.79-3.68s-.52-3.55-1.94-4.42-3-.29-4.51,0-3.5-.07-3.92-1.55a3,3,0,0,1,.52-2.3,8.18,8.18,0,0,1,9.58-3.29,11.08,11.08,0,0,1,20.31-2.56,11.24,11.24,0,0,1,18.05,3.73,8.16,8.16,0,0,1,9.43,11.67c2.3,1.25,4.28,3.46,4.38,6.07s-2.39,5.27-4.92,4.63a4.51,4.51,0,0,1-7.71,4.66"/><path class="cls-8" d="M398.47,27a.58.58,0,0,0,0,.23c0,.15,0,.38.09.68a8,8,0,0,0,1,2.41,9,9,0,0,0,2.86,2.93,8.35,8.35,0,0,0,5.19,1.36l-.22-.27a4.58,4.58,0,0,0,.33,3.48,13,13,0,0,0,2.22,3.06,9.7,9.7,0,0,0,1.44,1.42,4.52,4.52,0,0,0,2,.7,4.62,4.62,0,0,0,4-1.54l-.47-.13a9.46,9.46,0,0,0,4.14,6.47,6.93,6.93,0,0,0,4.17,1.27,12.58,12.58,0,0,0,4.07-1L429,48a9.89,9.89,0,0,0,3.07,3.84,5.32,5.32,0,0,0,4.42,1.11,7,7,0,0,0,5.24-5.55l-.29.14a6.49,6.49,0,0,0,4.35.54,7,7,0,0,0,3-1.41,6,6,0,0,0,1.38-1.57,3.16,3.16,0,0,0,.31-.66,7.76,7.76,0,0,1-1.82,2.07,7,7,0,0,1-2.93,1.27,6.19,6.19,0,0,1-4.1-.58l-.24-.13,0,.26a6.57,6.57,0,0,1-5,5.15,4.82,4.82,0,0,1-4-1.05,9.53,9.53,0,0,1-2.88-3.64l-.11-.23-.23.09a12.37,12.37,0,0,1-3.89.93,6.33,6.33,0,0,1-3.85-1.19,8.92,8.92,0,0,1-3.92-6.09l-.1-.6-.38.47a4.06,4.06,0,0,1-3.56,1.36,4,4,0,0,1-1.79-.6,9.48,9.48,0,0,1-1.35-1.34,12.76,12.76,0,0,1-2.18-2.92,4.18,4.18,0,0,1-.34-3.15l.1-.3-.31,0a8.12,8.12,0,0,1-5-1.23,8.92,8.92,0,0,1-2.83-2.77A9.72,9.72,0,0,1,398.47,27Z"/><path class="cls-2" d="M411.33,85.08c-.46.06.07,3-2.11,5.6s-5.39,2.79-5.34,3.21c0,.19.8.45,2.15.25a7.51,7.51,0,0,0,4.49-2.51A6.51,6.51,0,0,0,412.09,87C412,85.71,411.53,85,411.33,85.08Z"/><path class="cls-10" d="M308.21,228.69c1.6-.64,54.45-7,54.45-7l21.44-18.15-2,52.55-67.48,6.51Z"/><path class="cls-11" d="M374.62,211.57c-.65.33-5.94,5-5.94,5l1.61,40.47Z"/><path class="cls-2" d="M464.66,306.75H375.39s4.73,25.18,6.48,36.79a148.19,148.19,0,0,0,4.31,19.84H467s6-14.63,7.08-24S464.66,306.75,464.66,306.75Z"/><path class="cls-2" d="M368.74,309.79s-2.49,28.71,0,53.59h30.92V340.45Z"/><path class="cls-12" d="M385.92,169.05,395.54,148l1.2-13s18.44-11.59,27.19-16a192.55,192.55,0,0,1,20.55-8.33v12.27Z"/><path class="cls-10" d="M466.33,276.64s5.22-70.22,5.58-75.43c0,0,3.08-37.52-3.58-51.81s-21.57-26.84-21.57-26.84l-1.37-7.5-29.12,18.35-13.46,11.71a134,134,0,0,0-12.7,15.8c-3.82,5.28-8.07,12.09-9.95,20.64-.7,3.12-8.71,40.5-9,66.56,0,0-1.23,22.73-2.54,35.61-1.63,15.93-4.1,52.26-3.56,73.78l94.35-2.88c23.32-3.56,19.22-5.87,19.22-5.87Z"/><path class="cls-2" d="M444.48,122.94s-.22.12-.66.3l-1.92.81c-.83.39-1.83.92-3,1.53S436.43,127,435,128a107,107,0,0,0-20.73,19.16l-.06.06-.08,0-9.05,1.66.2-.23c-.15,4.21-.3,8.62-.45,13.19V162l-.08.07a124.14,124.14,0,0,0-13.31,14.59,58.42,58.42,0,0,0-4.57,6.9l-.49.89-.38.93a16.79,16.79,0,0,0-.68,1.88c-.4,1.28-.8,2.55-1.13,3.83-1.4,5.1-2.55,10.07-3.63,14.82-2.15,9.48-3.94,18.06-5.42,25.27-3,14.42-4.63,23.36-4.63,23.36a14,14,0,0,1,.2-1.64c.17-1.07.44-2.64.8-4.67.73-4.05,1.84-9.9,3.27-17.12s3.19-15.81,5.31-25.31c1.07-4.75,2.21-9.73,3.61-14.85.33-1.28.73-2.56,1.13-3.85a16,16,0,0,1,.7-1.93l.39-1,.5-.9a57.73,57.73,0,0,1,4.6-7,123.72,123.72,0,0,1,13.39-14.65l-.08.17c.16-4.56.32-9,.47-13.18v-.19l.19,0,9-1.63-.13.07a105.15,105.15,0,0,1,20.93-19.09c1.41-1,2.77-1.69,3.91-2.37s2.21-1.1,3-1.48l2-.74C444.24,123,444.48,122.94,444.48,122.94Z"/><path class="cls-10" d="M412.8,178.43l1.13,93.7-14.27,91.25h37.62s17.09-69.29,21.07-83.85c3.87-14.14,9.66-85.31,10.18-88.8.2-1.37,4.28-25.95-7.73-37.54"/><path class="cls-2" d="M460.8,153.19l.79.78a20.22,20.22,0,0,1,2.05,2.52,31.43,31.43,0,0,1,4.7,11.55,64.64,64.64,0,0,1,.72,19.77c-.57,3.84-.85,7.94-1.27,12.31s-.81,9-1.26,13.84c-.89,9.7-1.9,20.32-3.13,31.72-.63,5.7-1.28,11.59-2.08,17.65A143.31,143.31,0,0,1,458,281.91c-6.28,25-13.2,52.57-20.47,81.53l0,.2H399.36l.05-.3,14.31-91.25v0c-.31-28.37-.56-51.79-.73-68.13-.08-8.16-.13-14.55-.17-18.91,0-2.17,0-3.83,0-5s0-1.7,0-1.7,0,.58.05,1.7.06,2.79.09,5c.07,4.36.17,10.75.29,18.9.22,16.34.53,39.76.92,68.13v0c-4.13,26.53-9,57.6-14.22,91.26l-.26-.3h37.62l-.25.2c7.28-29,14.22-56.51,20.51-81.54a144.25,144.25,0,0,0,3.33-18.51c.81-6,1.47-11.94,2.11-17.64,1.24-11.39,2.27-22,3.19-31.71.45-4.84.89-9.46,1.29-13.83s.73-8.5,1.31-12.31a64.81,64.81,0,0,0-.63-19.7,31.75,31.75,0,0,0-4.58-11.53,23.41,23.41,0,0,0-2-2.55Z"/><path class="cls-2" d="M432.69,281.35a15.65,15.65,0,0,1-2.9-.85c-1.77-.6-4.19-1.52-6.79-2.67s-4.91-2.34-6.55-3.24a15.5,15.5,0,0,1-2.57-1.6,21.27,21.27,0,0,1,2.74,1.27c1.68.82,4,1.94,6.59,3.09s5,2.12,6.7,2.81A18.25,18.25,0,0,1,432.69,281.35Z"/><path class="cls-2" d="M368.3,287.56a1,1,0,0,1,0-.25q0-.29,0-.72c0-.67.08-1.59.14-2.75.16-2.44.38-5.89.65-10.13.57-8.55,1.4-20.36,2.55-33.39s2.49-24.8,3.57-33.3c.55-4.25,1-7.69,1.36-10.06.17-1.15.3-2.07.4-2.73.05-.29.09-.52.12-.71a.13.13,0,1,1,.06,0c0,.19,0,.42-.07.71-.08.67-.18,1.59-.31,2.74-.29,2.43-.69,5.86-1.19,10.08-1,8.51-2.27,20.28-3.42,33.31s-2,24.82-2.7,33.37c-.34,4.23-.62,7.68-.81,10.11-.11,1.16-.19,2.08-.25,2.75,0,.29-.06.52-.08.72A.92.92,0,0,1,368.3,287.56Z"/><path class="cls-2" d="M444.48,141.37a49.75,49.75,0,0,0-3.54-7.47,47.48,47.48,0,0,0-5.2-6.42,8.07,8.07,0,0,1,1.91,1.54,24.89,24.89,0,0,1,6.26,10A8.59,8.59,0,0,1,444.48,141.37Z"/><path class="cls-2" d="M378.1,257.78s.12.23.09.68a2.66,2.66,0,0,1-.81,1.69,2.59,2.59,0,0,1-2.72.62,3,3,0,0,1-1.39-1,2.72,2.72,0,0,1-.56-1.75,3.59,3.59,0,0,1,.72-2.18,2.23,2.23,0,0,1,.88-.7c.36-.13.62-.19.92-.29h.07a3.22,3.22,0,0,1,1.81.52,2.33,2.33,0,0,1,.84,1.2,2.26,2.26,0,0,1,.15,1.22c-.06,0-.11-.44-.4-1.13a2.21,2.21,0,0,0-.8-1,2.86,2.86,0,0,0-1.6-.37h.06c-.27.09-.61.2-.86.3a1.83,1.83,0,0,0-.67.55,3.17,3.17,0,0,0-.6,1.88,2.38,2.38,0,0,0,1.6,2.3,2.23,2.23,0,0,0,2.3-.43,2.81,2.81,0,0,0,.86-1.46A5.92,5.92,0,0,1,378.1,257.78Z"/><path class="cls-2" d="M376.7,290.91s.13.23.1.68a2.74,2.74,0,0,1-.82,1.69,2.58,2.58,0,0,1-2.71.62,3,3,0,0,1-1.4-1,2.72,2.72,0,0,1-.56-1.75A3.65,3.65,0,0,1,372,289a2.23,2.23,0,0,1,.88-.7c.36-.13.62-.19.92-.29h.07a3.22,3.22,0,0,1,1.81.52,2.33,2.33,0,0,1,.84,1.2,2.26,2.26,0,0,1,.15,1.22c-.06,0-.11-.44-.4-1.13a2.21,2.21,0,0,0-.8-1,2.86,2.86,0,0,0-1.6-.37H374c-.28.09-.62.2-.87.3a1.83,1.83,0,0,0-.67.55,3.17,3.17,0,0,0-.6,1.88,2.38,2.38,0,0,0,1.6,2.3,2.23,2.23,0,0,0,2.3-.43,2.75,2.75,0,0,0,.86-1.46A5.92,5.92,0,0,1,376.7,290.91Z"/><path class="cls-2" d="M456.57,147.64c-.06.09-1.3-.7-3.49-1.54a24.44,24.44,0,0,0-4-1.13,27,27,0,0,0-5-.45,27.31,27.31,0,0,0-5,.59,24.46,24.46,0,0,0-3.93,1.23c-2.17.9-3.38,1.73-3.44,1.64a4.11,4.11,0,0,1,.83-.62,9.16,9.16,0,0,1,1-.63c.42-.22.89-.5,1.44-.73a21.66,21.66,0,0,1,4-1.36,24.94,24.94,0,0,1,5.1-.64,25.45,25.45,0,0,1,5.11.5,21.56,21.56,0,0,1,4,1.25,15.61,15.61,0,0,1,1.46.69,10,10,0,0,1,1.05.6A4.76,4.76,0,0,1,456.57,147.64Z"/><g class="cls-13"><path d="M374.17,235.29c4.08-5.93,5.57-11.53,7.75-18.38,3.24-10.19,4.14-21.71,9.22-31.11,3-5.54,6.5-11.23,11.7-14.78s5.82-7.87,5.72-19.79c3.62,0,7.45-2.76,7.91-3.25a20.13,20.13,0,0,0,4.44-8.32L414.13,147s-9.19,1.7-9.05,1.65c-.23,4.58-.24,8.6-.46,13.18,0,0-17.63,18.71-19,22.47S374.17,235.29,374.17,235.29Z"/></g><g class="cls-13"><path d="M439.64,352.08c22.34-42.29,29.29-97.9,28-150.87,0,0-6.42,64.38-8.58,75.43S439.64,352.08,439.64,352.08Z"/></g><path class="cls-2" d="M443.05,116.14a3.45,3.45,0,0,1-.5.38l-1.49,1-5.53,3.63L417.19,133,409.27,138h0L406.76,140a21.58,21.58,0,0,0-2.26,1.93c-1.38,1.34-2.61,2.64-3.72,3.82l-.2.22-.12-.27c-1.2-2.77-2.18-5-2.88-6.67-.32-.75-.57-1.36-.76-1.83a4.57,4.57,0,0,1-.24-.65,2.64,2.64,0,0,1,.34.61l.85,1.78c.75,1.62,1.78,3.86,3,6.61l-.31-.06c1.09-1.2,2.31-2.52,3.69-3.88a22.39,22.39,0,0,1,2.29-2l2.51-2h0l7.91-5.06,18.42-11.7,5.62-3.49,1.54-.93A2.32,2.32,0,0,1,443.05,116.14Z"/></g><g id="Speech_Bubble" data-name="Speech Bubble"><path class="cls-14" d="M350.82,70l-12.5-1.46a40.17,40.17,0,1,1,8.1-11.9h0Z"/><path class="cls-2" d="M350.82,70s-.12-.31-.31-.89l-.87-2.56-3.32-9.89.21,0v0a.13.13,0,0,1-.18,0,.12.12,0,0,1,0-.15,40.06,40.06,0,0,0,3.24-19.48,38.67,38.67,0,0,0-1-6.11,45.36,45.36,0,0,0-2.13-6.26,39.74,39.74,0,0,0-20.87-20.9,39.8,39.8,0,0,0-55.22,31.37,40.54,40.54,0,0,0,1.84,18.23,39.3,39.3,0,0,0,9.07,14.69,40.23,40.23,0,0,0,13.22,9,39.83,39.83,0,0,0,14.19,3.08l1.71,0a10.45,10.45,0,0,0,1.68,0l3.27-.29a56.57,56.57,0,0,0,6.08-1.33,40,40,0,0,0,16.85-10.1.13.13,0,0,1,.1,0l9.24,1.15,2.41.31.83.12-.79-.08-2.37-.25-9.35-1,.1,0A39.92,39.92,0,0,1,321.5,78.88a54.58,54.58,0,0,1-6.13,1.38l-3.31.3a9.6,9.6,0,0,1-1.7.06h-1.72a40.35,40.35,0,0,1-27.77-12.16,39.65,39.65,0,0,1-9.21-14.86,41.23,41.23,0,0,1-1.89-18.49A40.14,40.14,0,0,1,276.88,17a18.41,18.41,0,0,1,1.48-1.94l1.55-1.87,1.71-1.72a16.14,16.14,0,0,1,1.77-1.64l1.85-1.52a22.13,22.13,0,0,1,1.95-1.38c.67-.43,1.3-.9,2-1.3l2.08-1.11A39.74,39.74,0,0,1,308.9,0a40.23,40.23,0,0,1,37.92,24.54A45.75,45.75,0,0,1,349,30.88a39.35,39.35,0,0,1,1,6.16,40.22,40.22,0,0,1-3.39,19.62l-.22-.13h0a.11.11,0,0,1,.17,0,.07.07,0,0,1,0,.06c1.4,4.37,2.47,7.73,3.21,10,.35,1.11.61,2,.8,2.54S350.82,70,350.82,70Z"/><polygon class="cls-2" points="291.31 41.28 296.11 35.97 306.29 44.14 321.41 26.77 326.36 31.59 306.06 53.92 291.31 41.28"/><path class="cls-3" d="M240.78,73.44l7.92-1a.08.08,0,0,1,.09,0,34.3,34.3,0,0,0,14.45,8.66,46.37,46.37,0,0,0,5.21,1.14l2.8.25a10,10,0,0,0,1.45,0l1.46,0a34.1,34.1,0,0,0,12.17-2.65,33.5,33.5,0,0,0,3.09-1.48c-.31-.12-.62-.23-.93-.36a39.64,39.64,0,0,1-13.14-8.91,38.86,38.86,0,0,1-9-14.57,40.18,40.18,0,0,1-1.85-18.12,39.33,39.33,0,0,1,7-17.75,19.06,19.06,0,0,1,1.45-1.9L274.4,15l.65-.65c-.37,0-.74-.05-1.12-.05A34.16,34.16,0,0,0,241.77,35,38.51,38.51,0,0,0,240,40.36a34.22,34.22,0,0,0,1.92,21.94.11.11,0,0,1,0,.13c-1.23,3.67-2.18,6.49-2.82,8.41-.33,1-.58,1.69-.75,2.2l-.26.76.71-.1Z"/><path class="cls-2" d="M240.78,73.44s-.23,0-.7.11l-2.07.31h-.09l0-.09c.77-2.34,2.06-6.22,3.77-11.39l0-.06s0,.06,0,0l-.07-.16-.14-.33-.28-.67c-.18-.45-.35-.92-.52-1.39-.34-1-.64-2-.91-3a34.22,34.22,0,0,1-1-6.91,35.11,35.11,0,0,1,.56-7.8A35.93,35.93,0,0,1,240.45,38a30,30,0,0,1,1.6-4.1,34.45,34.45,0,0,1,33-19.79l.57,0-.4.41-.66.65,0,0a40.42,40.42,0,0,0-9.5,18.92,39.23,39.23,0,0,0,24.4,44.16l.49.19-.46.22A43.84,43.84,0,0,1,284.12,81a34.25,34.25,0,0,1-5.44,1.34,36.1,36.1,0,0,1-10.25.14h0c-1.15-.23-2.29-.42-3.39-.67a29.82,29.82,0,0,1-3.16-.92,35.09,35.09,0,0,1-5.48-2.47,34.26,34.26,0,0,1-7.62-5.81c0-.1-.22,0-.37,0l-.47.06-.9.1-1.61.19-2.54.3-1.56.17-.53,0,.53-.1,1.55-.22,2.53-.34,1.61-.21.9-.12.46-.06.24,0c.06,0,.05,0,.15,0a.24.24,0,0,1,.11.06l0,0a34.58,34.58,0,0,0,7.62,5.7,35.21,35.21,0,0,0,12,4h0a41.61,41.61,0,0,0,4.92.27,33.46,33.46,0,0,0,5.22-.45A34.32,34.32,0,0,0,284,80.57a41.33,41.33,0,0,0,5.33-2.34l0,.41A39.65,39.65,0,0,1,264.59,34a41,41,0,0,1,9.61-19.15l0,0h0l.65-.65.17.43A34,34,0,0,0,242.43,34a28.42,28.42,0,0,0-1.59,4,35.36,35.36,0,0,0-1.08,4,35,35,0,0,0-.59,7.72,33.79,33.79,0,0,0,1,6.85c.26,1,.55,2,.88,3,.17.48.33.94.51,1.39l.27.67.13.33.07.16s.07.24,0,.31l0-.06c-1.77,5.18-3.08,9.06-3.91,11.35l-.06-.08,2.08-.24C240.54,73.45,240.78,73.44,240.78,73.44Z"/></g></g></svg>